<svg width="24" height="23" viewBox="0 0 24 23" fill="none" xmlns="http://www.w3.org/2000/svg">
<path d="M7.01373 1.0538C5.87729 1.05234 4.76376 1.37334 3.80248 1.97951C2.8412 2.58568 2.07162 3.45214 1.58314 4.47824C1.09466 5.50434 0.907323 6.64798 1.04289 7.77631C1.17846 8.90464 1.63137 9.97135 2.34901 10.8525V10.8525L11.9808 22.159L21.5189 10.9653L21.5663 10.9118L21.6137 10.8525C22.1352 10.2244 22.5232 9.49658 22.7543 8.71354C22.9853 7.93049 23.0544 7.1086 22.9574 6.29797C22.8604 5.48734 22.5994 4.70496 22.1901 3.99852C21.7809 3.29208 21.232 2.6764 20.5771 2.18899C19.9221 1.70159 19.1748 1.35269 18.3806 1.16356C17.5864 0.974424 16.762 0.949025 15.9576 1.08891C15.1533 1.22879 14.3859 1.53102 13.7021 1.97718C13.0184 2.42334 12.4327 3.00407 11.9808 3.68398C11.4314 2.87389 10.6919 2.21067 9.82704 1.75228C8.96217 1.29389 7.99821 1.05427 7.01937 1.05436L7.01373 1.0538Z" stroke="#414042" stroke-linecap="round" stroke-linejoin="round"/>
</svg>
