<svg width="30" height="30" viewBox="0 0 30 30" fill="none" xmlns="http://www.w3.org/2000/svg">
<path d="M11.2498 26.6667C12.4004 26.6667 13.3332 25.7339 13.3332 24.5833C13.3332 23.4327 12.4004 22.5 11.2498 22.5C10.0992 22.5 9.1665 23.4327 9.1665 24.5833C9.1665 25.7339 10.0992 26.6667 11.2498 26.6667Z" fill="#4C5DF4"/>
<path d="M22.0833 26.6667C23.2339 26.6667 24.1667 25.7339 24.1667 24.5833C24.1667 23.4327 23.2339 22.5 22.0833 22.5C20.9327 22.5 20 23.4327 20 24.5833C20 25.7339 20.9327 26.6667 22.0833 26.6667Z" fill="#4C5DF4"/>
<path d="M24.9999 11.2499C23.3423 11.2499 21.7526 10.5915 20.5805 9.41936C19.4084 8.24726 18.7499 6.65754 18.7499 4.99994H7.67491L7.29991 3.80827C7.25872 3.68032 7.18718 3.56423 7.09141 3.46991C6.99564 3.37559 6.87847 3.30584 6.74991 3.26661L3.33324 2.21661C3.22818 2.18432 3.1178 2.17305 3.00838 2.18343C2.89897 2.1938 2.79267 2.22563 2.69555 2.27709C2.49942 2.38102 2.35261 2.5586 2.28741 2.77077C2.22221 2.98295 2.24397 3.21233 2.34789 3.40846C2.45182 3.60459 2.6294 3.75141 2.84158 3.81661L5.83324 4.73327L9.64991 16.7916L8.29158 17.9083L8.18324 18.0166C7.84732 18.4056 7.65701 18.8992 7.64485 19.413C7.63268 19.9268 7.79944 20.4288 8.11658 20.8333C8.34371 21.1095 8.63233 21.3287 8.95936 21.4734C9.28638 21.6181 9.64274 21.6843 9.99991 21.6666H23.9082C24.1293 21.6666 24.3412 21.5788 24.4975 21.4225C24.6538 21.2663 24.7416 21.0543 24.7416 20.8333C24.7416 20.6123 24.6538 20.4003 24.4975 20.244C24.3412 20.0877 24.1293 19.9999 23.9082 19.9999H9.86658C9.77062 19.9967 9.67712 19.9687 9.59512 19.9187C9.51313 19.8688 9.4454 19.7985 9.39849 19.7147C9.35157 19.631 9.32706 19.5365 9.32731 19.4405C9.32755 19.3445 9.35256 19.2501 9.39991 19.1666L11.4082 17.4999H24.2666C24.4569 17.5055 24.6435 17.4457 24.7951 17.3304C24.9467 17.2152 25.0543 17.0515 25.0999 16.8666L26.5249 11.0333C26.0275 11.1682 25.5152 11.241 24.9999 11.2499Z" fill="#414042"/>
<path d="M25.0002 9.16683C27.3013 9.16683 29.1668 7.30135 29.1668 5.00016C29.1668 2.69898 27.3013 0.833496 25.0002 0.833496C22.699 0.833496 20.8335 2.69898 20.8335 5.00016C20.8335 7.30135 22.699 9.16683 25.0002 9.16683Z" fill="url(#paint0_linear_2786_1078)"/>
<defs>
<linearGradient id="paint0_linear_2786_1078" x1="28.3643" y1="13.3335" x2="16.139" y2="12.7003" gradientUnits="userSpaceOnUse">
<stop stop-color="#ED1C24"/>
<stop offset="1" stop-color="#BE1E2D"/>
</linearGradient>
</defs>
</svg>
