<svg width="263" height="220" viewBox="0 0 263 220" fill="none" xmlns="http://www.w3.org/2000/svg">
<path d="M138.39 135.696H136.168C136.09 135.696 136.015 135.727 135.96 135.783C135.905 135.838 135.874 135.913 135.874 135.991V136.969C135.874 137.008 135.882 137.046 135.896 137.082C135.911 137.118 135.933 137.15 135.96 137.178C135.987 137.205 136.02 137.227 136.056 137.242C136.091 137.256 136.13 137.264 136.168 137.264H136.536V138.728H138.022V137.264H138.39C138.468 137.264 138.543 137.233 138.598 137.178C138.653 137.122 138.684 137.047 138.684 136.969V135.991C138.684 135.913 138.653 135.838 138.598 135.783C138.543 135.727 138.468 135.696 138.39 135.696Z" fill="#E6E6E6"/>
<path d="M140.615 144.641C139.254 142.645 138.559 140.269 138.628 137.854C138.629 137.798 138.611 137.743 138.577 137.7C138.542 137.656 138.494 137.625 138.44 137.613V137.19H136.094V137.607H136.062C136.03 137.607 135.999 137.613 135.969 137.625C135.94 137.638 135.914 137.655 135.891 137.678C135.869 137.7 135.851 137.727 135.839 137.756C135.827 137.785 135.821 137.817 135.821 137.848C135.821 137.854 135.821 137.86 135.822 137.866C136.038 140.331 135.375 142.793 133.949 144.814C133.867 144.931 133.825 145.073 133.829 145.217L134.086 153.17C134.092 153.348 134.166 153.516 134.293 153.64C134.42 153.764 134.59 153.834 134.767 153.835H140.073C140.252 153.834 140.424 153.762 140.551 153.636C140.678 153.509 140.751 153.338 140.755 153.159L140.853 145.436C140.856 145.153 140.773 144.875 140.615 144.641Z" fill="#6C63FF"/>
<path opacity="0.2" d="M137.927 136.015C137.927 136.184 137.86 136.346 137.741 136.465C137.621 136.584 137.46 136.652 137.291 136.652C137.123 136.652 136.961 136.584 136.842 136.465C136.723 136.346 136.656 136.184 136.656 136.015" fill="black"/>
<path d="M95.4391 97.5139L101.003 97.0069L104.544 88.3873L98.2213 84.8379L95.4391 97.5139Z" fill="#FFB8B8"/>
<path d="M146.504 121.178C146.689 120.715 146.762 120.215 146.716 119.719C146.671 119.223 146.508 118.744 146.242 118.324C145.976 117.903 145.614 117.551 145.185 117.298C144.757 117.045 144.275 116.898 143.779 116.868L135.14 116.352L133.868 120.592L142.761 123.04C143.504 123.244 144.297 123.168 144.987 122.824C145.677 122.481 146.217 121.895 146.504 121.178Z" fill="#FFB8B8"/>
<path d="M137.228 123.11L137.132 115.154L117.943 112.085L103.159 95.0895C102.39 94.2053 101.327 93.6304 100.168 93.4715C99.008 93.3125 97.8302 93.5803 96.8524 94.2251C96.2604 94.6155 95.7612 95.1315 95.39 95.7366C95.0188 96.3416 94.7848 97.0211 94.7043 97.7268C94.6239 98.4325 94.6991 99.1474 94.9247 99.8208C95.1502 100.494 95.5205 101.11 96.0094 101.624L108.206 116.669L137.228 123.11Z" fill="#575A89"/>
<path d="M91.1394 212.613H96.1978L108.745 155.752L121.743 173.317L129.33 211.346H134.136L133.124 170.529L116.179 126.923H99.4858C94.9241 135.198 91.3456 143.729 95.439 152.529L91.1394 212.613Z" fill="#2F2E41"/>
<path d="M126.23 216.067C126.174 216.246 126.156 216.436 126.179 216.622C126.202 216.809 126.264 216.988 126.361 217.149C126.459 217.31 126.589 217.448 126.744 217.554C126.899 217.66 127.074 217.732 127.259 217.765L139.637 219.966C140.126 220.056 140.631 219.963 141.057 219.706C141.482 219.448 141.799 219.043 141.947 218.567C142.091 218.113 142.071 217.622 141.89 217.181C141.709 216.739 141.379 216.376 140.957 216.155C138.236 214.754 135.893 212.713 134.131 210.206C132.771 211.476 131.25 211.356 129.636 210.421L127.923 210.635L126.23 216.067Z" fill="#2F2E41"/>
<path d="M88.7973 216.067C88.7413 216.246 88.7242 216.436 88.7469 216.622C88.7697 216.809 88.8318 216.988 88.9292 217.149C89.0266 217.31 89.157 217.448 89.3118 217.554C89.4665 217.66 89.642 217.732 89.8266 217.765L102.205 219.966C102.694 220.056 103.199 219.963 103.624 219.706C104.05 219.448 104.367 219.043 104.515 218.567C104.659 218.113 104.639 217.622 104.458 217.181C104.277 216.739 103.947 216.376 103.525 216.155C100.803 214.754 98.4611 212.713 96.6989 210.206C95.3384 211.476 93.8179 211.356 92.2033 210.421L90.4907 210.635L88.7973 216.067Z" fill="#2F2E41"/>
<path d="M104.671 91.5566C108.582 91.5566 111.752 88.3785 111.752 84.458C111.752 80.5375 108.582 77.3594 104.671 77.3594C100.759 77.3594 97.5889 80.5375 97.5889 84.458C97.5889 88.3785 100.759 91.5566 104.671 91.5566Z" fill="#FFB8B8"/>
<path d="M98.3476 128.824L116.811 128.317L111.389 111.211C114.758 105.796 111.367 100.387 106.568 94.9788L102.774 92.4436L96.7036 91.9365C94.0755 94.7554 92.6375 98.4843 92.6908 102.342C92.8109 110.603 94.2702 119.596 98.3476 128.824Z" fill="#575A89"/>
<path d="M140.768 140.338C141.119 139.986 141.382 139.555 141.535 139.081C141.688 138.607 141.726 138.103 141.647 137.611C141.567 137.119 141.372 136.653 141.078 136.252C140.783 135.85 140.398 135.524 139.953 135.301L132.213 131.42L129.38 134.816L136.596 140.574C137.199 141.056 137.957 141.297 138.727 141.254C139.496 141.21 140.223 140.884 140.768 140.338Z" fill="#FFB8B8"/>
<path d="M131.48 138.458L134.515 131.106L118.077 120.717L111.156 99.2623C110.795 98.146 110.044 97.1984 109.04 96.595C108.036 95.9916 106.849 95.7733 105.697 95.9806C104.999 96.1061 104.338 96.3836 103.759 96.7935C103.18 97.2035 102.698 97.7358 102.347 98.3529C101.997 98.9701 101.785 99.6569 101.728 100.365C101.671 101.073 101.77 101.785 102.018 102.45L107.326 121.092L131.48 138.458Z" fill="#575A89"/>
<path d="M93.0364 81.6684C93.0364 84.4305 94.8259 88.7081 97.0831 90.5417C98.6018 91.7754 100.609 91.7235 101.383 90.0347C102.177 88.3022 104.913 84.2301 109.729 81.6684C116.149 78.2536 107.452 72.4114 101.383 73.3022C96.8218 73.9716 93.0364 77.0479 93.0364 81.6684Z" fill="#2F2E41"/>
<path d="M97.336 77.8665C100.13 77.8665 102.394 75.5964 102.394 72.796C102.394 69.9957 100.13 67.7256 97.336 67.7256C94.5423 67.7256 92.2776 69.9957 92.2776 72.796C92.2776 75.5964 94.5423 77.8665 97.336 77.8665Z" fill="#2F2E41"/>
<path d="M103.153 71.0206C103.153 69.7423 102.67 68.5115 101.802 67.5747C100.935 66.6379 99.7458 66.0645 98.4741 65.9694C98.5998 65.96 98.7254 65.9502 98.8535 65.9502C100.195 65.9502 101.482 66.4844 102.43 67.4353C103.379 68.3862 103.912 69.6759 103.912 71.0206C103.912 72.3654 103.379 73.6551 102.43 74.606C101.482 75.5569 100.195 76.0911 98.8535 76.0911C98.7254 76.0911 98.5998 76.0813 98.4741 76.0719C99.7458 75.9768 100.935 75.4033 101.802 74.4666C102.67 73.5298 103.153 72.2989 103.153 71.0206Z" fill="#2F2E41"/>
<path d="M104.797 86.9925C105.426 86.9925 105.935 86.3114 105.935 85.4713C105.935 84.6312 105.426 83.9502 104.797 83.9502C104.168 83.9502 103.659 84.6312 103.659 85.4713C103.659 86.3114 104.168 86.9925 104.797 86.9925Z" fill="#FFB8B8"/>
<path d="M248.118 203.314H169.374L152.699 124.3H138.469V120.755H155.566L172.241 199.769H248.118V203.314Z" fill="#3F3D56"/>
<path d="M180.914 217.75C185.1 217.75 188.493 214.348 188.493 210.152C188.493 205.956 185.1 202.555 180.914 202.555C176.728 202.555 173.334 205.956 173.334 210.152C173.334 214.348 176.728 217.75 180.914 217.75Z" fill="#3F3D56"/>
<path d="M237.507 217.75C241.693 217.75 245.086 214.348 245.086 210.152C245.086 205.956 241.693 202.555 237.507 202.555C233.321 202.555 229.927 205.956 229.927 210.152C229.927 214.348 233.321 217.75 237.507 217.75Z" fill="#3F3D56"/>
<path d="M246.682 201.645H170.069L156.551 134.684H259.368C259.892 134.684 260.411 134.798 260.887 135.018C261.364 135.238 261.787 135.559 262.128 135.958C262.469 136.358 262.719 136.827 262.862 137.333C263.005 137.839 263.037 138.37 262.956 138.889L250.27 198.569C250.139 199.428 249.705 200.211 249.046 200.775C248.388 201.34 247.549 201.648 246.682 201.645ZM170.901 200.632H246.682C247.307 200.634 247.913 200.412 248.388 200.004C248.863 199.597 249.177 199.032 249.271 198.412L261.957 138.732C262.016 138.357 261.993 137.974 261.89 137.609C261.787 137.243 261.606 136.905 261.36 136.616C261.114 136.328 260.808 136.096 260.464 135.938C260.12 135.779 259.746 135.697 259.368 135.697H157.778L170.901 200.632Z" fill="#3F3D56"/>
<path d="M184.963 201.43L176.11 135.272L177.107 135.107L185.96 201.265L184.963 201.43Z" fill="#3F3D56"/>
<path d="M234.186 200.923L233.188 200.761L241.782 135.109L242.78 135.271L234.186 200.923Z" fill="#3F3D56"/>
<path d="M210.734 135.19H209.723V201.348H210.734V135.19Z" fill="#3F3D56"/>
<path d="M161.714 152.918L161.711 153.931L259.535 154.168L259.537 153.155L161.714 152.918Z" fill="#3F3D56"/>
<path d="M139.985 125.06C143.054 125.06 145.543 123.7 145.543 122.021C145.543 120.343 143.054 118.982 139.985 118.982C136.915 118.982 134.426 120.343 134.426 122.021C134.426 123.7 136.915 125.06 139.985 125.06Z" fill="#3F3D56"/>
</svg>
