<svg width="38" height="31" viewBox="0 0 38 31" fill="none" xmlns="http://www.w3.org/2000/svg">
<path d="M14.75 6.19C14.27 6.19 13.9 6.06 13.64 5.8C14.02 5.54 14.42 5.2 14.84 4.78C15.28 4.36 15.73 3.86 16.19 3.28C16.23 3.28 16.25 3.32 16.25 3.4C16.25 3.44 16.24 3.5 16.22 3.58C16.22 3.64 16.22 3.69 16.22 3.73C15.98 5.37 15.49 6.19 14.75 6.19ZM2.12 30.1C1.42 30.1 0.919999 29.95 0.62 29.65C0.299999 29.35 0.139999 28.86 0.139999 28.18C0.139999 26.6 1.26 24.56 3.5 22.06C4.62 20.82 5.8 19.67 7.04 18.61C8.28 17.55 9.59 16.59 10.97 15.73L11.21 15.61C11.25 15.61 11.27 15.63 11.27 15.67C11.27 15.69 11.25 15.74 11.21 15.82C11.17 15.9 11.07 16.02 10.91 16.18C4.17 21.78 0.8 25.83 0.8 28.33C0.8 29.29 1.17 29.77 1.91 29.77C2.99 29.77 4.24 28.97 5.66 27.37C6.36 26.57 7.03 25.69 7.67 24.73C8.31 23.77 8.91 22.74 9.47 21.64C10.03 20.52 10.55 19.38 11.03 18.22C11.51 17.08 11.94 15.91 12.32 14.71C13.1 12.27 13.49 10.28 13.49 8.74L13.4 7.51V7.45C13.4 7.31 13.49 7.24 13.67 7.24C13.85 7.24 14.11 7.32 14.45 7.48C14.79 7.64 14.99 7.8 15.05 7.96C15.09 8.1 15.12 8.29 15.14 8.53C15.16 8.77 15.17 9 15.17 9.22C15.17 11.26 14.47 13.9 13.07 17.14C11.65 20.46 9.85 23.44 7.67 26.08C5.45 28.76 3.6 30.1 2.12 30.1Z" fill="#D0A53D"/>
<path d="M30.7112 18.52C30.3112 18.52 29.9812 18.27 29.7212 17.77C29.4812 17.29 29.3612 16.66 29.3612 15.88C29.3612 15.16 29.7712 13.52 30.5912 10.96C30.4512 10.96 30.1912 10.99 29.8112 11.05C29.4312 11.09 28.9212 11.16 28.2812 11.26C27.6612 11.36 27.1512 11.45 26.7512 11.53C26.3712 11.59 26.1012 11.64 25.9412 11.68C22.6812 14.52 20.1212 15.94 18.2612 15.94C17.4812 15.94 16.8812 15.68 16.4612 15.16C16.5012 15.12 16.5312 15.11 16.5512 15.13C16.5712 15.13 16.5912 15.13 16.6112 15.13L17.4812 15.28C18.9412 15.28 21.1612 14.12 24.1412 11.8V11.77L22.5212 11.83C22.0412 11.85 21.6212 11.72 21.2612 11.44C20.9212 11.16 20.7512 10.82 20.7512 10.42L20.8112 10.36C20.8112 10.34 20.8212 10.33 20.8412 10.33L20.9312 10.39C21.0512 10.49 21.3112 10.57 21.7112 10.63C22.1112 10.69 22.6812 10.71 23.4212 10.69L24.4712 10.66H25.4612C26.3612 9.94 27.4512 8.94 28.7312 7.66C29.3312 7.04 29.8612 6.47 30.3212 5.95C30.8012 5.43 31.1712 4.98 31.4312 4.6L32.3612 3.25C32.4412 3.25 32.4812 3.36 32.4812 3.58C32.4812 4.54 31.7712 5.77 30.3512 7.27L27.2312 10.57L30.8012 10.21C30.9612 9.89 31.0812 9.63 31.1612 9.43C31.2612 9.23 31.3712 9.01 31.4912 8.77C31.6112 8.53 31.7812 8.2 32.0012 7.78C32.2212 7.34 32.5212 6.75 32.9012 6.01L34.3112 3.31L34.8812 2.2C35.0812 1.82 35.3012 1.47 35.5412 1.15C35.7812 0.829999 36.0012 0.669999 36.2012 0.669999C36.4212 0.669999 36.6812 0.739999 36.9812 0.88C37.3012 0.999999 37.4612 1.13 37.4612 1.27C37.2012 1.65 36.9112 2.1 36.5912 2.62C36.2912 3.14 35.9612 3.7 35.6012 4.3C32.0612 10.2 30.2912 14.35 30.2912 16.75C30.2912 16.85 30.3112 17 30.3512 17.2C30.3912 17.42 30.4512 17.62 30.5312 17.8C30.6312 18.06 30.6912 18.24 30.7112 18.34C30.7512 18.46 30.7512 18.52 30.7112 18.52Z" fill="white"/>
</svg>
