<svg width="20" height="20" viewBox="0 0 20 20" fill="none" xmlns="http://www.w3.org/2000/svg">
<path d="M18.7491 9.99969L19.8531 8.09169C19.9858 7.86213 20.0219 7.58928 19.9535 7.33312C19.885 7.07696 19.7176 6.85847 19.4881 6.72569L17.5781 5.62169V3.42169C17.5781 3.15647 17.4728 2.90212 17.2852 2.71458C17.0977 2.52705 16.8433 2.42169 16.5781 2.42169H14.3791L13.2761 0.512691C13.1429 0.283608 12.9249 0.116197 12.6691 0.0466913C12.5423 0.0123071 12.4099 0.00344105 12.2796 0.0206068C12.1493 0.0377726 12.0237 0.080629 11.9101 0.146691L10.0001 1.25069L8.09013 0.145691C7.86045 0.0130889 7.58751 -0.0228457 7.33133 0.0457922C7.07516 0.11443 6.85674 0.282018 6.72413 0.511691L5.62013 2.42169H3.42113C3.15592 2.42169 2.90156 2.52705 2.71403 2.71458C2.52649 2.90212 2.42113 3.15647 2.42113 3.42169V5.62069L0.511133 6.72469C0.397165 6.79025 0.297273 6.87767 0.217197 6.98195C0.137121 7.08623 0.0784389 7.2053 0.0445217 7.33233C0.0106046 7.45936 0.00212117 7.59184 0.0195588 7.72215C0.0369965 7.85247 0.0800115 7.97805 0.146133 8.09169L1.25013 9.99969L0.146133 11.9077C0.0141214 12.1375 -0.0216953 12.4101 0.0464911 12.6662C0.114678 12.9223 0.281337 13.141 0.510133 13.2747L2.42013 14.3787V16.5777C2.42013 16.8429 2.52549 17.0973 2.71303 17.2848C2.90056 17.4723 3.15492 17.5777 3.42013 17.5777H5.62013L6.72413 19.4877C6.81266 19.639 6.93907 19.7647 7.09091 19.8524C7.24275 19.9401 7.4148 19.9867 7.59013 19.9877C7.76413 19.9877 7.93713 19.9417 8.09113 19.8527L9.99913 18.7487L11.9091 19.8527C12.1388 19.9851 12.4115 20.021 12.6676 19.9526C12.9237 19.8842 13.1422 19.717 13.2751 19.4877L14.3781 17.5777H16.5771C16.8424 17.5777 17.0967 17.4723 17.2842 17.2848C17.4718 17.0973 17.5771 16.8429 17.5771 16.5777V14.3787L19.4871 13.2747C19.6009 13.2089 19.7006 13.1214 19.7805 13.0171C19.8605 12.9128 19.919 12.7938 19.9529 12.6668C19.9868 12.5399 19.9954 12.4075 19.9781 12.2772C19.9608 12.147 19.918 12.0214 19.8521 11.9077L18.7491 9.99969ZM7.49913 4.98969C7.89709 4.98982 8.2787 5.14804 8.56 5.42953C8.8413 5.71102 8.99926 6.09273 8.99913 6.49069C8.999 6.88865 8.84079 7.27025 8.55929 7.55156C8.2778 7.83286 7.89609 7.99082 7.49813 7.99069C7.10018 7.99056 6.71857 7.83234 6.43727 7.55085C6.15596 7.26936 5.998 6.88765 5.99813 6.48969C5.99827 6.09173 6.15648 5.71013 6.43797 5.42882C6.71946 5.14752 7.10117 4.98956 7.49913 4.98969ZM7.79913 14.5897L6.19913 13.3907L12.1991 5.39069L13.7991 6.58969L7.79913 14.5897ZM12.4991 14.9897C12.3021 14.9896 12.107 14.9507 11.925 14.8753C11.7429 14.7998 11.5776 14.6892 11.4383 14.5499C11.299 14.4105 11.1885 14.245 11.1132 14.0629C11.0378 13.8809 10.9991 13.6857 10.9991 13.4887C10.9992 13.2916 11.0381 13.0965 11.1135 12.9145C11.189 12.7325 11.2996 12.5671 11.439 12.4278C11.5784 12.2885 11.7438 12.1781 11.9259 12.1027C12.108 12.0274 12.3031 11.9886 12.5001 11.9887C12.8981 11.9888 13.2797 12.147 13.561 12.4285C13.8423 12.71 14.0003 13.0917 14.0001 13.4897C14 13.8876 13.8418 14.2693 13.5603 14.5506C13.2788 14.8319 12.8971 14.9898 12.4991 14.9897Z" fill="#4C5DF4"/>
</svg>
