<svg width="27" height="32" viewBox="0 0 27 32" fill="none" xmlns="http://www.w3.org/2000/svg">
<path d="M20.6228 1.21301L20.6776 21.5947L19.7765 21.5971C19.281 21.5984 18.8767 22.0363 18.8781 22.5701L18.8833 24.5112C18.8848 25.045 19.2914 25.4806 19.787 25.4793L20.688 25.4769L20.7011 30.3297C20.7025 30.8635 21.1091 31.2991 21.6047 31.2978L23.4068 31.2929C23.9023 31.2916 24.3066 30.8538 24.3052 30.32L24.2922 25.4672L25.1932 25.4648C25.6888 25.4634 26.0931 25.0256 26.0916 24.4918L26.0864 22.5507C26.085 22.0169 25.6783 21.5812 25.1828 21.5826L24.2817 21.585L24.2269 1.20332C24.2255 0.669516 23.8188 0.233857 23.3233 0.235189L21.5212 0.240035C21.0256 0.241367 20.6213 0.679206 20.6228 1.21301ZM11.6124 1.23724L11.6255 6.09001L10.7244 6.09244C10.2288 6.09377 9.82455 6.53161 9.82599 7.06541L9.83121 9.00652C9.83264 9.54033 10.2393 9.97599 10.7349 9.97466L11.6359 9.97223L11.6907 30.3539C11.6921 30.8877 12.0988 31.3234 12.5943 31.322L14.3964 31.3172C14.892 31.3158 15.2963 30.878 15.2948 30.3442L15.24 9.96254L16.1411 9.96012C16.6366 9.95879 17.0409 9.52095 17.0395 8.98714L17.0343 7.04603C17.0328 6.51223 16.6262 6.07657 16.1306 6.0779L15.2296 6.08032L15.2165 1.22755C15.2151 0.693742 14.8085 0.258083 14.3129 0.259416L12.5108 0.264261C12.0153 0.265594 11.611 0.703433 11.6124 1.23724ZM2.60204 1.26147L2.63596 13.8787L1.73492 13.8811C1.23935 13.8824 0.835061 14.3203 0.836497 14.8541L0.841716 16.7952C0.843151 17.329 1.24979 17.7647 1.74536 17.7633L2.6464 17.7609L2.68032 30.3781C2.68176 30.9119 3.0884 31.3476 3.58397 31.3462L5.38604 31.3414C5.88161 31.3401 6.2859 30.9022 6.28447 30.3684L6.25055 17.7512L7.15158 17.7488C7.64715 17.7475 8.05144 17.3096 8.05001 16.7758L8.04479 14.8347C8.04335 14.3009 7.63671 13.8652 7.14114 13.8666L6.24011 13.869L6.20618 1.25177C6.20475 0.717969 5.79811 0.28231 5.30254 0.283642L3.50046 0.288488C3.00489 0.28982 2.6006 0.727659 2.60204 1.26147Z" fill="white"/>
</svg>
