<svg width="22" height="23" viewBox="0 0 22 23" fill="none" xmlns="http://www.w3.org/2000/svg">
<path d="M1.59204 13.5037L2.32361 13.3384L1.59204 13.5037ZM1.59204 7.3645L2.32361 7.52975L1.59204 7.3645ZM18.3551 7.3645L19.0867 7.19926L18.3551 7.3645ZM18.3551 13.5037L19.0867 13.6689L18.3551 13.5037ZM12.9295 19.138L12.752 18.4093L12.9295 19.138ZM7.01767 19.138L6.84017 19.8667L7.01767 19.138ZM7.01767 1.73019L6.84017 1.0015L7.01767 1.73019ZM12.9295 1.73019L13.107 1.0015L12.9295 1.73019ZM20.2098 22.1452C20.4971 22.4436 20.9719 22.4526 21.2702 22.1652C21.5686 21.8779 21.5776 21.4031 21.2902 21.1048L20.2098 22.1452ZM2.32361 13.3384C1.89213 11.4282 1.89213 9.43995 2.32361 7.52975L0.86047 7.19925C0.379843 9.32704 0.379843 11.5411 0.86047 13.6689L2.32361 13.3384ZM17.6235 7.52975C18.055 9.43995 18.055 11.4282 17.6235 13.3384L19.0867 13.6689C19.5673 11.5411 19.5673 9.32704 19.0867 7.19926L17.6235 7.52975ZM12.752 18.4093C10.9244 18.8545 9.02276 18.8545 7.19517 18.4093L6.84017 19.8667C8.90101 20.3687 11.0461 20.3687 13.107 19.8667L12.752 18.4093ZM7.19517 2.45889C9.02276 2.0137 10.9244 2.0137 12.752 2.45889L13.107 1.0015C11.0461 0.499499 8.90101 0.4995 6.84017 1.0015L7.19517 2.45889ZM7.19517 18.4093C4.79161 17.8238 2.89509 15.8684 2.32361 13.3384L0.86047 13.6689C1.55196 16.7302 3.8595 19.1406 6.84017 19.8667L7.19517 18.4093ZM13.107 19.8667C16.0876 19.1406 18.3952 16.7302 19.0867 13.6689L17.6235 13.3384C17.0521 15.8684 15.1555 17.8238 12.752 18.4093L13.107 19.8667ZM12.752 2.45889C15.1555 3.04437 17.052 4.99974 17.6235 7.52975L19.0867 7.19926C18.3952 4.13794 16.0876 1.72756 13.107 1.0015L12.752 2.45889ZM6.84017 1.0015C3.8595 1.72756 1.55196 4.13794 0.86047 7.19925L2.32361 7.52975C2.89509 4.99974 4.7916 3.04437 7.19517 2.45889L6.84017 1.0015ZM16.2395 18.0223L20.2098 22.1452L21.2902 21.1048L17.32 16.9818L16.2395 18.0223Z" fill="#414042"/>
</svg>
