<svg width="30" height="32" viewBox="0 0 30 32" fill="none" xmlns="http://www.w3.org/2000/svg">
<g clip-path="url(#clip0_2786_1087)">
<rect x="1.07861" y="31.3584" width="31.0579" height="28.8333" rx="5" transform="rotate(-90.1541 1.07861 31.3584)" fill="url(#paint0_linear_2786_1087)"/>
<path d="M22.6228 1.21301L22.6776 21.5947L21.7765 21.5971C21.281 21.5984 20.8767 22.0363 20.8781 22.5701L20.8833 24.5112C20.8848 25.045 21.2914 25.4806 21.787 25.4793L22.688 25.4769L22.7011 30.3297C22.7025 30.8635 23.1091 31.2991 23.6047 31.2978L25.4068 31.2929C25.9023 31.2916 26.3066 30.8538 26.3052 30.32L26.2922 25.4672L27.1932 25.4648C27.6888 25.4634 28.0931 25.0256 28.0916 24.4918L28.0864 22.5507C28.085 22.0169 27.6783 21.5812 27.1828 21.5826L26.2817 21.585L26.2269 1.20332C26.2255 0.669516 25.8188 0.233857 25.3233 0.235189L23.5212 0.240035C23.0256 0.241367 22.6213 0.679207 22.6228 1.21301ZM13.6124 1.23724L13.6255 6.09001L12.7244 6.09244C12.2288 6.09377 11.8246 6.53161 11.826 7.06541L11.8312 9.00652C11.8326 9.54033 12.2393 9.97599 12.7349 9.97466L13.6359 9.97223L13.6907 30.3539C13.6921 30.8877 14.0988 31.3234 14.5943 31.322L16.3964 31.3172C16.892 31.3158 17.2963 30.878 17.2948 30.3442L17.24 9.96254L18.1411 9.96012C18.6366 9.95879 19.0409 9.52095 19.0395 8.98714L19.0343 7.04603C19.0328 6.51223 18.6262 6.07657 18.1306 6.0779L17.2296 6.08032L17.2165 1.22755C17.2151 0.693743 16.8085 0.258083 16.3129 0.259416L14.5108 0.264261C14.0153 0.265594 13.611 0.703434 13.6124 1.23724ZM4.60204 1.26147L4.63596 13.8787L3.73492 13.8811C3.23935 13.8824 2.83506 14.3203 2.8365 14.8541L2.84172 16.7952C2.84315 17.329 3.24979 17.7647 3.74536 17.7633L4.6464 17.7609L4.68032 30.3781C4.68176 30.9119 5.0884 31.3476 5.58397 31.3462L7.38604 31.3414C7.88161 31.3401 8.28591 30.9022 8.28447 30.3684L8.25055 17.7512L9.15158 17.7488C9.64715 17.7475 10.0514 17.3096 10.05 16.7758L10.0448 14.8347C10.0434 14.3009 9.63671 13.8652 9.14114 13.8666L8.24011 13.869L8.20618 1.25177C8.20475 0.71797 7.79811 0.28231 7.30254 0.283642L5.50046 0.288488C5.00489 0.28982 4.6006 0.72766 4.60204 1.26147Z" fill="white"/>
</g>
<defs>
<linearGradient id="paint0_linear_2786_1087" x1="18.3635" y1="68.9516" x2="-18.1175" y2="43.2029" gradientUnits="userSpaceOnUse">
<stop stop-color="#7374E8"/>
<stop offset="1" stop-color="#EF9A9A"/>
</linearGradient>
<clipPath id="clip0_2786_1087">
<rect x="1.07861" y="31.3584" width="31.0579" height="28.8333" rx="5" transform="rotate(-90.1541 1.07861 31.3584)" fill="white"/>
</clipPath>
</defs>
</svg>
