<svg width="24" height="24" viewBox="0 0 24 24" fill="none" xmlns="http://www.w3.org/2000/svg">
<path d="M23.25 8.625H14.6625L12 0.75L9.3375 8.625H0.75L7.6875 13.5L5.025 21.375L12 16.5L18.9375 21.375L16.275 13.5L23.25 8.625Z" fill="#FFCE31"/>
<path d="M17.3251 7.61289L18.8251 3.33789L14.8876 6.03789L15.4501 7.61289H17.3251ZM10.4626 18.7504L12.0001 23.2504L13.5376 18.7504L12.0001 17.7004L10.4626 18.7504ZM19.0126 12.8629L17.5876 13.8379L18.1876 15.6379H23.0251L19.0126 12.8629ZM9.1126 6.03789L5.1751 3.33789L6.6751 7.61289H8.5501L9.1126 6.03789ZM4.9876 12.8629L0.975098 15.6379H5.8126L6.4126 13.8379L4.9876 12.8629Z" fill="#FFDF85"/>
</svg>
