<svg xmlns="http://www.w3.org/2000/svg" width="28.497" height="38" viewBox="0 0 28.497 38">
  <path 
    d="M21.375,26.592c1.038-.6,1.3-2.229,2.143-3.072s2.471-1.1,3.072-2.143.012-2.563.325-3.732c.3-1.132,1.518-2.171,1.518-3.4s-1.282-2.265-1.584-3.394c-.312-1.169.268-2.709-.324-3.732s-2.229-1.3-3.071-2.143-1.105-2.471-2.143-3.072-2.563-.012-3.732-.325C16.514,1.282,15.475,0,14.25,0s-2.264,1.282-3.392,1.584c-1.173.312-2.709-.268-3.735.324s-1.3,2.229-2.143,3.071S2.51,6.084,1.91,7.121c-.592,1.02-.012,2.564-.324,3.729C1.282,11.986,0,13.025,0,14.25s1.282,2.265,1.584,3.394c.312,1.169-.268,2.709.324,3.732s2.229,1.3,3.071,2.143,1.105,2.471,2.143,3.073,2.563.012,3.732.324c1.133.3,2.172,1.583,3.4,1.583s2.265-1.282,3.395-1.584C18.815,26.607,20.351,27.186,21.375,26.592ZM8.313,14.25a5.937,5.937,0,1,1,5.937,5.937A5.933,5.933,0,0,1,8.313,14.25ZM.128,32.151a1.781,1.781,0,0,0,2,2.4l3.354-.671,1.59,3.137A1.763,1.763,0,0,0,8.662,38l.075,0a1.76,1.76,0,0,0,1.576-1.1L12.805,30.8A16.58,16.58,0,0,1,2.548,26.055Zm25.819-6.093A16.564,16.564,0,0,1,15.69,30.8L18.182,36.9A1.761,1.761,0,0,0,19.759,38c.028-.068-.009,0,.08,0a1.759,1.759,0,0,0,1.585-.975l1.59-3.138,3.354.671a1.781,1.781,0,0,0,2-2.4Z" 
    fill="#9F9FA0"
/>
</svg>
