<svg width="38" height="38" viewBox="0 0 38 38" fill="none" xmlns="http://www.w3.org/2000/svg">
<g clip-path="url(#clip0_102_338)">
<path d="M32.4124 32.424C39.828 25.0084 39.828 12.9855 32.4124 5.56993C24.9969 -1.84561 12.9739 -1.84561 5.55837 5.56993C-1.85717 12.9855 -1.85717 25.0084 5.55837 32.424C12.9739 39.8395 24.9969 39.8395 32.4124 32.424Z" fill="#8CB7EA"/>
<path d="M28.9293 2.78589C30.8238 5.75011 31.9158 9.24923 31.9158 13.0158C31.9158 23.5132 23.4021 32.0047 12.927 32.0047C9.29415 32.0047 5.88418 30.9794 2.98682 29.1964C6.35221 34.4563 12.2807 37.9554 18.9892 37.9554C29.4865 37.9554 37.978 29.4416 37.978 18.9665C38.0003 12.1243 34.3675 6.129 28.9293 2.78589Z" fill="#70A9E0"/>
<path d="M2.58546 20.9947C2.58546 11.2551 10.4752 3.36534 20.2148 3.36534C25.8981 3.36534 30.9796 6.06212 34.189 10.2521C31.1579 4.97004 25.4523 1.40405 18.8998 1.40405C9.16024 1.40405 1.27051 9.29379 1.27051 19.0334C1.27051 23.0897 2.63004 26.8117 4.92564 29.7759C3.43238 27.2129 2.58546 24.2041 2.58546 20.9947Z" fill="#A0C9F2"/>
<path d="M8.75892 20.7719C8.51376 20.7719 8.29089 20.6604 8.11259 20.4599C7.84514 20.1033 7.912 19.6129 8.24631 19.3232L10.9877 17.1836L8.15716 15.5121C7.77828 15.2892 7.64455 14.7989 7.86743 14.42C8.0903 14.0411 8.58062 13.9074 8.95951 14.1302L12.8152 16.4036C13.0381 16.5373 13.1941 16.7824 13.2164 17.0499C13.2387 17.3173 13.1273 17.5625 12.9044 17.7408L9.24925 20.6159C9.09323 20.7273 8.91493 20.7719 8.75892 20.7719Z" fill="#303030"/>
<path d="M29.241 20.7719C29.0627 20.7719 28.8844 20.7273 28.7507 20.5936L25.0732 17.7408C24.8726 17.5848 24.7389 17.3173 24.7612 17.0499C24.7835 16.7824 24.9172 16.5373 25.1624 16.4036L29.0181 14.1302C29.397 13.9074 29.8873 14.0411 30.1102 14.42C30.3331 14.7989 30.1993 15.2892 29.8204 15.5121L26.9899 17.1836L29.7313 19.3232C30.0879 19.5906 30.1548 20.1033 29.865 20.4599C29.7313 20.6827 29.4861 20.7719 29.241 20.7719Z" fill="#303030"/>
<path d="M4.7694 11.9683C5.01456 11.9237 5.23743 11.8791 5.46031 11.8568C5.95063 11.7677 6.41867 11.7008 6.86441 11.5894C7.53303 11.4334 8.15708 11.2551 8.73655 11.0322C9.3606 10.7871 9.91779 10.4973 10.475 10.163C11.0767 9.78412 11.6339 9.36066 12.1688 8.91491C12.1911 8.89262 12.2357 8.89262 12.2802 8.91491C12.3025 8.9372 12.3248 8.98177 12.3248 9.00406C12.2134 9.71726 11.8345 10.4305 11.255 11.0768C10.7201 11.6563 10.0515 12.102 9.29374 12.414C8.58054 12.6815 7.82277 12.8152 7.065 12.7929C7.04271 12.7929 6.99814 12.7929 6.97585 12.7929C6.12893 12.7483 5.39345 12.5255 4.7694 12.1466C4.74711 12.1243 4.72482 12.0797 4.72482 12.0574C4.70254 12.0129 4.74711 11.9906 4.7694 11.9683Z" fill="#414042"/>
<path d="M33.2082 11.9683C32.9631 11.9237 32.7402 11.8791 32.5173 11.8568C32.027 11.7677 31.559 11.7008 31.1132 11.5894C30.4446 11.4334 29.8206 11.2551 29.2411 11.0322C28.6171 10.7871 28.0599 10.4973 27.5027 10.163C26.9009 9.78412 26.3437 9.36066 25.8088 8.91491C25.7866 8.89262 25.742 8.89262 25.6974 8.91491C25.6751 8.9372 25.6528 8.98177 25.6528 9.00406C25.7643 9.71726 26.1432 10.4305 26.7226 11.0768C27.2575 11.6563 27.9261 12.102 28.6839 12.414C29.3971 12.6815 30.1549 12.8152 30.9126 12.7929C30.9349 12.7929 30.9795 12.7929 31.0018 12.7929C31.8487 12.7483 32.5842 12.5255 33.2082 12.1466C33.2305 12.1243 33.2528 12.0797 33.2528 12.0574C33.2974 12.0129 33.2528 11.9906 33.2082 11.9683Z" fill="#414042"/>
<path d="M25.5413 22.109C25.7865 22.109 26.0094 22.2205 26.1431 22.3988L28.7062 25.5858C28.9736 25.9202 28.929 26.4105 28.5947 26.6779C28.2604 26.9454 27.7701 26.9008 27.5026 26.5665L25.6082 24.204L22.9337 28.2158C22.8 28.4386 22.5548 28.5724 22.2874 28.5724C22.0199 28.5724 21.7748 28.4386 21.6411 28.2158L18.9889 24.2932L16.3589 28.2158C16.2252 28.4386 15.9801 28.5724 15.7126 28.5724C15.4452 28.5724 15.2 28.4386 15.0663 28.2158L12.3918 24.204L10.4974 26.5665C10.2299 26.9008 9.73959 26.9454 9.40528 26.6779C9.07097 26.4105 9.0264 25.9202 9.29384 25.5858L11.8569 22.3988C12.0129 22.1982 12.2581 22.0867 12.5032 22.109C12.7484 22.109 12.9713 22.2427 13.1273 22.4656L15.7572 26.3882L18.3871 22.4656C18.5208 22.2427 18.766 22.109 19.0334 22.109C19.3009 22.109 19.546 22.2427 19.6798 22.4656L22.3097 26.3882L24.9396 22.4656C25.0733 22.265 25.2962 22.1313 25.5636 22.109C25.5191 22.109 25.5413 22.109 25.5413 22.109Z" fill="#5E4939"/>
</g>
<defs>
<clipPath id="clip0_102_338">
<rect width="38" height="38" fill="white"/>
</clipPath>
</defs>
</svg>
