<svg width="38" height="38" viewBox="0 0 38 38" fill="none" xmlns="http://www.w3.org/2000/svg">
<g clip-path="url(#clip0_102_314)">
<path d="M32.4124 32.424C39.8279 25.0084 39.8279 12.9855 32.4124 5.56993C24.9969 -1.84561 12.9739 -1.84561 5.55836 5.56993C-1.85717 12.9855 -1.85717 25.0084 5.55836 32.424C12.9739 39.8395 24.9969 39.8395 32.4124 32.424Z" fill="#FFD05D"/>
<path d="M28.9293 2.78589C30.8238 5.75011 31.9158 9.24923 31.9158 13.0158C31.9158 23.5132 23.4021 32.0047 12.927 32.0047C9.29415 32.0047 5.88418 30.9794 2.98682 29.1964C6.35221 34.4563 12.2807 37.9554 18.9892 37.9554C29.4865 37.9554 37.978 29.4416 37.978 18.9665C38.0003 12.1243 34.3675 6.129 28.9293 2.78589Z" fill="#FDC453"/>
<path d="M2.58546 20.9947C2.58546 11.2551 10.4752 3.36534 20.2148 3.36534C25.8981 3.36534 30.9796 6.06212 34.189 10.2521C31.1579 4.97004 25.4523 1.40405 18.8998 1.40405C9.16024 1.40405 1.27051 9.29379 1.27051 19.0334C1.27051 23.0897 2.63004 26.8117 4.92564 29.7759C3.43238 27.2129 2.58546 24.2041 2.58546 20.9947Z" fill="#FFD77F"/>
<path d="M13.3946 17.6962C13.3946 18.9889 12.7706 20.0587 11.9905 20.0587C11.2105 20.0587 10.5864 19.0112 10.5864 17.6962C10.5864 16.4035 11.2105 15.3337 11.9905 15.3337C12.7706 15.3337 13.3946 16.4035 13.3946 17.6962Z" fill="#303030"/>
<path d="M27.3912 17.6962C27.3912 18.9889 26.7672 20.0587 25.9871 20.0587C25.2071 20.0587 24.583 19.0112 24.583 17.6962C24.583 16.4035 25.2071 15.3337 25.9871 15.3337C26.7672 15.3337 27.3912 16.4035 27.3912 17.6962Z" fill="#303030"/>
<path d="M12.8152 26.2766C13.729 25.3851 14.9548 24.7165 16.4035 24.3599C17.7184 24.0479 19.1448 24.0256 20.5044 24.2931C21.8416 24.5605 23.1343 25.0954 24.2709 25.8532C25.4745 26.6778 26.3882 27.6585 27.0346 28.7505C27.1237 28.9288 27.1014 29.1294 26.9677 29.2854C26.8786 29.3746 26.7671 29.4192 26.6334 29.4192C26.5665 29.4192 26.4997 29.3969 26.4328 29.3746L26.0093 29.174C25.0287 28.6837 24.1149 28.2379 23.1789 27.859C22.1091 27.4356 21.0393 27.1236 19.9918 26.9007C18.8997 26.7001 17.7853 26.5887 16.6932 26.611C15.668 26.6332 14.5982 26.7447 13.1941 27.0121C12.9935 27.0567 12.8152 26.9453 12.7261 26.7892C12.6369 26.6332 12.6815 26.4104 12.8152 26.2766Z" fill="#5E4939"/>
<path d="M37.4427 14.0633C36.6849 11.2551 35.3254 8.71437 33.4755 6.57478L5.83918 5.1261C3.76646 7.08739 2.13948 9.47214 1.11426 12.1689L37.4427 14.0633Z" fill="#F1F2F2"/>
<path d="M7.37695 12.4809L28.2157 6.30725L10.8092 12.6814L7.37695 12.4809Z" fill="#E6E7E8"/>
<path d="M5.19298 5.77238C2.87509 8.17942 1.18125 11.1882 0.378906 14.5536L32.1384 5.14834C29.7091 2.85274 26.7003 1.18118 23.3349 0.401123L5.19298 5.77238Z" fill="white"/>
<path d="M4.2793 6.77532L27.1907 1.76065C25.9649 1.18118 24.65 0.713146 23.2904 0.401123L5.19308 5.77238C4.88106 6.08441 4.56903 6.41872 4.2793 6.77532Z" fill="#F9F9F9"/>
<path d="M7.44394 14.1301C7.64453 14.0632 7.84512 14.0187 8.0457 13.9518C8.46916 13.8404 8.87033 13.7289 9.27151 13.5952C9.85098 13.3946 10.3859 13.1717 10.8762 12.9043C11.3888 12.6368 11.8791 12.3248 12.3249 11.9682C12.8152 11.5893 13.2832 11.1436 13.7067 10.6978C13.729 10.6755 13.7736 10.6755 13.7958 10.6755C13.8181 10.6978 13.8404 10.7201 13.8404 10.7647C13.8181 11.411 13.5507 12.0796 13.1049 12.7037C12.6815 13.2609 12.1243 13.7289 11.5002 14.0632C10.8985 14.3753 10.2299 14.5758 9.56124 14.6204C9.53896 14.6204 9.51667 14.6204 9.47209 14.6204C8.71432 14.665 8.0457 14.5313 7.44394 14.2638C7.42166 14.2415 7.39937 14.2192 7.39937 14.1747C7.37708 14.1747 7.39937 14.1524 7.44394 14.1301Z" fill="#414042"/>
</g>
<defs>
<clipPath id="clip0_102_314">
<rect width="38" height="38" fill="white"/>
</clipPath>
</defs>
</svg>
