<svg width="66" height="66" viewBox="0 0 66 66" fill="none" xmlns="http://www.w3.org/2000/svg">
<rect width="66" height="66" rx="10" fill="url(#paint0_linear_1808_1083)"/>
<g opacity="0.2" filter="url(#filter0_b_1808_1083)">
<rect x="3" y="3" width="60" height="60" rx="8" fill="white"/>
</g>
<g clip-path="url(#clip0_1808_1083)">
<path d="M19.4487 35C18.1123 35 16.9964 35.9079 16.6991 37.1212H14.6538C14.2929 37.1212 14 37.4063 14 37.7576C14 38.1088 14.2929 38.3939 14.6538 38.3939H16.6991C16.9964 39.6073 18.1123 40.5152 19.4487 40.5152C21.011 40.5152 22.2821 39.2781 22.2821 37.7576C22.2821 36.2371 21.011 35 19.4487 35ZM19.4487 39.2424C18.6074 39.2424 17.9231 38.5764 17.9231 37.7576C17.9231 36.9388 18.6074 36.2727 19.4487 36.2727C20.29 36.2727 20.9744 36.9388 20.9744 37.7576C20.9744 38.5764 20.29 39.2424 19.4487 39.2424ZM24.4615 37.7576C24.4615 37.4063 24.7545 37.1212 25.1154 37.1212H30.3462C30.7071 37.1212 31 37.4063 31 37.7576C31 38.1088 30.7071 38.3939 30.3462 38.3939H25.1154C24.7545 38.3939 24.4615 38.1088 24.4615 37.7576ZM30.3462 45.6061H28.3009C28.0036 44.3927 26.8877 43.4848 25.5513 43.4848C23.989 43.4848 22.7179 44.7219 22.7179 46.2424C22.7179 47.7629 23.989 49 25.5513 49C26.8877 49 28.0036 48.0921 28.3009 46.8788H30.3462C30.7071 46.8788 31 46.5937 31 46.2424C31 45.8912 30.7071 45.6061 30.3462 45.6061ZM25.5513 47.7273C24.71 47.7273 24.0256 47.0612 24.0256 46.2424C24.0256 45.4236 24.71 44.7576 25.5513 44.7576C26.3926 44.7576 27.0769 45.4236 27.0769 46.2424C27.0769 47.0612 26.3926 47.7273 25.5513 47.7273ZM20.5385 46.2424C20.5385 46.5937 20.2455 46.8788 19.8846 46.8788H14.6538C14.2929 46.8788 14 46.5937 14 46.2424C14 45.8912 14.2929 45.6061 14.6538 45.6061H19.8846C20.2455 45.6061 20.5385 45.8912 20.5385 46.2424Z" fill="white"/>
<path d="M39.4487 35C38.1123 35 36.9964 35.9079 36.6991 37.1212H34.6538C34.2929 37.1212 34 37.4063 34 37.7576C34 38.1088 34.2929 38.3939 34.6538 38.3939H36.6991C36.9964 39.6073 38.1123 40.5152 39.4487 40.5152C41.011 40.5152 42.2821 39.2781 42.2821 37.7576C42.2821 36.2371 41.011 35 39.4487 35ZM39.4487 39.2424C38.6074 39.2424 37.9231 38.5764 37.9231 37.7576C37.9231 36.9388 38.6074 36.2727 39.4487 36.2727C40.29 36.2727 40.9744 36.9388 40.9744 37.7576C40.9744 38.5764 40.29 39.2424 39.4487 39.2424ZM44.4615 37.7576C44.4615 37.4063 44.7545 37.1212 45.1154 37.1212H50.3462C50.7071 37.1212 51 37.4063 51 37.7576C51 38.1088 50.7071 38.3939 50.3462 38.3939H45.1154C44.7545 38.3939 44.4615 38.1088 44.4615 37.7576ZM50.3462 45.6061H48.3009C48.0036 44.3927 46.8877 43.4848 45.5513 43.4848C43.989 43.4848 42.7179 44.7219 42.7179 46.2424C42.7179 47.7629 43.989 49 45.5513 49C46.8877 49 48.0036 48.0921 48.3009 46.8788H50.3462C50.7071 46.8788 51 46.5937 51 46.2424C51 45.8912 50.7071 45.6061 50.3462 45.6061ZM45.5513 47.7273C44.71 47.7273 44.0256 47.0612 44.0256 46.2424C44.0256 45.4236 44.71 44.7576 45.5513 44.7576C46.3926 44.7576 47.0769 45.4236 47.0769 46.2424C47.0769 47.0612 46.3926 47.7273 45.5513 47.7273ZM40.5385 46.2424C40.5385 46.5937 40.2455 46.8788 39.8846 46.8788H34.6538C34.2929 46.8788 34 46.5937 34 46.2424C34 45.8912 34.2929 45.6061 34.6538 45.6061H39.8846C40.2455 45.6061 40.5385 45.8912 40.5385 46.2424Z" fill="white"/>
<path d="M31.5959 17.4595C30.5048 16.1356 28.9884 15.4067 27.3242 15.4067C26.3232 15.4067 25.3554 15.65 24.4997 16.1137C23.6448 15.65 22.6771 15.4067 21.6752 15.4067C20.0109 15.4067 18.4937 16.1356 17.4035 17.4595C16.217 18.8997 15.7252 20.8667 16.0866 22.7209C16.9397 27.0924 21.3917 30.1461 23.2668 31.2556C23.6474 31.4805 24.0736 31.5934 24.4997 31.5934C24.9258 31.5934 25.3528 31.4814 25.7334 31.2556C27.6077 30.1453 32.0606 27.0924 32.9137 22.7209C33.2742 20.8667 32.7824 18.8997 31.5959 17.4595ZM31.6248 22.4698C30.8741 26.3189 26.7869 29.1066 25.0641 30.126C24.7167 30.3325 24.2827 30.3316 23.9353 30.126C22.2124 29.1066 18.1253 26.3189 17.3746 22.4698C17.0867 20.9963 17.4769 19.4352 18.4158 18.2942C19.2532 17.2784 20.4099 16.7192 21.6752 16.7192C22.5659 16.7192 23.4199 16.9642 24.1462 17.428C24.3614 17.5654 24.6379 17.5654 24.8532 17.428C25.5794 16.9642 26.4334 16.7192 27.3242 16.7192C28.5886 16.7192 29.7462 17.2784 30.5836 18.2942C31.5224 19.4352 31.9118 20.9954 31.6248 22.4698Z" fill="white"/>
<path d="M35.25 18.5416C35.25 18.2484 35.586 18.0104 36 18.0104H49C49.414 18.0104 49.75 18.2484 49.75 18.5416C49.75 18.8349 49.414 19.0729 49 19.0729H36C35.586 19.0729 35.25 18.8349 35.25 18.5416ZM54 22.9687H36C35.586 22.9687 35.25 23.2067 35.25 23.5C35.25 23.7932 35.586 24.0312 36 24.0312H54C54.414 24.0312 54.75 23.7932 54.75 23.5C54.75 23.2067 54.414 22.9687 54 22.9687ZM45 27.927H36C35.586 27.927 35.25 28.165 35.25 28.4583C35.25 28.7515 35.586 28.9895 36 28.9895H45C45.414 28.9895 45.75 28.7515 45.75 28.4583C45.75 28.165 45.414 27.927 45 27.927Z" fill="white"/>
</g>
<defs>
<filter id="filter0_b_1808_1083" x="-1" y="-1" width="68" height="68" filterUnits="userSpaceOnUse" color-interpolation-filters="sRGB">
<feFlood flood-opacity="0" result="BackgroundImageFix"/>
<feGaussianBlur in="BackgroundImage" stdDeviation="2"/>
<feComposite in2="SourceAlpha" operator="in" result="effect1_backgroundBlur_1808_1083"/>
<feBlend mode="normal" in="SourceGraphic" in2="effect1_backgroundBlur_1808_1083" result="shape"/>
</filter>
<linearGradient id="paint0_linear_1808_1083" x1="0.00186522" y1="32.9999" x2="66.0009" y2="32.9999" gradientUnits="userSpaceOnUse">
<stop stop-color="#000080"/>
</linearGradient>
<clipPath id="clip0_1808_1083">
<rect width="42" height="35" fill="white" transform="translate(12 14)"/>
</clipPath>
</defs>
</svg>
