<svg width="24" height="26" viewBox="0 0 24 26" fill="none" xmlns="http://www.w3.org/2000/svg">
<path d="M17 3.98007H16.75V3.72077C16.75 3.29137 16.414 2.94287 16 2.94287C15.586 2.94287 15.25 3.29137 15.25 3.72077V3.98007H8.75V3.72077C8.75 3.29137 8.414 2.94287 8 2.94287C7.586 2.94287 7.25 3.29137 7.25 3.72077V3.98007H7C4.381 3.98007 2.25 6.19033 2.25 8.90675V18.2415C2.25 20.9579 4.381 23.1682 7 23.1682H17C19.619 23.1682 21.75 20.9579 21.75 18.2415V8.90675C21.75 6.19033 19.619 3.98007 17 3.98007ZM7 5.53586H7.25V6.83236C7.25 7.26176 7.586 7.61025 8 7.61025C8.414 7.61025 8.75 7.26176 8.75 6.83236V5.53586H15.25V6.83236C15.25 7.26176 15.586 7.61025 16 7.61025C16.414 7.61025 16.75 7.26176 16.75 6.83236V5.53586H17C18.792 5.53586 20.25 7.04809 20.25 8.90675V9.16605H3.75V8.90675C3.75 7.04809 5.208 5.53586 7 5.53586ZM17 21.6124H7C5.208 21.6124 3.75 20.1002 3.75 18.2415V10.7218H20.25V18.2415C20.25 20.1002 18.792 21.6124 17 21.6124ZM17 14.0927C17 14.6653 16.552 15.1299 16 15.1299C15.448 15.1299 15 14.6653 15 14.0927C15 13.5202 15.448 13.0555 16 13.0555C16.552 13.0555 17 13.5202 17 14.0927ZM13 14.0927C13 14.6653 12.552 15.1299 12 15.1299C11.448 15.1299 11 14.6653 11 14.0927C11 13.5202 11.448 13.0555 12 13.0555C12.552 13.0555 13 13.5202 13 14.0927ZM9 14.0927C9 14.6653 8.552 15.1299 8 15.1299C7.448 15.1299 7 14.6653 7 14.0927C7 13.5202 7.448 13.0555 8 13.0555C8.552 13.0555 9 13.5202 9 14.0927ZM17 18.2415C17 18.814 16.552 19.2787 16 19.2787C15.448 19.2787 15 18.814 15 18.2415C15 17.669 15.448 17.2043 16 17.2043C16.552 17.2043 17 17.669 17 18.2415ZM13 18.2415C13 18.814 12.552 19.2787 12 19.2787C11.448 19.2787 11 18.814 11 18.2415C11 17.669 11.448 17.2043 12 17.2043C12.552 17.2043 13 17.669 13 18.2415ZM9 18.2415C9 18.814 8.552 19.2787 8 19.2787C7.448 19.2787 7 18.814 7 18.2415C7 17.669 7.448 17.2043 8 17.2043C8.552 17.2043 9 17.669 9 18.2415Z" fill="#4C5DF4"/>
<rect x="6" y="12.0183" width="13" height="8.29757" fill="white"/>
</svg>
