<svg xmlns="http://www.w3.org/2000/svg" width="28.5" height="38" viewBox="0 0 28.5 38">
  <path 
    d="M17.81,7.125a3.563,3.563,0,1,0-3.562-3.562A3.563,3.563,0,0,0,17.81,7.125ZM5.936,21.308a1.212,1.212,0,0,0,1.178-.88L10.166,8.684A1.1,1.1,0,0,0,10.2,8.4a1.166,1.166,0,0,0-.92-1.123A6.318,6.318,0,0,0,7.8,7.1a6.039,6.039,0,0,0-5.887,4.418L.036,18.8A1.113,1.113,0,0,0,0,19.089a1.163,1.163,0,0,0,.917,1.121l4.724,1.127C5.739,21.36,5.838,21.308,5.936,21.308ZM27.31,11.875H26.189a1.129,1.129,0,0,0-1.121,1.188V14.25H22.49l-3.47-3.47A4.891,4.891,0,0,0,15.8,9.5a4.358,4.358,0,0,0-4.23,3.3l-2,8a2.525,2.525,0,0,0-.074.579,2.362,2.362,0,0,0,.694,1.672l6.429,6.43v6.141A2.367,2.367,0,0,0,18.929,38,2.424,2.424,0,0,0,21.3,35.625V29.483a4.708,4.708,0,0,0-1.392-3.358l-3.479-3.479a.5.5,0,0,0,.046-.1l1.418-5.9,1.66,1.661a3,3,0,0,0,1.815.7h3.5V36.813A1.172,1.172,0,0,0,25.989,38H27.11A1.241,1.241,0,0,0,28.5,36.813V13.063A1.182,1.182,0,0,0,27.31,11.875ZM6.01,35.054a2.358,2.358,0,0,0,1.725,2.876A2.08,2.08,0,0,0,8.31,38a2.247,2.247,0,0,0,2.234-1.8l1.874-7.5L8.5,24.789Z" 
    transform="translate(0.003)"
    fill="#9F9FA0"
  />
</svg>
