<svg width="31" height="28" viewBox="0 0 31 28" fill="none" xmlns="http://www.w3.org/2000/svg">
<rect x="0.5" y="0.5" width="30" height="27" rx="4.5" fill="#E6F2FC" stroke="#D5D5D6"/>
<path d="M8.43918 6.43918C8.72047 6.15797 9.10193 6 9.49968 6C9.89743 6 10.2789 6.15797 10.5602 6.43918L15.8642 11.7432L21.1682 6.43918C21.4511 6.16594 21.83 6.01475 22.2233 6.01817C22.6166 6.02159 22.9928 6.17934 23.2709 6.45745C23.549 6.73556 23.7068 7.11178 23.7102 7.50508C23.7136 7.89837 23.5624 8.27728 23.2892 8.56018L17.9852 13.8642L23.2892 19.1682C23.5624 19.4511 23.7136 19.83 23.7102 20.2233C23.7068 20.6166 23.549 20.9928 23.2709 21.2709C22.9928 21.549 22.6166 21.7068 22.2233 21.7102C21.83 21.7136 21.4511 21.5624 21.1682 21.2892L15.8642 15.9852L10.5602 21.2892C10.2773 21.5624 9.89837 21.7136 9.50508 21.7102C9.11178 21.7068 8.73556 21.549 8.45745 21.2709C8.17934 20.9928 8.02159 20.6166 8.01817 20.2233C8.01475 19.83 8.16594 19.4511 8.43918 19.1682L13.7432 13.8642L8.43918 8.56018C8.15797 8.27889 8 7.89743 8 7.49968C8 7.10193 8.15797 6.72047 8.43918 6.43918Z" fill="#4C5DF4"/>
</svg>
