<svg width="66" height="66" viewBox="0 0 66 66" fill="none" xmlns="http://www.w3.org/2000/svg">
<rect width="66" height="66" rx="10" fill="url(#paint0_linear_1702_1005)" fill-opacity="0.83"/>
<g opacity="0.2" filter="url(#filter0_b_1702_1005)">
<rect x="3" y="3" width="60" height="60" rx="8" fill="white"/>
</g>
<g clip-path="url(#clip0_1702_1005)">
<path d="M18.6667 47.9999H27.2C28.6728 47.9999 29.8667 46.806 29.8667 45.3332V27.1999C29.8667 25.7271 28.6728 24.5332 27.2 24.5332H18.6667C17.1939 24.5332 16 25.7271 16 27.1999V45.3332C16 46.806 17.1939 47.9999 18.6667 47.9999ZM27.2 46.9332H18.6667C17.783 46.9332 17.0667 46.2169 17.0667 45.3332C17.5268 45.6822 18.0892 45.8697 18.6667 45.8665H27.2C27.7775 45.8697 28.3399 45.6822 28.8 45.3332C28.8 46.2169 28.0837 46.9332 27.2 46.9332ZM25.6 25.5999L24.96 26.4532C24.8593 26.5875 24.7012 26.6665 24.5333 26.6665H21.3333C21.1655 26.6665 21.0074 26.5875 20.9067 26.4532L20.2667 25.5999H25.6ZM17.0667 27.1999C17.0667 26.3162 17.783 25.5999 18.6667 25.5999H18.9333L20.0533 27.0932C20.3555 27.4961 20.8297 27.7332 21.3333 27.7332H24.5333C25.0369 27.7332 25.5112 27.4961 25.8133 27.0932L26.9333 25.5999H27.2C28.0837 25.5999 28.8 26.3162 28.8 27.1999V43.1999C28.8 44.0835 28.0837 44.7999 27.2 44.7999H18.6667C17.783 44.7999 17.0667 44.0835 17.0667 43.1999V27.1999Z" fill="white"/>
<path d="M45.3333 24.5332H36.8C35.3272 24.5332 34.1333 25.7271 34.1333 27.1999V45.3332C34.1333 46.806 35.3272 47.9999 36.8 47.9999H45.3333C46.8061 47.9999 48 46.806 48 45.3332V27.1999C48 25.7271 46.8061 24.5332 45.3333 24.5332ZM43.7333 25.5999L43.0933 26.4532C42.9926 26.5875 42.8345 26.6665 42.6666 26.6665H39.4666C39.2988 26.6665 39.1407 26.5875 39.04 26.4532L38.4 25.5999H43.7333ZM35.2 27.1999C35.2 26.3162 35.9163 25.5999 36.8 25.5999H37.0666L38.1866 27.0932C38.4888 27.4961 38.963 27.7332 39.4666 27.7332H42.6666C43.1702 27.7332 43.6445 27.4961 43.9466 27.0932L45.0666 25.5999H45.3333C46.2169 25.5999 46.9333 26.3162 46.9333 27.1999V43.1999C46.9333 44.0835 46.2169 44.7999 45.3333 44.7999H36.8C35.9163 44.7999 35.2 44.0835 35.2 43.1999V27.1999ZM45.3333 46.9332H36.8C35.9163 46.9332 35.2 46.2169 35.2 45.3332C35.6601 45.6822 36.2225 45.8697 36.8 45.8665H45.3333C45.9108 45.8697 46.4732 45.6822 46.9333 45.3332C46.9333 46.2169 46.2169 46.9332 45.3333 46.9332Z" fill="white"/>
<path d="M22.9333 38.3998C25.5843 38.3998 27.7333 36.2508 27.7333 33.5998C27.7333 30.9488 25.5843 28.7998 22.9333 28.7998C20.2823 28.7998 18.1333 30.9488 18.1333 33.5998C18.1333 36.2508 20.2823 38.3998 22.9333 38.3998ZM20.448 36.3785C20.7106 35.7189 21.2193 35.1873 21.8666 34.8958C22.5223 35.293 23.3443 35.293 24 34.8958C24.6433 35.1895 25.1479 35.7209 25.408 36.3785C23.9919 37.6418 21.8534 37.6418 20.4373 36.3785H20.448ZM22.9333 34.1331C22.3442 34.1331 21.8666 33.6556 21.8666 33.0665C21.8666 32.4774 22.3442 31.9998 22.9333 31.9998C23.5224 31.9998 24 32.4774 24 33.0665C24 33.6556 23.5224 34.1331 22.9333 34.1331ZM22.9333 29.8665C24.9952 29.8665 26.6666 31.5379 26.6666 33.5998C26.6667 34.256 26.4918 34.9004 26.16 35.4665C25.831 34.8988 25.3582 34.4279 24.7893 34.1011C25.2858 33.2038 25.0735 32.0802 24.284 31.4258C23.4944 30.7714 22.3509 30.7714 21.5613 31.4258C20.7717 32.0802 20.5595 33.2038 21.056 34.1011C20.5047 34.4345 20.049 34.9049 19.7333 35.4665C19.3921 34.903 19.208 34.2585 19.2 33.5998C19.2 31.5379 20.8714 29.8665 22.9333 29.8665Z" fill="white"/>
<path d="M41.0666 23.4666C41.3611 23.4666 41.5999 23.2278 41.5999 22.9333V20.7999C41.5999 20.2108 41.1223 19.7333 40.5332 19.7333H36.6772C36.1751 17.5548 34.2355 16.0115 31.9999 16.0115C29.7643 16.0115 27.8247 17.5548 27.3226 19.7333H23.4666C22.8775 19.7333 22.3999 20.2108 22.3999 20.7999V22.9333C22.3999 23.2278 22.6387 23.4666 22.9332 23.4666C23.2278 23.4666 23.4666 23.2278 23.4666 22.9333V20.7999H27.1999C27.1999 23.4509 29.3489 25.5999 31.9999 25.5999C34.6509 25.5999 36.7999 23.4509 36.7999 20.7999H40.5332V22.9333C40.5332 23.2278 40.772 23.4666 41.0666 23.4666ZM29.5146 23.5786C29.7772 22.919 30.2859 22.3874 30.9332 22.0959C31.5889 22.4931 32.4109 22.4931 33.0666 22.0959C33.7099 22.3896 34.2145 22.921 34.4746 23.5786C33.0585 24.8419 30.92 24.8419 29.5039 23.5786H29.5146ZM31.9999 21.3333C31.4108 21.3333 30.9332 20.8557 30.9332 20.2666C30.9332 19.6775 31.4108 19.1999 31.9999 19.1999C32.589 19.1999 33.0666 19.6775 33.0666 20.2666C33.0666 20.5495 32.9542 20.8208 32.7541 21.0208C32.5541 21.2209 32.2828 21.3333 31.9999 21.3333ZM35.1999 22.6666C34.8709 22.0989 34.3982 21.628 33.8292 21.3013C34.3257 20.4039 34.1135 19.2803 33.3239 18.6259C32.5343 17.9715 31.3908 17.9715 30.6012 18.6259C29.8117 19.2803 29.5994 20.4039 30.0959 21.3013C29.5544 21.6382 29.1082 22.1082 28.7999 22.6666C28.4587 22.1031 28.2746 21.4586 28.2666 20.7999C28.2666 18.7381 29.938 17.0666 31.9999 17.0666C34.0618 17.0666 35.7332 18.7381 35.7332 20.7999C35.7333 21.4561 35.5584 22.1005 35.2266 22.6666H35.1999Z" fill="white"/>
<path d="M25.6002 39.9998H20.2669C19.6778 39.9998 19.2002 40.4773 19.2002 41.0664V42.1331C19.2002 42.7222 19.6778 43.1998 20.2669 43.1998H25.6002C26.1893 43.1998 26.6669 42.7222 26.6669 42.1331V41.0664C26.6669 40.4773 26.1893 39.9998 25.6002 39.9998ZM20.2669 42.1331V41.0664H25.6002V42.1331H20.2669Z" fill="white"/>
<path d="M41.0666 38.3998C43.7176 38.3998 45.8666 36.2508 45.8666 33.5998C45.8666 30.9488 43.7176 28.7998 41.0666 28.7998C38.4156 28.7998 36.2666 30.9488 36.2666 33.5998C36.2666 36.2508 38.4156 38.3998 41.0666 38.3998ZM38.5813 36.3785C38.8439 35.7189 39.3526 35.1873 39.9999 34.8958C40.6556 35.293 41.4776 35.293 42.1333 34.8958C42.7766 35.1895 43.2812 35.7209 43.5413 36.3785C42.1252 37.6418 39.9867 37.6418 38.5706 36.3785H38.5813ZM41.0666 34.1331C40.4775 34.1331 39.9999 33.6556 39.9999 33.0665C39.9999 32.4774 40.4775 31.9998 41.0666 31.9998C41.6557 31.9998 42.1333 32.4774 42.1333 33.0665C42.1333 33.6556 41.6557 34.1331 41.0666 34.1331ZM41.0666 29.8665C43.1285 29.8665 44.7999 31.5379 44.7999 33.5998C44.7919 34.2585 44.6078 34.903 44.2666 35.4665C43.9376 34.8988 43.4649 34.4279 42.8959 34.1011C43.3924 33.2038 43.1802 32.0802 42.3906 31.4258C41.601 30.7714 40.4575 30.7714 39.6679 31.4258C38.8784 32.0802 38.6661 33.2038 39.1626 34.1011C38.6211 34.4381 38.1749 34.9081 37.8666 35.4665C37.5254 34.903 37.3413 34.2585 37.3333 33.5998C37.3333 31.5379 39.0047 29.8665 41.0666 29.8665Z" fill="white"/>
<path d="M43.7335 39.9998H38.4002C37.8111 39.9998 37.3335 40.4773 37.3335 41.0664V42.1331C37.3335 42.7222 37.8111 43.1998 38.4002 43.1998H43.7335C44.3226 43.1998 44.8002 42.7222 44.8002 42.1331V41.0664C44.8002 40.4773 44.3226 39.9998 43.7335 39.9998ZM38.4002 42.1331V41.0664H43.7335V42.1331H38.4002Z" fill="white"/>
</g>
<defs>
<filter id="filter0_b_1702_1005" x="-1" y="-1" width="68" height="68" filterUnits="userSpaceOnUse" color-interpolation-filters="sRGB">
<feFlood flood-opacity="0" result="BackgroundImageFix"/>
<feGaussianBlur in="BackgroundImage" stdDeviation="2"/>
<feComposite in2="SourceAlpha" operator="in" result="effect1_backgroundBlur_1702_1005"/>
<feBlend mode="normal" in="SourceGraphic" in2="effect1_backgroundBlur_1702_1005" result="shape"/>
</filter>
<linearGradient id="paint0_linear_1702_1005" x1="33" y1="0" x2="33" y2="66" gradientUnits="userSpaceOnUse">
<stop stop-color="#0247FE"/>
</linearGradient>
<clipPath id="clip0_1702_1005">
<rect width="32" height="32" fill="white" transform="translate(16 16)"/>
</clipPath>
</defs>
</svg>
