<svg width="66" height="66" viewBox="0 0 66 66" fill="none" xmlns="http://www.w3.org/2000/svg">
<rect width="66" height="66" rx="10" fill="url(#paint0_linear_1702_828)"/>
<g opacity="0.2" filter="url(#filter0_b_1702_828)">
<rect x="3" y="3" width="60" height="60" rx="8" fill="white"/>
</g>
<g filter="url(#filter1_d_1702_828)">
<path d="M32.9998 15.8254C32.0958 15.8254 31.3604 16.5609 31.3604 17.4649C31.3604 18.3689 32.0958 19.1044 32.9998 19.1044C33.9039 19.1044 34.6393 18.3689 34.6393 17.4649C34.6393 16.5609 33.9039 15.8254 32.9998 15.8254ZM32.9998 18.0496C32.6774 18.0496 32.415 17.7873 32.415 17.4648C32.415 17.1424 32.6774 16.8801 32.9998 16.8801C33.3223 16.8801 33.5846 17.1424 33.5846 17.4648C33.5846 17.7873 33.3223 18.0496 32.9998 18.0496Z" fill="white"/>
<path d="M28.1387 19.7605C27.8474 19.7605 27.6113 19.9966 27.6113 20.2878V21.1677C27.6113 21.459 27.8474 21.6951 28.1387 21.6951C28.4299 21.6951 28.666 21.459 28.666 21.1677V20.2878C28.666 19.9966 28.4299 19.7605 28.1387 19.7605Z" fill="white"/>
<path d="M37.8613 19.7605C37.5701 19.7605 37.334 19.9966 37.334 20.2878V21.1677C37.334 21.459 37.5701 21.6951 37.8613 21.6951C38.1526 21.6951 38.3887 21.459 38.3887 21.1677V20.2878C38.3887 19.9966 38.1526 19.7605 37.8613 19.7605Z" fill="white"/>
<path d="M34.5472 20.7094C34.3279 20.5177 33.9948 20.5401 33.803 20.7594C33.6083 20.9821 33.3157 21.1099 33.0002 21.1099C32.6847 21.1099 32.3921 20.9822 32.1974 20.7594C32.0057 20.5401 31.6726 20.5177 31.4533 20.7094C31.2339 20.9012 31.2116 21.2343 31.4033 21.4536C31.7983 21.9055 32.3804 22.1647 33.0002 22.1647C33.62 22.1647 34.2021 21.9055 34.5971 21.4536C34.7888 21.2343 34.7665 20.9011 34.5472 20.7094Z" fill="white"/>
<path d="M38.8126 35.1975H27.187C26.8958 35.1975 26.6597 35.4336 26.6597 35.7249C26.6597 36.0162 26.8958 36.2522 27.187 36.2522H38.8126C39.1039 36.2522 39.34 36.0162 39.34 35.7249C39.34 35.4336 39.1039 35.1975 38.8126 35.1975Z" fill="white"/>
<path d="M38.8126 38.3806H27.187C26.8958 38.3806 26.6597 38.6167 26.6597 38.908C26.6597 39.1993 26.8958 39.4353 27.187 39.4353H38.8126C39.1039 39.4353 39.34 39.1993 39.34 38.908C39.34 38.6167 39.1039 38.3806 38.8126 38.3806Z" fill="white"/>
<path d="M38.8126 41.564H27.187C26.8958 41.564 26.6597 41.8001 26.6597 42.0913C26.6597 42.3825 26.8958 42.6187 27.187 42.6187H38.8126C39.1039 42.6187 39.34 42.3825 39.34 42.0913C39.34 41.8001 39.1039 41.564 38.8126 41.564Z" fill="white"/>
<path d="M35.9826 28.1875H34.6393V26.8442C34.6393 26.5529 34.4032 26.3169 34.112 26.3169H31.8877C31.5965 26.3169 31.3603 26.5529 31.3603 26.8442V28.1875H30.0171C29.7259 28.1875 29.4897 28.4236 29.4897 28.7148V30.9392C29.4897 31.2304 29.7259 31.4665 30.0171 31.4665H31.3603V32.8098C31.3603 33.101 31.5965 33.3371 31.8877 33.3371H34.112C34.4032 33.3371 34.6393 33.101 34.6393 32.8098V31.4665H35.9826C36.2738 31.4665 36.5099 31.2304 36.5099 30.9392V28.7148C36.5099 28.4236 36.2738 28.1875 35.9826 28.1875ZM35.4552 30.4118H34.112C33.8207 30.4118 33.5846 30.6479 33.5846 30.9392V32.2824H32.415V30.9392C32.415 30.6479 32.1789 30.4118 31.8877 30.4118H30.5444V29.2422H31.8877C32.1789 29.2422 32.415 29.0061 32.415 28.7148V27.3716H33.5846V28.7148C33.5846 29.0061 33.8207 29.2422 34.112 29.2422H35.4552V30.4118Z" fill="white"/>
<path d="M43.7384 19.5352H41.4854V18.7064C41.4854 17.8317 40.7738 17.1201 39.8991 17.1201H36.6095C36.3532 15.3579 34.8322 14 33 14C31.1679 14 29.647 15.3579 29.3906 17.1201H26.101C25.2263 17.1201 24.5146 17.8317 24.5146 18.7064V19.5352H22.2617C20.572 19.5352 19.1973 20.9099 19.1973 22.5996V46.9356C19.1973 48.6253 20.5719 50 22.2617 50H24.7936C25.0849 50 25.321 49.7639 25.321 49.4727C25.321 49.1814 25.0849 48.9453 24.7936 48.9453H22.2617C21.1536 48.9453 20.252 48.0438 20.252 46.9356V22.5996C20.252 21.4914 21.1535 20.5899 22.2617 20.5899H24.5146V21.9572H22.2617C21.9075 21.9572 21.6193 22.2453 21.6193 22.5996V46.9356C21.6193 47.2899 21.9075 47.578 22.2617 47.578H43.7384C44.0926 47.578 44.3807 47.2899 44.3807 46.9356V22.5996C44.3807 22.2453 44.0925 21.9572 43.7384 21.9572H41.4854V20.5899H43.7384C44.8465 20.5899 45.7481 21.4914 45.7481 22.5996V46.9356C45.7481 48.0438 44.8466 48.9453 43.7384 48.9453H26.903C26.6118 48.9453 26.3757 49.1814 26.3757 49.4727C26.3757 49.7639 26.6118 50 26.903 50H43.7384C45.428 50 46.8028 48.6253 46.8028 46.9356V22.5996C46.8028 20.9099 45.4281 19.5352 43.7384 19.5352ZM43.3261 23.012V46.5233H22.674V23.0119H24.5146V23.1247C24.5146 23.9994 25.2263 24.711 26.101 24.711H36.3249C36.6161 24.711 36.8522 24.4749 36.8522 24.1836C36.8522 23.8924 36.6161 23.6563 36.3249 23.6563H26.101C25.8078 23.6563 25.5693 23.4178 25.5693 23.1247V18.7064C25.5693 18.4133 25.8078 18.1748 26.101 18.1748H29.88C30.1712 18.1748 30.4073 17.9387 30.4073 17.6475C30.4073 16.2178 31.5704 15.0547 33 15.0547C34.4297 15.0547 35.5928 16.2178 35.5928 17.6475C35.5928 17.9387 35.8289 18.1748 36.1201 18.1748H39.8991C40.1922 18.1748 40.4307 18.4133 40.4307 18.7064V23.1247C40.4307 23.4179 40.1922 23.6564 39.8991 23.6564H38.4343C38.143 23.6564 37.9069 23.8925 37.9069 24.1837C37.9069 24.4749 38.143 24.7111 38.4343 24.7111H39.8991C40.7738 24.7111 41.4854 23.9994 41.4854 23.1247V23.012H43.3261Z" fill="white"/>
</g>
<defs>
<filter id="filter0_b_1702_828" x="-1" y="-1" width="68" height="68" filterUnits="userSpaceOnUse" color-interpolation-filters="sRGB">
<feFlood flood-opacity="0" result="BackgroundImageFix"/>
<feGaussianBlur in="BackgroundImage" stdDeviation="2"/>
<feComposite in2="SourceAlpha" operator="in" result="effect1_backgroundBlur_1702_828"/>
<feBlend mode="normal" in="SourceGraphic" in2="effect1_backgroundBlur_1702_828" result="shape"/>
</filter>
<filter id="filter1_d_1702_828" x="11" y="10" width="44" height="44" filterUnits="userSpaceOnUse" color-interpolation-filters="sRGB">
<feFlood flood-opacity="0" result="BackgroundImageFix"/>
<feColorMatrix in="SourceAlpha" type="matrix" values="0 0 0 0 0 0 0 0 0 0 0 0 0 0 0 0 0 0 127 0" result="hardAlpha"/>
<feOffset/>
<feGaussianBlur stdDeviation="2"/>
<feComposite in2="hardAlpha" operator="out"/>
<feColorMatrix type="matrix" values="0 0 0 0 0 0 0 0 0 0 0 0 0 0 0 0 0 0 0.25 0"/>
<feBlend mode="normal" in2="BackgroundImageFix" result="effect1_dropShadow_1702_828"/>
<feBlend mode="normal" in="SourceGraphic" in2="effect1_dropShadow_1702_828" result="shape"/>
</filter>
<linearGradient id="paint0_linear_1702_828" x1="36.7315" y1="86.0516" x2="-2.97872" y2="-43.7296" gradientUnits="userSpaceOnUse">
<stop offset="1" stop-color="#1D99F5"/>
</linearGradient>
</defs>
</svg>
