<svg width="28" height="28" viewBox="0 0 28 28" fill="none" xmlns="http://www.w3.org/2000/svg">
<path d="M26.2747 3.63342C26.0712 3.63342 25.8796 3.64539 25.6761 3.64539C25.2331 3.65737 24.7781 3.65737 24.3352 3.66934C24.3352 3.28617 24.3352 2.90301 24.3471 2.51984C24.3471 2.25642 24.3471 2.00496 24.3471 1.74154C24.3471 0.975205 23.2696 0.831518 22.7668 1.17876C22.4076 1.43021 22.1083 1.81338 21.797 2.1247C21.2582 2.6755 20.7195 3.21433 20.1687 3.76513C20.0131 3.92079 19.8694 4.07645 19.7138 4.22014C19.5462 4.11238 19.3666 4.00461 19.187 3.90882C15.26 1.72956 10.3034 1.93312 6.55596 4.38778C2.8325 6.83046 0.689417 11.2249 1.03662 15.6672C1.38382 20.0736 4.14948 24.0609 8.1483 25.893C12.2309 27.7609 17.1397 27.246 20.7075 24.492C23.7485 22.1571 25.5444 18.505 25.5564 14.6614C25.5444 12.3983 24.8979 10.2071 23.7605 8.31523C24.419 7.65666 25.0775 6.99809 25.724 6.32755C26.0353 6.00426 26.3585 5.69293 26.6698 5.36964C26.8853 5.15411 26.9691 4.90265 26.9931 4.60331C27.0529 4.20817 26.7177 3.62144 26.2747 3.63342ZM23.4013 2.1247C23.4372 2.1247 23.4253 2.1247 23.4013 2.1247V2.1247ZM23.4013 2.1247H23.3893C23.3893 2.1247 23.3893 2.1247 23.3774 2.1247C23.3893 2.1247 23.4013 2.1247 23.4013 2.1247ZM15.4276 14.6854C15.4156 15.6433 14.805 16.4695 13.9071 16.7568C12.9972 17.0442 11.9915 16.6491 11.4767 15.8708C10.9499 15.0685 11.0457 13.9789 11.6443 13.2844C12.2788 12.554 13.3444 12.3385 14.1705 12.7336C14.2423 12.7695 14.3261 12.8054 14.386 12.8533C13.8831 13.3682 13.3683 13.8711 12.8655 14.386C12.3387 14.9129 13.1528 15.7271 13.6796 15.2002C14.1825 14.6973 14.6733 14.1944 15.1762 13.6915C15.3318 13.9909 15.4276 14.3381 15.4276 14.6854ZM15.2121 12.0271C15.1043 11.9433 14.9846 11.8715 14.8529 11.7996C13.7993 11.2129 12.4584 11.2728 11.4527 11.9433C10.459 12.6019 9.87235 13.7873 9.9801 14.9847C10.0879 16.1701 10.8182 17.2478 11.9077 17.7267C12.9373 18.1817 14.1346 18.0979 15.0804 17.4753C16.0143 16.8646 16.553 15.8109 16.565 14.6973C16.553 14.0388 16.3495 13.4041 16.0023 12.8653C16.8044 12.0631 17.5946 11.2608 18.3968 10.4586C19.3785 11.644 19.9053 13.1527 19.9173 14.6973C19.9173 15.7271 19.6779 16.7688 19.2229 17.6788C18.9954 18.1219 18.6961 18.6008 18.4207 18.9361C18.2651 19.1277 18.0855 19.3193 17.9059 19.4869C17.7383 19.6426 17.4869 19.882 17.3552 19.9778C15.6671 21.295 13.5 21.7021 11.4647 21.1513C9.53712 20.6244 7.87293 19.1516 7.11867 17.3316C6.91513 16.8287 6.77146 16.3138 6.67568 15.775C6.63976 15.5834 6.61582 15.32 6.60385 15.0685C6.59187 14.7811 6.59187 14.4818 6.61582 14.1944C6.67568 13.2006 7.01091 12.1828 7.52573 11.3087C8.5434 9.57249 10.3991 8.35115 12.3626 8.09969C13.4761 7.95601 14.4818 8.07575 15.5234 8.44694C15.9664 8.6026 16.4213 8.84208 16.8643 9.11748C17.1277 9.28511 17.3552 9.45275 17.5827 9.65631C16.8044 10.4226 16.0143 11.2249 15.2121 12.0271ZM19.9891 5.56122C20.0011 5.54925 20.0011 5.54925 20.0131 5.53727C19.9772 5.59714 19.9532 5.59714 19.9891 5.56122ZM22.6949 20.6484C21.6174 22.3846 20.061 23.7736 18.2172 24.7075C14.4698 26.5994 9.71671 26.0965 6.43623 23.5101C5.63407 22.8755 4.8798 22.0852 4.31709 21.3189C3.70649 20.4807 3.19168 19.5348 2.85645 18.6128C2.10218 16.5772 1.95851 14.374 2.41346 12.3025C3.28746 8.19549 6.49609 4.91463 10.5308 3.86092C12.6021 3.3221 14.7931 3.41789 16.8284 4.1004C17.5707 4.35185 18.2771 4.67515 18.9715 5.09424C18.9236 5.2499 18.9236 5.42951 18.9116 5.58517C18.8398 6.47124 18.8996 7.38126 18.9475 8.2793C18.7679 8.45891 18.5884 8.63852 18.4207 8.81813C18.4088 8.80616 18.4088 8.80616 18.3968 8.79418C16.6488 7.27349 14.3381 6.65085 12.0513 6.97414C9.86038 7.29744 7.89688 8.6505 6.69963 10.4945C5.46646 12.3983 5.16714 14.853 5.82563 17.0203C6.47215 19.1277 8.04055 20.9118 10.028 21.8218C12.1471 22.7917 14.5656 22.7438 16.6727 21.75C19.3546 20.4807 21.0667 17.6429 21.0786 14.6854C21.0667 12.8294 20.3962 11.0333 19.2229 9.63236C19.4145 9.44077 19.606 9.24919 19.7976 9.05761C20.2525 9.08156 20.7075 9.1055 21.1624 9.11748C21.5456 9.12945 21.9167 9.12945 22.2998 9.11748C22.4914 9.1055 22.6949 9.1055 22.8865 9.04564C23.8682 10.734 24.407 12.7097 24.419 14.6854C24.407 16.7928 23.8203 18.8403 22.6949 20.6484ZM22.5872 7.93206C22.647 7.90811 22.647 7.90811 22.6351 7.92009C22.6351 7.92009 22.6231 7.92009 22.6231 7.93206C22.6111 7.92009 22.5991 7.92009 22.5872 7.93206C22.5872 7.92009 22.5872 7.92009 22.5872 7.93206ZM25.4606 4.9745L24.2753 6.17189C23.6886 6.75861 23.114 7.34534 22.5273 7.93206C22.4076 7.94403 22.2879 7.94403 22.1681 7.95601C21.797 7.96798 21.4258 7.95601 21.0547 7.94403C20.7314 7.93206 20.4082 7.92009 20.0729 7.90811C20.061 7.54889 20.049 7.1777 20.037 6.81848C20.0251 6.44729 20.0251 6.06413 20.049 5.69293C20.049 5.62109 20.061 5.56122 20.061 5.48938C20.923 4.62725 21.773 3.76513 22.6351 2.89103C22.8147 2.69945 23.0062 2.51984 23.1858 2.32826C23.1858 2.96288 23.1738 3.5975 23.1738 4.24409C23.1738 4.55541 23.4372 4.81884 23.7485 4.81884C24.3831 4.80686 25.0056 4.79489 25.6402 4.78292C25.5803 4.85476 25.5204 4.91463 25.4606 4.9745Z" fill="#009444"/>
<path d="M26.2747 3.63342C26.0712 3.63342 25.8796 3.64539 25.6761 3.64539C25.2331 3.65737 24.7781 3.65737 24.3352 3.66934C24.3352 3.28617 24.3352 2.90301 24.3471 2.51984C24.3471 2.25642 24.3471 2.00496 24.3471 1.74154C24.3471 0.975205 23.2696 0.831518 22.7668 1.17876C22.4076 1.43021 22.1083 1.81338 21.797 2.1247C21.2582 2.6755 20.7195 3.21433 20.1687 3.76513C20.0131 3.92079 19.8694 4.07645 19.7138 4.22014C19.5462 4.11238 19.3666 4.00461 19.187 3.90882C15.26 1.72956 10.3034 1.93312 6.55596 4.38778C2.8325 6.83046 0.689417 11.2249 1.03662 15.6672C1.38382 20.0736 4.14948 24.0609 8.1483 25.893C12.2309 27.7609 17.1397 27.246 20.7075 24.492C23.7485 22.1571 25.5444 18.505 25.5564 14.6614C25.5444 12.3983 24.8979 10.2071 23.7605 8.31523C24.419 7.65666 25.0775 6.99809 25.724 6.32755C26.0353 6.00426 26.3585 5.69293 26.6698 5.36964C26.8853 5.15411 26.9691 4.90265 26.9931 4.60331C27.0529 4.20817 26.7177 3.62144 26.2747 3.63342ZM23.4013 2.1247C23.4372 2.1247 23.4253 2.1247 23.4013 2.1247V2.1247ZM23.4013 2.1247H23.3893C23.3893 2.1247 23.3893 2.1247 23.3774 2.1247C23.3893 2.1247 23.4013 2.1247 23.4013 2.1247ZM15.4276 14.6854C15.4156 15.6433 14.805 16.4695 13.9071 16.7568C12.9972 17.0442 11.9915 16.6491 11.4767 15.8708C10.9499 15.0685 11.0457 13.9789 11.6443 13.2844C12.2788 12.554 13.3444 12.3385 14.1705 12.7336C14.2423 12.7695 14.3261 12.8054 14.386 12.8533C13.8831 13.3682 13.3683 13.8711 12.8655 14.386C12.3387 14.9129 13.1528 15.7271 13.6796 15.2002C14.1825 14.6973 14.6733 14.1944 15.1762 13.6915C15.3318 13.9909 15.4276 14.3381 15.4276 14.6854ZM15.2121 12.0271C15.1043 11.9433 14.9846 11.8715 14.8529 11.7996C13.7993 11.2129 12.4584 11.2728 11.4527 11.9433C10.459 12.6019 9.87235 13.7873 9.9801 14.9847C10.0879 16.1701 10.8182 17.2478 11.9077 17.7267C12.9373 18.1817 14.1346 18.0979 15.0804 17.4753C16.0143 16.8646 16.553 15.8109 16.565 14.6973C16.553 14.0388 16.3495 13.4041 16.0023 12.8653C16.8044 12.0631 17.5946 11.2608 18.3968 10.4586C19.3785 11.644 19.9053 13.1527 19.9173 14.6973C19.9173 15.7271 19.6779 16.7688 19.2229 17.6788C18.9954 18.1219 18.6961 18.6008 18.4207 18.9361C18.2651 19.1277 18.0855 19.3193 17.9059 19.4869C17.7383 19.6426 17.4869 19.882 17.3552 19.9778C15.6671 21.295 13.5 21.7021 11.4647 21.1513C9.53712 20.6244 7.87293 19.1516 7.11867 17.3316C6.91513 16.8287 6.77146 16.3138 6.67568 15.775C6.63976 15.5834 6.61582 15.32 6.60385 15.0685C6.59187 14.7811 6.59187 14.4818 6.61582 14.1944C6.67568 13.2006 7.01091 12.1828 7.52573 11.3087C8.5434 9.57249 10.3991 8.35115 12.3626 8.09969C13.4761 7.95601 14.4818 8.07575 15.5234 8.44694C15.9664 8.6026 16.4213 8.84208 16.8643 9.11748C17.1277 9.28511 17.3552 9.45275 17.5827 9.65631C16.8044 10.4226 16.0143 11.2249 15.2121 12.0271ZM19.9891 5.56122C20.0011 5.54925 20.0011 5.54925 20.0131 5.53727C19.9772 5.59714 19.9532 5.59714 19.9891 5.56122ZM22.6949 20.6484C21.6174 22.3846 20.061 23.7736 18.2172 24.7075C14.4698 26.5994 9.71671 26.0965 6.43623 23.5101C5.63407 22.8755 4.8798 22.0852 4.31709 21.3189C3.70649 20.4807 3.19168 19.5348 2.85645 18.6128C2.10218 16.5772 1.95851 14.374 2.41346 12.3025C3.28746 8.19549 6.49609 4.91463 10.5308 3.86092C12.6021 3.3221 14.7931 3.41789 16.8284 4.1004C17.5707 4.35185 18.2771 4.67515 18.9715 5.09424C18.9236 5.2499 18.9236 5.42951 18.9116 5.58517C18.8398 6.47124 18.8996 7.38126 18.9475 8.2793C18.7679 8.45891 18.5884 8.63852 18.4207 8.81813C18.4088 8.80616 18.4088 8.80616 18.3968 8.79418C16.6488 7.27349 14.3381 6.65085 12.0513 6.97414C9.86038 7.29744 7.89688 8.6505 6.69963 10.4945C5.46646 12.3983 5.16714 14.853 5.82563 17.0203C6.47215 19.1277 8.04055 20.9118 10.028 21.8218C12.1471 22.7917 14.5656 22.7438 16.6727 21.75C19.3546 20.4807 21.0667 17.6429 21.0786 14.6854C21.0667 12.8294 20.3962 11.0333 19.2229 9.63236C19.4145 9.44077 19.606 9.24919 19.7976 9.05761C20.2525 9.08156 20.7075 9.1055 21.1624 9.11748C21.5456 9.12945 21.9167 9.12945 22.2998 9.11748C22.4914 9.1055 22.6949 9.1055 22.8865 9.04564C23.8682 10.734 24.407 12.7097 24.419 14.6854C24.407 16.7928 23.8203 18.8403 22.6949 20.6484ZM22.5872 7.93206C22.647 7.90811 22.647 7.90811 22.6351 7.92009C22.6351 7.92009 22.6231 7.92009 22.6231 7.93206C22.6111 7.92009 22.5991 7.92009 22.5872 7.93206C22.5872 7.92009 22.5872 7.92009 22.5872 7.93206ZM25.4606 4.9745L24.2753 6.17189C23.6886 6.75861 23.114 7.34534 22.5273 7.93206C22.4076 7.94403 22.2879 7.94403 22.1681 7.95601C21.797 7.96798 21.4258 7.95601 21.0547 7.94403C20.7314 7.93206 20.4082 7.92009 20.0729 7.90811C20.061 7.54889 20.049 7.1777 20.037 6.81848C20.0251 6.44729 20.0251 6.06413 20.049 5.69293C20.049 5.62109 20.061 5.56122 20.061 5.48938C20.923 4.62725 21.773 3.76513 22.6351 2.89103C22.8147 2.69945 23.0062 2.51984 23.1858 2.32826C23.1858 2.96288 23.1738 3.5975 23.1738 4.24409C23.1738 4.55541 23.4372 4.81884 23.7485 4.81884C24.3831 4.80686 25.0056 4.79489 25.6402 4.78292C25.5803 4.85476 25.5204 4.91463 25.4606 4.9745Z" fill="black" fill-opacity="0.2"/>
<path d="M22.5872 7.93206C22.647 7.90811 22.647 7.90811 22.6351 7.92009C22.6351 7.92009 22.6231 7.92009 22.6231 7.93206C22.6111 7.92009 22.5991 7.92009 22.5872 7.93206ZM22.5872 7.93206C22.5872 7.92009 22.5872 7.92009 22.5872 7.93206ZM26.2747 3.63342C26.0712 3.63342 25.8796 3.64539 25.6761 3.64539C25.2331 3.65737 24.7781 3.65737 24.3352 3.66934C24.3352 3.28617 24.3352 2.90301 24.3471 2.51984C24.3471 2.25642 24.3471 2.00496 24.3471 1.74154C24.3471 0.975205 23.2696 0.831518 22.7668 1.17876C22.4076 1.43021 22.1083 1.81338 21.797 2.1247C21.2582 2.6755 20.7195 3.21433 20.1687 3.76513C20.0131 3.92079 19.8694 4.07645 19.7138 4.22014C19.5462 4.11238 19.3666 4.00461 19.187 3.90882C15.26 1.72956 10.3034 1.93312 6.55596 4.38778C2.8325 6.83046 0.689417 11.2249 1.03662 15.6672C1.38382 20.0736 4.14948 24.0609 8.1483 25.893C12.2309 27.7609 17.1397 27.246 20.7075 24.492C23.7485 22.1571 25.5444 18.505 25.5564 14.6614C25.5444 12.3983 24.8979 10.2071 23.7605 8.31523C24.419 7.65666 25.0775 6.99809 25.724 6.32755C26.0353 6.00426 26.3585 5.69293 26.6698 5.36964C26.8853 5.15411 26.9691 4.90265 26.9931 4.60331C27.0529 4.20817 26.7177 3.62144 26.2747 3.63342ZM23.4013 2.1247C23.4372 2.1247 23.4253 2.1247 23.4013 2.1247V2.1247ZM23.4013 2.1247H23.3893C23.3893 2.1247 23.3893 2.1247 23.3774 2.1247C23.3893 2.1247 23.4013 2.1247 23.4013 2.1247ZM15.4276 14.6854C15.4156 15.6433 14.805 16.4695 13.9071 16.7568C12.9972 17.0442 11.9915 16.6491 11.4767 15.8708C10.9499 15.0685 11.0457 13.9789 11.6443 13.2844C12.2788 12.554 13.3444 12.3385 14.1705 12.7336C14.2423 12.7695 14.3261 12.8054 14.386 12.8533C13.8831 13.3682 13.3683 13.8711 12.8655 14.386C12.3387 14.9129 13.1528 15.7271 13.6796 15.2002C14.1825 14.6973 14.6733 14.1944 15.1762 13.6915C15.3318 13.9909 15.4276 14.3381 15.4276 14.6854ZM15.2121 12.0271C15.1043 11.9433 14.9846 11.8715 14.8529 11.7996C13.7993 11.2129 12.4584 11.2728 11.4527 11.9433C10.459 12.6019 9.87235 13.7873 9.9801 14.9847C10.0879 16.1701 10.8182 17.2478 11.9077 17.7267C12.9373 18.1817 14.1346 18.0979 15.0804 17.4753C16.0143 16.8646 16.553 15.8109 16.565 14.6973C16.553 14.0388 16.3495 13.4041 16.0023 12.8653C16.8044 12.0631 17.5946 11.2608 18.3968 10.4586C19.3785 11.644 19.9053 13.1527 19.9173 14.6973C19.9173 15.7271 19.6779 16.7688 19.2229 17.6788C18.9954 18.1219 18.6961 18.6008 18.4207 18.9361C18.2651 19.1277 18.0855 19.3193 17.9059 19.4869C17.7383 19.6426 17.4869 19.882 17.3552 19.9778C15.6671 21.295 13.5 21.7021 11.4647 21.1513C9.53712 20.6244 7.87294 19.1516 7.11867 17.3316C6.91513 16.8287 6.77146 16.3138 6.67568 15.775C6.63976 15.5834 6.61582 15.32 6.60385 15.0685C6.59187 14.7811 6.59187 14.4818 6.61582 14.1944C6.67568 13.2006 7.01091 12.1828 7.52573 11.3087C8.5434 9.57249 10.3991 8.35115 12.3626 8.09969C13.4761 7.95601 14.4818 8.07575 15.5234 8.44694C15.9664 8.6026 16.4213 8.84208 16.8643 9.11748C17.1277 9.28511 17.3552 9.45275 17.5827 9.65631C16.8044 10.4226 16.0143 11.2249 15.2121 12.0271ZM19.9891 5.56122C20.0011 5.54925 20.0011 5.54925 20.0131 5.53727C19.9772 5.59714 19.9532 5.59714 19.9891 5.56122ZM22.6949 20.6484C21.6174 22.3846 20.061 23.7736 18.2172 24.7075C14.4698 26.5994 9.7167 26.0965 6.43623 23.5101C5.63407 22.8755 4.8798 22.0852 4.31709 21.3189C3.70649 20.4807 3.19168 19.5348 2.85645 18.6128C2.10218 16.5772 1.95851 14.374 2.41346 12.3025C3.28746 8.19549 6.49609 4.91463 10.5308 3.86092C12.6021 3.3221 14.7931 3.41789 16.8284 4.1004C17.5707 4.35185 18.2771 4.67515 18.9715 5.09424C18.9236 5.2499 18.9236 5.42951 18.9116 5.58517C18.8398 6.47124 18.8996 7.38126 18.9475 8.2793C18.7679 8.45891 18.5884 8.63852 18.4207 8.81813C18.4088 8.80616 18.4088 8.80616 18.3968 8.79418C16.6488 7.27349 14.3381 6.65085 12.0513 6.97415C9.86038 7.29744 7.89688 8.6505 6.69963 10.4945C5.46646 12.3983 5.16714 14.853 5.82563 17.0203C6.47215 19.1277 8.04055 20.9118 10.028 21.8218C12.1471 22.7917 14.5656 22.7438 16.6727 21.75C19.3546 20.4807 21.0667 17.6429 21.0786 14.6854C21.0667 12.8294 20.3962 11.0333 19.2229 9.63236C19.4145 9.44077 19.606 9.24919 19.7976 9.05761C20.2525 9.08156 20.7075 9.1055 21.1624 9.11748C21.5456 9.12945 21.9167 9.12945 22.2998 9.11748C22.4914 9.1055 22.6949 9.10551 22.8865 9.04564C23.8682 10.734 24.407 12.7097 24.419 14.6854C24.407 16.7928 23.8203 18.8403 22.6949 20.6484ZM25.4606 4.9745L24.2753 6.17189C23.6886 6.75861 23.114 7.34534 22.5273 7.93206C22.4076 7.94403 22.2879 7.94403 22.1681 7.95601C21.797 7.96798 21.4258 7.95601 21.0547 7.94403C20.7314 7.93206 20.4082 7.92009 20.0729 7.90811C20.061 7.54889 20.049 7.1777 20.037 6.81848C20.0251 6.44729 20.0251 6.06413 20.049 5.69293C20.049 5.62109 20.061 5.56122 20.061 5.48938C20.923 4.62725 21.773 3.76513 22.6351 2.89103C22.8147 2.69945 23.0062 2.51984 23.1858 2.32826C23.1858 2.96288 23.1738 3.5975 23.1738 4.24409C23.1738 4.55541 23.4372 4.81884 23.7485 4.81884C24.3831 4.80686 25.0056 4.79489 25.6402 4.78292C25.5803 4.85476 25.5204 4.91463 25.4606 4.9745Z" stroke="#009444" stroke-width="0.5"/>
<path d="M22.5872 7.93206C22.647 7.90811 22.647 7.90811 22.6351 7.92009C22.6351 7.92009 22.6231 7.92009 22.6231 7.93206C22.6111 7.92009 22.5991 7.92009 22.5872 7.93206ZM22.5872 7.93206C22.5872 7.92009 22.5872 7.92009 22.5872 7.93206ZM26.2747 3.63342C26.0712 3.63342 25.8796 3.64539 25.6761 3.64539C25.2331 3.65737 24.7781 3.65737 24.3352 3.66934C24.3352 3.28617 24.3352 2.90301 24.3471 2.51984C24.3471 2.25642 24.3471 2.00496 24.3471 1.74154C24.3471 0.975205 23.2696 0.831518 22.7668 1.17876C22.4076 1.43021 22.1083 1.81338 21.797 2.1247C21.2582 2.6755 20.7195 3.21433 20.1687 3.76513C20.0131 3.92079 19.8694 4.07645 19.7138 4.22014C19.5462 4.11238 19.3666 4.00461 19.187 3.90882C15.26 1.72956 10.3034 1.93312 6.55596 4.38778C2.8325 6.83046 0.689417 11.2249 1.03662 15.6672C1.38382 20.0736 4.14948 24.0609 8.1483 25.893C12.2309 27.7609 17.1397 27.246 20.7075 24.492C23.7485 22.1571 25.5444 18.505 25.5564 14.6614C25.5444 12.3983 24.8979 10.2071 23.7605 8.31523C24.419 7.65666 25.0775 6.99809 25.724 6.32755C26.0353 6.00426 26.3585 5.69293 26.6698 5.36964C26.8853 5.15411 26.9691 4.90265 26.9931 4.60331C27.0529 4.20817 26.7177 3.62144 26.2747 3.63342ZM23.4013 2.1247C23.4372 2.1247 23.4253 2.1247 23.4013 2.1247V2.1247ZM23.4013 2.1247H23.3893C23.3893 2.1247 23.3893 2.1247 23.3774 2.1247C23.3893 2.1247 23.4013 2.1247 23.4013 2.1247ZM15.4276 14.6854C15.4156 15.6433 14.805 16.4695 13.9071 16.7568C12.9972 17.0442 11.9915 16.6491 11.4767 15.8708C10.9499 15.0685 11.0457 13.9789 11.6443 13.2844C12.2788 12.554 13.3444 12.3385 14.1705 12.7336C14.2423 12.7695 14.3261 12.8054 14.386 12.8533C13.8831 13.3682 13.3683 13.8711 12.8655 14.386C12.3387 14.9129 13.1528 15.7271 13.6796 15.2002C14.1825 14.6973 14.6733 14.1944 15.1762 13.6915C15.3318 13.9909 15.4276 14.3381 15.4276 14.6854ZM15.2121 12.0271C15.1043 11.9433 14.9846 11.8715 14.8529 11.7996C13.7993 11.2129 12.4584 11.2728 11.4527 11.9433C10.459 12.6019 9.87235 13.7873 9.9801 14.9847C10.0879 16.1701 10.8182 17.2478 11.9077 17.7267C12.9373 18.1817 14.1346 18.0979 15.0804 17.4753C16.0143 16.8646 16.553 15.8109 16.565 14.6973C16.553 14.0388 16.3495 13.4041 16.0023 12.8653C16.8044 12.0631 17.5946 11.2608 18.3968 10.4586C19.3785 11.644 19.9053 13.1527 19.9173 14.6973C19.9173 15.7271 19.6779 16.7688 19.2229 17.6788C18.9954 18.1219 18.6961 18.6008 18.4207 18.9361C18.2651 19.1277 18.0855 19.3193 17.9059 19.4869C17.7383 19.6426 17.4869 19.882 17.3552 19.9778C15.6671 21.295 13.5 21.7021 11.4647 21.1513C9.53712 20.6244 7.87294 19.1516 7.11867 17.3316C6.91513 16.8287 6.77146 16.3138 6.67568 15.775C6.63976 15.5834 6.61582 15.32 6.60385 15.0685C6.59187 14.7811 6.59187 14.4818 6.61582 14.1944C6.67568 13.2006 7.01091 12.1828 7.52573 11.3087C8.5434 9.57249 10.3991 8.35115 12.3626 8.09969C13.4761 7.95601 14.4818 8.07575 15.5234 8.44694C15.9664 8.6026 16.4213 8.84208 16.8643 9.11748C17.1277 9.28511 17.3552 9.45275 17.5827 9.65631C16.8044 10.4226 16.0143 11.2249 15.2121 12.0271ZM19.9891 5.56122C20.0011 5.54925 20.0011 5.54925 20.0131 5.53727C19.9772 5.59714 19.9532 5.59714 19.9891 5.56122ZM22.6949 20.6484C21.6174 22.3846 20.061 23.7736 18.2172 24.7075C14.4698 26.5994 9.7167 26.0965 6.43623 23.5101C5.63407 22.8755 4.8798 22.0852 4.31709 21.3189C3.70649 20.4807 3.19168 19.5348 2.85645 18.6128C2.10218 16.5772 1.95851 14.374 2.41346 12.3025C3.28746 8.19549 6.49609 4.91463 10.5308 3.86092C12.6021 3.3221 14.7931 3.41789 16.8284 4.1004C17.5707 4.35185 18.2771 4.67515 18.9715 5.09424C18.9236 5.2499 18.9236 5.42951 18.9116 5.58517C18.8398 6.47124 18.8996 7.38126 18.9475 8.2793C18.7679 8.45891 18.5884 8.63852 18.4207 8.81813C18.4088 8.80616 18.4088 8.80616 18.3968 8.79418C16.6488 7.27349 14.3381 6.65085 12.0513 6.97415C9.86038 7.29744 7.89688 8.6505 6.69963 10.4945C5.46646 12.3983 5.16714 14.853 5.82563 17.0203C6.47215 19.1277 8.04055 20.9118 10.028 21.8218C12.1471 22.7917 14.5656 22.7438 16.6727 21.75C19.3546 20.4807 21.0667 17.6429 21.0786 14.6854C21.0667 12.8294 20.3962 11.0333 19.2229 9.63236C19.4145 9.44077 19.606 9.24919 19.7976 9.05761C20.2525 9.08156 20.7075 9.1055 21.1624 9.11748C21.5456 9.12945 21.9167 9.12945 22.2998 9.11748C22.4914 9.1055 22.6949 9.10551 22.8865 9.04564C23.8682 10.734 24.407 12.7097 24.419 14.6854C24.407 16.7928 23.8203 18.8403 22.6949 20.6484ZM25.4606 4.9745L24.2753 6.17189C23.6886 6.75861 23.114 7.34534 22.5273 7.93206C22.4076 7.94403 22.2879 7.94403 22.1681 7.95601C21.797 7.96798 21.4258 7.95601 21.0547 7.94403C20.7314 7.93206 20.4082 7.92009 20.0729 7.90811C20.061 7.54889 20.049 7.1777 20.037 6.81848C20.0251 6.44729 20.0251 6.06413 20.049 5.69293C20.049 5.62109 20.061 5.56122 20.061 5.48938C20.923 4.62725 21.773 3.76513 22.6351 2.89103C22.8147 2.69945 23.0062 2.51984 23.1858 2.32826C23.1858 2.96288 23.1738 3.5975 23.1738 4.24409C23.1738 4.55541 23.4372 4.81884 23.7485 4.81884C24.3831 4.80686 25.0056 4.79489 25.6402 4.78292C25.5803 4.85476 25.5204 4.91463 25.4606 4.9745Z" stroke="black" stroke-opacity="0.2" stroke-width="0.5"/>
<path d="M25.4607 4.97449L24.2754 6.17188C23.6888 6.7586 23.1141 7.34532 22.5274 7.93205C22.4077 7.94402 22.288 7.94402 22.1683 7.956C21.7971 7.96797 21.426 7.95599 21.0548 7.94402C20.7316 7.93205 20.4083 7.92007 20.0731 7.9081C20.0611 7.54888 20.0491 7.17769 20.0372 6.81847C20.0252 6.44728 20.0252 6.06411 20.0491 5.69292C20.0491 5.62108 20.0611 5.56121 20.0611 5.48936C20.9231 4.62724 21.7732 3.76512 22.6352 2.89102C22.8148 2.69944 23.0063 2.51983 23.1859 2.32825C23.1859 2.96287 23.174 3.59748 23.174 4.24408C23.174 4.5554 23.4374 4.81882 23.7486 4.81882C24.3832 4.80685 25.0058 4.79488 25.6403 4.7829C25.5804 4.85475 25.5206 4.91462 25.4607 4.97449Z" fill="white"/>
<path d="M25.4607 4.97449L24.2754 6.17188C23.6888 6.7586 23.1141 7.34532 22.5274 7.93205C22.4077 7.94402 22.288 7.94402 22.1683 7.956C21.7971 7.96797 21.426 7.95599 21.0548 7.94402C20.7316 7.93205 20.4083 7.92007 20.0731 7.9081C20.0611 7.54888 20.0491 7.17769 20.0372 6.81847C20.0252 6.44728 20.0252 6.06411 20.0491 5.69292C20.0491 5.62108 20.0611 5.56121 20.0611 5.48936C20.9231 4.62724 21.7732 3.76512 22.6352 2.89102C22.8148 2.69944 23.0063 2.51983 23.1859 2.32825C23.1859 2.96287 23.174 3.59748 23.174 4.24408C23.174 4.5554 23.4374 4.81882 23.7486 4.81882C24.3832 4.80685 25.0058 4.79488 25.6403 4.7829C25.5804 4.85475 25.5206 4.91462 25.4607 4.97449Z" stroke="#009444" stroke-width="0.5"/>
<path d="M25.4607 4.97449L24.2754 6.17188C23.6888 6.7586 23.1141 7.34532 22.5274 7.93205C22.4077 7.94402 22.288 7.94402 22.1683 7.956C21.7971 7.96797 21.426 7.95599 21.0548 7.94402C20.7316 7.93205 20.4083 7.92007 20.0731 7.9081C20.0611 7.54888 20.0491 7.17769 20.0372 6.81847C20.0252 6.44728 20.0252 6.06411 20.0491 5.69292C20.0491 5.62108 20.0611 5.56121 20.0611 5.48936C20.9231 4.62724 21.7732 3.76512 22.6352 2.89102C22.8148 2.69944 23.0063 2.51983 23.1859 2.32825C23.1859 2.96287 23.174 3.59748 23.174 4.24408C23.174 4.5554 23.4374 4.81882 23.7486 4.81882C24.3832 4.80685 25.0058 4.79488 25.6403 4.7829C25.5804 4.85475 25.5206 4.91462 25.4607 4.97449Z" stroke="black" stroke-opacity="0.2" stroke-width="0.5"/>
<path d="M15.4277 14.6853C15.4158 15.6433 14.8052 16.4695 13.9072 16.7568C12.9973 17.0442 11.9916 16.6491 11.4768 15.8708C10.95 15.0685 11.0458 13.9789 11.6444 13.2844C12.279 12.554 13.3445 12.3384 14.1706 12.7336C14.2424 12.7695 14.3263 12.8054 14.3861 12.8533C13.8833 13.3682 13.3685 13.8711 12.8656 14.386C12.3388 14.9128 13.1529 15.7271 13.6797 15.2002C14.1826 14.6973 14.6735 14.1944 15.1763 13.6915C15.3319 13.9908 15.4277 14.3381 15.4277 14.6853Z" fill="white"/>
<path d="M15.4277 14.6853C15.4158 15.6433 14.8052 16.4695 13.9072 16.7568C12.9973 17.0442 11.9916 16.6491 11.4768 15.8708C10.95 15.0685 11.0458 13.9789 11.6444 13.2844C12.279 12.554 13.3445 12.3384 14.1706 12.7336C14.2424 12.7695 14.3263 12.8054 14.3861 12.8533C13.8833 13.3682 13.3685 13.8711 12.8656 14.386C12.3388 14.9128 13.1529 15.7271 13.6797 15.2002C14.1826 14.6973 14.6735 14.1944 15.1763 13.6915C15.3319 13.9908 15.4277 14.3381 15.4277 14.6853Z" stroke="#009444" stroke-width="0.5"/>
<path d="M15.4277 14.6853C15.4158 15.6433 14.8052 16.4695 13.9072 16.7568C12.9973 17.0442 11.9916 16.6491 11.4768 15.8708C10.95 15.0685 11.0458 13.9789 11.6444 13.2844C12.279 12.554 13.3445 12.3384 14.1706 12.7336C14.2424 12.7695 14.3263 12.8054 14.3861 12.8533C13.8833 13.3682 13.3685 13.8711 12.8656 14.386C12.3388 14.9128 13.1529 15.7271 13.6797 15.2002C14.1826 14.6973 14.6735 14.1944 15.1763 13.6915C15.3319 13.9908 15.4277 14.3381 15.4277 14.6853Z" stroke="black" stroke-opacity="0.2" stroke-width="0.5"/>
<path d="M15.2118 12.0271C15.1041 11.9433 14.9843 11.8715 14.8526 11.7996C13.7991 11.2129 12.4581 11.2728 11.4524 11.9433C10.4587 12.6019 9.87207 13.7873 9.97982 14.9847C10.0876 16.1701 10.8179 17.2478 11.9074 17.7267C12.937 18.1817 14.1343 18.0979 15.0801 17.4753C16.014 16.8646 16.5527 15.8109 16.5647 14.6973C16.5527 14.0387 16.3492 13.4041 16.002 12.8653C16.8042 12.063 17.5944 11.2608 18.3965 10.4585C19.3783 11.644 19.9051 13.1527 19.917 14.6973C19.917 15.7271 19.6776 16.7688 19.2226 17.6788C18.9951 18.1219 18.6958 18.6008 18.4205 18.9361C18.2648 19.1277 18.0852 19.3193 17.9056 19.4869C17.738 19.6425 17.4866 19.882 17.3549 19.9778C15.6668 21.2949 13.4997 21.7021 11.4644 21.1513C9.53684 20.6244 7.87266 19.1516 7.11839 17.3316C6.91485 16.8287 6.77118 16.3138 6.6754 15.775C6.63949 15.5834 6.61554 15.32 6.60357 15.0685C6.59159 14.7811 6.59159 14.4818 6.61554 14.1944C6.6754 13.2006 7.01063 12.1828 7.52545 11.3087C8.54312 9.57247 10.3989 8.35113 12.3624 8.09968C13.4758 7.95599 14.4815 8.07573 15.5231 8.44692C15.9661 8.60258 16.421 8.84206 16.864 9.11746C17.1274 9.2851 17.3549 9.45273 17.5824 9.65629C16.8042 10.4226 16.014 11.2249 15.2118 12.0271Z" fill="white"/>
<path d="M15.2118 12.0271C15.1041 11.9433 14.9843 11.8715 14.8526 11.7996C13.7991 11.2129 12.4581 11.2728 11.4524 11.9433C10.4587 12.6019 9.87207 13.7873 9.97982 14.9847C10.0876 16.1701 10.8179 17.2478 11.9074 17.7267C12.937 18.1817 14.1343 18.0979 15.0801 17.4753C16.014 16.8646 16.5527 15.8109 16.5647 14.6973C16.5527 14.0387 16.3492 13.4041 16.002 12.8653C16.8042 12.063 17.5944 11.2608 18.3965 10.4585C19.3783 11.644 19.9051 13.1527 19.917 14.6973C19.917 15.7271 19.6776 16.7688 19.2226 17.6788C18.9951 18.1219 18.6958 18.6008 18.4205 18.9361C18.2648 19.1277 18.0852 19.3193 17.9056 19.4869C17.738 19.6425 17.4866 19.882 17.3549 19.9778C15.6668 21.2949 13.4997 21.7021 11.4644 21.1513C9.53684 20.6244 7.87266 19.1516 7.11839 17.3316C6.91485 16.8287 6.77118 16.3138 6.6754 15.775C6.63949 15.5834 6.61554 15.32 6.60357 15.0685C6.59159 14.7811 6.59159 14.4818 6.61554 14.1944C6.6754 13.2006 7.01063 12.1828 7.52545 11.3087C8.54312 9.57247 10.3989 8.35113 12.3624 8.09968C13.4758 7.95599 14.4815 8.07573 15.5231 8.44692C15.9661 8.60258 16.421 8.84206 16.864 9.11746C17.1274 9.2851 17.3549 9.45273 17.5824 9.65629C16.8042 10.4226 16.014 11.2249 15.2118 12.0271Z" stroke="#009444" stroke-width="0.5"/>
<path d="M15.2118 12.0271C15.1041 11.9433 14.9843 11.8715 14.8526 11.7996C13.7991 11.2129 12.4581 11.2728 11.4524 11.9433C10.4587 12.6019 9.87207 13.7873 9.97982 14.9847C10.0876 16.1701 10.8179 17.2478 11.9074 17.7267C12.937 18.1817 14.1343 18.0979 15.0801 17.4753C16.014 16.8646 16.5527 15.8109 16.5647 14.6973C16.5527 14.0387 16.3492 13.4041 16.002 12.8653C16.8042 12.063 17.5944 11.2608 18.3965 10.4585C19.3783 11.644 19.9051 13.1527 19.917 14.6973C19.917 15.7271 19.6776 16.7688 19.2226 17.6788C18.9951 18.1219 18.6958 18.6008 18.4205 18.9361C18.2648 19.1277 18.0852 19.3193 17.9056 19.4869C17.738 19.6425 17.4866 19.882 17.3549 19.9778C15.6668 21.2949 13.4997 21.7021 11.4644 21.1513C9.53684 20.6244 7.87266 19.1516 7.11839 17.3316C6.91485 16.8287 6.77118 16.3138 6.6754 15.775C6.63949 15.5834 6.61554 15.32 6.60357 15.0685C6.59159 14.7811 6.59159 14.4818 6.61554 14.1944C6.6754 13.2006 7.01063 12.1828 7.52545 11.3087C8.54312 9.57247 10.3989 8.35113 12.3624 8.09968C13.4758 7.95599 14.4815 8.07573 15.5231 8.44692C15.9661 8.60258 16.421 8.84206 16.864 9.11746C17.1274 9.2851 17.3549 9.45273 17.5824 9.65629C16.8042 10.4226 16.014 11.2249 15.2118 12.0271Z" stroke="black" stroke-opacity="0.2" stroke-width="0.5"/>
<path d="M22.6949 20.6484C21.6174 22.3846 20.061 23.7736 18.2172 24.7075C14.4698 26.5994 9.7167 26.0965 6.43623 23.5101C5.63407 22.8755 4.8798 22.0852 4.31709 21.3189C3.70649 20.4807 3.19167 19.5348 2.85644 18.6128C2.10217 16.5772 1.9585 14.374 2.41346 12.3025C3.28745 8.19548 6.49609 4.91462 10.5308 3.86091C12.6021 3.32209 14.7931 3.41788 16.8284 4.10039C17.5707 4.35185 18.2771 4.67514 18.9715 5.09423C18.9236 5.24989 18.9236 5.4295 18.9116 5.58516C18.8398 6.47123 18.8996 7.38125 18.9475 8.2793C18.7679 8.45891 18.5883 8.63851 18.4207 8.81812C18.4088 8.80615 18.4088 8.80615 18.3968 8.79417C16.6488 7.27349 14.3381 6.65084 12.0513 6.97414C9.86037 7.29743 7.89688 8.65049 6.69962 10.4945C5.46645 12.3983 5.16714 14.853 5.82563 17.0203C6.47214 19.1277 8.04055 20.9118 10.028 21.8218C12.1471 22.7917 14.5656 22.7438 16.6727 21.75C19.3546 20.4807 21.0667 17.6429 21.0786 14.6853C21.0667 12.8294 20.3962 11.0333 19.2229 9.63235C19.4145 9.44077 19.606 9.24918 19.7976 9.0576C20.2525 9.08155 20.7075 9.1055 21.1624 9.11747C21.5456 9.12945 21.9167 9.12945 22.2998 9.11747C22.4914 9.1055 22.6949 9.1055 22.8865 9.04563C23.8682 10.734 24.407 12.7097 24.419 14.6853C24.407 16.7928 23.8203 18.8403 22.6949 20.6484Z" fill="white" stroke="url(#paint0_linear_1882_1061)" stroke-width="0.5"/>
<defs>
<linearGradient id="paint0_linear_1882_1061" x1="2.15541" y1="14.6812" x2="24.4193" y2="14.6812" gradientUnits="userSpaceOnUse">
<stop stop-color="#8DC63F"/>
<stop offset="1" stop-color="#009444"/>
</linearGradient>
</defs>
</svg>
