<svg width="38" height="38" viewBox="0 0 38 38" fill="none" xmlns="http://www.w3.org/2000/svg">
<g clip-path="url(#clip0_102_238)">
<path d="M32.4124 32.424C39.828 25.0084 39.828 12.9855 32.4124 5.56993C24.9969 -1.84561 12.9739 -1.84561 5.55837 5.56993C-1.85717 12.9855 -1.85717 25.0084 5.55837 32.424C12.9739 39.8395 24.9969 39.8395 32.4124 32.424Z" fill="#FFD05D"/>
<path d="M28.9293 2.78589C30.8238 5.75011 31.9158 9.24923 31.9158 13.0158C31.9158 23.5132 23.4021 32.0047 12.927 32.0047C9.29415 32.0047 5.88418 30.9794 2.98682 29.1964C6.35221 34.4563 12.2807 37.9554 18.9892 37.9554C29.4865 37.9554 37.978 29.4416 37.978 18.9665C38.0003 12.1243 34.3675 6.129 28.9293 2.78589Z" fill="#FDC453"/>
<path d="M2.58546 20.9947C2.58546 11.2551 10.4752 3.36534 20.2148 3.36534C25.8981 3.36534 30.9796 6.06212 34.189 10.2521C31.1579 4.97004 25.4523 1.40405 18.8998 1.40405C9.16024 1.40405 1.27051 9.29379 1.27051 19.0334C1.27051 23.0897 2.63004 26.8117 4.92564 29.7759C3.43238 27.2129 2.58546 24.2041 2.58546 20.9947Z" fill="#FFD77F"/>
<path d="M11.2109 20.9501C10.7206 20.4821 9.94052 20.9947 10.1857 21.641C11.5898 25.1401 15.022 27.6363 19.0338 27.6363C22.9786 27.6363 26.3663 25.2516 27.7927 21.8193C28.0602 21.1953 27.2578 20.6604 26.7898 21.1284C24.0039 23.8252 18.0977 27.6586 11.2109 20.9501Z" fill="#5E4939"/>
<path d="M23.892 14.8432C24.4269 16.1805 25.7195 17.0497 27.1682 17.0497C28.5946 17.0497 29.865 16.2027 30.3999 14.9101C30.5113 14.6649 30.4222 14.3752 30.1993 14.2192C29.9764 14.0632 29.6867 14.0854 29.4861 14.286C28.4386 15.3113 26.7671 16.1359 24.8058 14.2415C24.6943 14.13 24.5606 14.0854 24.4046 14.0854C24.2932 14.0854 24.1817 14.1077 24.0926 14.1746C23.892 14.3083 23.8028 14.5981 23.892 14.8432Z" fill="#303030"/>
<path d="M7.57776 14.8432C8.11265 16.1805 9.40532 17.0497 10.854 17.0497C12.2804 17.0497 13.5508 16.2027 14.0857 14.9101C14.1971 14.6649 14.108 14.3752 13.8851 14.2192C13.6622 14.0632 13.3725 14.0854 13.1719 14.286C12.1244 15.3113 10.4528 16.1359 8.49154 14.2415C8.3801 14.13 8.24638 14.0854 8.09037 14.0854C7.97893 14.0854 7.86749 14.1077 7.77834 14.1746C7.55547 14.3083 7.48861 14.5981 7.57776 14.8432Z" fill="#303030"/>
<path d="M5.03713 24.9617C6.87117 24.9617 8.35795 23.4749 8.35795 21.6409C8.35795 19.8069 6.87117 18.3201 5.03713 18.3201C3.20309 18.3201 1.71631 19.8069 1.71631 21.6409C1.71631 23.4749 3.20309 24.9617 5.03713 24.9617Z" fill="#F5A6AC"/>
<path d="M32.9634 24.9617C34.7974 24.9617 36.2842 23.4749 36.2842 21.6409C36.2842 19.8069 34.7974 18.3201 32.9634 18.3201C31.1294 18.3201 29.6426 19.8069 29.6426 21.6409C29.6426 23.4749 31.1294 24.9617 32.9634 24.9617Z" fill="#F5A6AC"/>
</g>
<defs>
<clipPath id="clip0_102_238">
<rect width="38" height="38" fill="white"/>
</clipPath>
</defs>
</svg>
