<svg width="38" height="41" viewBox="0 0 38 41" fill="none" xmlns="http://www.w3.org/2000/svg">
<g clip-path="url(#clip0_102_205)">
<path d="M32.4124 34.5197C39.8279 26.8283 39.8279 14.3582 32.4124 6.66683C24.9969 -1.02453 12.9739 -1.02453 5.55837 6.66683C-1.85717 14.3582 -1.85717 26.8283 5.55837 34.5197C12.9739 42.2111 24.9969 42.2111 32.4124 34.5197Z" fill="#FFD05D"/>
<path d="M28.9293 3.7793C30.8238 6.85377 31.9158 10.483 31.9158 14.3897C31.9158 25.2775 23.4021 34.0849 12.927 34.0849C9.29415 34.0849 5.88418 33.0215 2.98682 31.1722C6.35221 36.6277 12.2807 40.2569 18.9892 40.2569C29.4865 40.2569 37.978 31.4265 37.978 20.5618C38.0003 13.4651 34.3675 7.24675 28.9293 3.7793Z" fill="#FDC453"/>
<path d="M2.58546 22.6652C2.58546 12.5634 10.4752 4.38019 20.2148 4.38019C25.8981 4.38019 30.9796 7.17727 34.189 11.5231C31.1579 6.04457 25.4523 2.34595 18.8998 2.34595C9.16024 2.34595 1.27051 10.5291 1.27051 20.631C1.27051 24.8382 2.63004 28.6986 4.92564 31.7731C3.43238 29.1147 2.58546 25.994 2.58546 22.6652Z" fill="#FFD77F"/>
<path d="M13.3946 15.8229C13.3946 17.1636 12.7706 18.2732 11.9905 18.2732C11.2105 18.2732 10.5864 17.1868 10.5864 15.8229C10.5864 14.4821 11.2105 13.3726 11.9905 13.3726C12.7706 13.3726 13.3946 14.459 13.3946 15.8229Z" fill="#303030"/>
<path d="M27.3912 15.8229C27.3912 17.1636 26.7672 18.2732 25.9871 18.2732C25.2071 18.2732 24.583 17.1868 24.583 15.8229C24.583 14.4821 25.2071 13.3726 25.9871 13.3726C26.7672 13.3726 27.3912 14.459 27.3912 15.8229Z" fill="#303030"/>
<path d="M6.24072 22.4573C6.95392 29.1148 12.392 34.2697 19.0114 34.2697C25.6085 34.2697 31.0466 29.0917 31.7821 22.4573H6.24072Z" fill="#695342"/>
<path d="M10.1855 30.6405C12.4811 32.9059 15.5791 34.2697 19.0114 34.2697C22.2876 34.2697 25.2518 32.9983 27.5251 30.9179L27.4137 30.6405C18.8331 26.2946 10.297 30.5711 10.1855 30.6405Z" fill="#F06669"/>
</g>
<defs>
<clipPath id="clip0_102_205">
<rect width="38" height="39.4134" fill="white" transform="translate(0 0.889648)"/>
</clipPath>
</defs>
</svg>
