<svg width="24" height="24" viewBox="0 0 24 24" fill="none" xmlns="http://www.w3.org/2000/svg">
<path fill-rule="evenodd" clip-rule="evenodd" d="M2.66694 8H4.00023V14.6667H19.9998V8H21.3331V14.6667H22.9997C23.0881 14.6667 23.1729 14.7018 23.2354 14.7643C23.2979 14.8268 23.333 14.9116 23.333 15V15.6667C23.333 15.7551 23.2979 15.8399 23.2354 15.9024C23.1729 15.9649 23.0881 16 22.9997 16H1.00032C0.911913 16 0.827131 15.9649 0.764621 15.9024C0.70211 15.8399 0.666992 15.7551 0.666992 15.6667V15C0.666992 14.9116 0.70211 14.8268 0.764621 14.7643C0.827131 14.7018 0.911913 14.6667 1.00032 14.6667H2.66694V8ZM2.66694 18.6667V22.6667H21.3331V18.6667H2.66694ZM2.00029 17.3333C1.82348 17.3333 1.65392 17.4036 1.5289 17.5286C1.40388 17.6536 1.33364 17.8232 1.33364 18V23.3333C1.33364 23.5101 1.40388 23.6797 1.5289 23.8047C1.65392 23.9298 1.82348 24 2.00029 24H21.9997C22.1765 24 22.3461 23.9298 22.4711 23.8047C22.5961 23.6797 22.6664 23.5101 22.6664 23.3333V18C22.6664 17.8232 22.5961 17.6536 22.4711 17.5286C22.3461 17.4036 22.1765 17.3333 21.9997 17.3333H2.00029Z" fill="url(#paint0_linear_2781_1442)"/>
<path fill-rule="evenodd" clip-rule="evenodd" d="M2.79259 1.33333L1.36263 5.27533C1.34338 5.32811 1.33346 5.38383 1.3333 5.44V7.03333C1.3333 7.57267 1.76462 8 2.28594 8C2.80592 8 3.23791 7.57333 3.23791 7.034C3.23791 6.85719 3.30815 6.68762 3.43317 6.5626C3.55819 6.43757 3.72775 6.36733 3.90456 6.36733C4.08136 6.36733 4.25093 6.43757 4.37595 6.5626C4.50097 6.68762 4.57121 6.85719 4.57121 7.034C4.56961 7.28838 4.66904 7.53299 4.84766 7.71412C5.02627 7.89524 5.26948 7.99806 5.52385 8C6.04383 8 6.47582 7.57333 6.47582 7.034C6.47582 6.85719 6.54606 6.68762 6.67108 6.5626C6.7961 6.43757 6.96566 6.36733 7.14247 6.36733C7.31927 6.36733 7.48884 6.43757 7.61386 6.5626C7.73888 6.68762 7.80912 6.85719 7.80912 7.034C7.80752 7.28838 7.90695 7.53299 8.08557 7.71412C8.26418 7.89524 8.50739 7.99806 8.76176 8C9.28174 8 9.71373 7.57333 9.71373 7.03467C9.71373 6.85786 9.78397 6.68829 9.90899 6.56326C10.034 6.43824 10.2036 6.368 10.3804 6.368C10.5572 6.368 10.7267 6.43824 10.8518 6.56326C10.9768 6.68829 11.047 6.85786 11.047 7.03467C11.0477 7.57333 11.4797 8 11.9997 8C12.5197 8 12.9523 7.57333 12.9523 7.034C12.9523 6.85719 13.0225 6.68762 13.1476 6.5626C13.2726 6.43757 13.4421 6.36733 13.619 6.36733C13.7958 6.36733 13.9653 6.43757 14.0903 6.5626C14.2154 6.68762 14.2856 6.85719 14.2856 7.034C14.2856 7.57267 14.7169 8 15.2376 8C15.7576 8 16.1895 7.57333 16.1902 7.03467C16.1902 6.85786 16.2605 6.68829 16.3855 6.56326C16.5105 6.43824 16.6801 6.368 16.8569 6.368C17.0337 6.368 17.2032 6.43824 17.3283 6.56326C17.4533 6.68829 17.5235 6.85786 17.5235 7.03467C17.5235 7.57333 17.9555 8 18.4755 8C18.9961 8 19.4281 7.57333 19.4281 7.034C19.4281 6.85719 19.4984 6.68762 19.6234 6.5626C19.7484 6.43757 19.918 6.36733 20.0948 6.36733C20.2716 6.36733 20.4411 6.43757 20.5662 6.5626C20.6912 6.68762 20.7614 6.85719 20.7614 7.034C20.7614 7.57267 21.1927 8 21.7134 8C22.2347 8 22.666 7.57333 22.666 7.034V5.44067C22.6659 5.38427 22.656 5.32833 22.6367 5.27533L21.2067 1.33333H2.79326H2.79259ZM21.1834 1.26933L21.2781 1.23467L21.1834 1.26933ZM20.0948 8.65733C19.8832 8.87183 19.6311 9.04207 19.3531 9.15813C19.0751 9.27419 18.7767 9.33375 18.4755 9.33333C18.1743 9.3337 17.8761 9.27412 17.5982 9.15806C17.3203 9.042 17.0683 8.87178 16.8569 8.65733C16.6453 8.87186 16.3932 9.04212 16.1152 9.15818C15.8372 9.27425 15.5388 9.33379 15.2376 9.33333C14.9364 9.3337 14.6382 9.27412 14.3603 9.15806C14.0824 9.042 13.8304 8.87178 13.619 8.65733C13.4074 8.87186 13.1553 9.04212 12.8773 9.15818C12.5993 9.27425 12.3009 9.33379 11.9997 9.33333C11.6984 9.33379 11.4001 9.27425 11.122 9.15818C10.844 9.04212 10.5919 8.87186 10.3804 8.65733C10.1689 8.87178 9.91692 9.042 9.63902 9.15806C9.36113 9.27412 9.06291 9.3337 8.76176 9.33333C8.12777 9.33333 7.55512 9.074 7.14247 8.65733C6.93102 8.87178 6.67901 9.042 6.40111 9.15806C6.12322 9.27412 5.825 9.3337 5.52385 9.33333C5.22258 9.33375 4.92425 9.27419 4.64624 9.15813C4.36823 9.04207 4.11611 8.87183 3.90456 8.65733C3.69319 8.8717 3.44128 9.04187 3.16351 9.15793C2.88574 9.27398 2.58765 9.33361 2.2866 9.33333C1.01797 9.33333 0 8.29867 0 7.034V5.44067C0 5.22933 0.0366657 5.01933 0.108664 4.82067L1.56196 0.814C1.64817 0.575526 1.8058 0.369425 2.01336 0.223766C2.22093 0.0781066 2.46835 -2.91796e-05 2.72192 8.17437e-09H21.2787C21.5322 0.000294363 21.7794 0.0786549 21.9867 0.224421C22.194 0.370188 22.3514 0.576282 22.4374 0.814667L23.8907 4.82067C23.9633 5.01933 24 5.22933 24 5.44067V7.034C23.9993 8.29867 22.9814 9.33333 21.7134 9.33333C21.4122 9.3337 21.114 9.27412 20.8361 9.15806C20.5582 9.042 20.3062 8.87178 20.0948 8.65733Z" fill="url(#paint1_linear_2781_1442)"/>
<path d="M5.33301 13.0003C5.33301 12.9119 5.36813 12.8271 5.43064 12.7646C5.49315 12.7021 5.57793 12.667 5.66633 12.667H7.66628C7.75468 12.667 7.83946 12.7021 7.90197 12.7646C7.96448 12.8271 7.9996 12.9119 7.9996 13.0003V14.3337C7.9996 14.4221 7.96448 14.5068 7.90197 14.5694C7.83946 14.6319 7.75468 14.667 7.66628 14.667H5.66633C5.57793 14.667 5.49315 14.6319 5.43064 14.5694C5.36813 14.5068 5.33301 14.4221 5.33301 14.3337V13.0003Z" fill="url(#paint2_linear_2781_1442)"/>
<path d="M6.66602 13.667C6.66602 13.5786 6.70113 13.4938 6.76364 13.4313C6.82615 13.3688 6.91094 13.3337 6.99934 13.3337H8.99928C9.08769 13.3337 9.17247 13.3688 9.23498 13.4313C9.29749 13.4938 9.33261 13.5786 9.33261 13.667V14.3337C9.33261 14.4221 9.29749 14.5068 9.23498 14.5694C9.17247 14.6319 9.08769 14.667 8.99928 14.667H6.99934C6.91094 14.667 6.82615 14.6319 6.76364 14.5694C6.70113 14.5068 6.66602 14.4221 6.66602 14.3337V13.667ZM11.9992 13.667C11.9992 13.9322 11.8938 14.1866 11.7063 14.3741C11.5188 14.5616 11.2644 14.667 10.9992 14.667C10.734 14.667 10.4797 14.5616 10.2921 14.3741C10.1046 14.1866 9.99926 13.9322 9.99926 13.667C9.99926 13.4018 10.1046 13.1474 10.2921 12.9599C10.4797 12.7723 10.734 12.667 10.9992 12.667C11.2644 12.667 11.5188 12.7723 11.7063 12.9599C11.8938 13.1474 11.9992 13.4018 11.9992 13.667V13.667Z" fill="url(#paint3_linear_2781_1442)"/>
<defs>
<linearGradient id="paint0_linear_2781_1442" x1="11.9998" y1="23.9235" x2="11.9998" y2="7.58152" gradientUnits="userSpaceOnUse">
<stop stop-color="#EEEEEE"/>
<stop offset="1" stop-color="white"/>
</linearGradient>
<linearGradient id="paint1_linear_2781_1442" x1="11.9998" y1="9.28869" x2="11.9998" y2="-0.244113" gradientUnits="userSpaceOnUse">
<stop stop-color="#EEEEEE"/>
<stop offset="1" stop-color="white"/>
</linearGradient>
<linearGradient id="paint2_linear_2781_1442" x1="6.66628" y1="14.6574" x2="6.66628" y2="12.6147" gradientUnits="userSpaceOnUse">
<stop stop-color="#EEEEEE"/>
<stop offset="1" stop-color="white"/>
</linearGradient>
<linearGradient id="paint3_linear_2781_1442" x1="9.33257" y1="14.6574" x2="9.33257" y2="12.6147" gradientUnits="userSpaceOnUse">
<stop stop-color="#EEEEEE"/>
<stop offset="1" stop-color="white"/>
</linearGradient>
</defs>
</svg>
