<svg width="24" height="23" viewBox="0 0 24 23" fill="none" xmlns="http://www.w3.org/2000/svg">
<path d="M7.079 16V6.9H8.821L12.695 13.322H11.772L15.581 6.9H17.31L17.336 16H15.36L15.347 9.929H15.711L12.669 15.038H11.72L8.613 9.929H9.055V16H7.079Z" fill="#4C5DF4"/>
<path d="M2.88539 8.48005C3.55805 5.88401 5.70602 3.87678 8.43056 3.29822L8.88443 3.20184C10.9366 2.76605 13.0634 2.76605 15.1156 3.20184L15.5694 3.29822C18.294 3.87678 20.442 5.88401 21.1146 8.48006C21.6285 10.4632 21.6285 12.5368 21.1146 14.5199C20.442 17.116 18.294 19.1232 15.5694 19.7018L15.1156 19.7982C13.0634 20.2339 10.9366 20.2339 8.88443 19.7982L8.43056 19.7018C5.70601 19.1232 3.55805 17.116 2.88539 14.52C2.37154 12.5368 2.37154 10.4632 2.88539 8.48005Z" stroke="#4C5DF4" stroke-width="1.5"/>
</svg>
