<svg width="40" height="43" viewBox="0 0 50 53" fill="none" xmlns="http://www.w3.org/2000/svg">
<path d="M39.1607 25.9281L39.3354 25.747V12.9385C39.3354 12.1752 38.445 11.7919 37.9242 12.332L24.9136 25.8263V25.8279L25.0102 25.9281H39.1607Z" fill="url(#paint0_linear_1518_359)"/>
<path d="M24.9137 25.8279L12.0777 12.5149C11.5569 11.9747 10.6665 12.358 10.6665 13.1214V25.9282H24.8154L24.9137 25.8279Z" fill="url(#paint1_linear_1518_359)"/>
<path d="M24.9136 25.9282V40.7049L32.0863 33.2672L25.0102 25.9282H24.9136Z" fill="url(#paint2_linear_1518_359)"/>
<path d="M12.0777 39.1393L17.741 33.2672L10.6665 25.9298V38.5329C10.6665 39.2978 11.5569 39.6795 12.0777 39.1393Z" fill="url(#paint3_linear_1518_359)"/>
<path d="M24.8147 25.9282L17.7402 33.2672L24.9129 40.7065V40.7048V25.9282H24.8147Z" fill="url(#paint4_linear_1518_359)"/>
<path d="M10.6665 25.9282V25.9298L17.741 33.2672L24.8154 25.9282H10.6665Z" fill="url(#paint5_linear_1518_359)"/>
<path d="M25.0103 25.9282L32.0863 33.2672L39.1607 25.9282H25.0103Z" fill="url(#paint6_linear_1518_359)"/>
<path d="M32.0859 33.2671L37.9208 39.3851C38.44 39.9301 39.3351 39.5484 39.3351 38.7818V25.7469L32.0859 33.2671Z" fill="url(#paint7_linear_1518_359)"/>
<g opacity="0.2">
<g opacity="0.2">
<path opacity="0.2" d="M39.1543 15.8091C39.2166 15.8446 39.2743 15.877 39.3351 15.9109V12.9385C39.3351 12.1752 38.4448 11.7919 37.924 12.332L36.2524 14.0657C37.2067 14.6722 38.1719 15.2576 39.1543 15.8091Z" fill="url(#paint8_linear_1518_359)"/>
<path opacity="0.2" d="M17.0767 23.0478C14.8906 21.3173 12.7637 19.5384 10.6665 17.7319V25.9281H20.8034C19.5357 24.9771 18.293 24.0116 17.0767 23.0478Z" fill="url(#paint9_linear_1518_359)"/>
<path opacity="0.2" d="M24.9136 28.8817V40.7053L32.0863 33.2676L32.0707 33.2515C29.6117 31.948 27.2244 30.4634 24.9136 28.8817Z" fill="url(#paint10_linear_1518_359)"/>
<path opacity="0.2" d="M12.0777 39.1393L17.741 33.2672L10.6665 25.9298V38.5329C10.6665 39.2978 11.5569 39.6795 12.0777 39.1393Z" fill="url(#paint11_linear_1518_359)"/>
<path opacity="0.2" d="M23.156 27.6506L17.7422 33.2673L24.9149 40.7065V28.8813C24.3224 28.477 23.7361 28.0663 23.156 27.6506Z" fill="url(#paint12_linear_1518_359)"/>
<path opacity="0.2" d="M20.8034 25.9282H10.6665V25.9298L17.741 33.2672L23.1548 27.6506C22.3627 27.0845 21.5784 26.5088 20.8034 25.9282Z" fill="url(#paint13_linear_1518_359)"/>
</g>
<g opacity="0.2">
<path opacity="0.2" d="M32.0906 33.2625L32.0859 33.2673L37.9208 39.3853C38.44 39.9303 39.3351 39.5486 39.3351 38.782V36.4209C36.8558 35.5848 34.4405 34.5061 32.0906 33.2625Z" fill="url(#paint14_linear_1518_359)"/>
</g>
</g>
<path d="M25 52.3231C18.3216 52.3231 12.0439 49.6256 7.3224 44.7286C2.60088 39.8316 0 33.319 0 26.3941C0 19.4675 2.60088 12.9565 7.3224 8.05951C12.0439 3.16092 18.3216 0.463379 25 0.463379C31.6784 0.463379 37.9561 3.16092 42.6776 8.05789C47.3991 12.9549 50 19.4675 50 26.3924C50 33.319 47.3991 39.83 42.6776 44.727C37.9561 49.6256 31.6769 52.3231 25 52.3231ZM25 2.54314C12.3199 2.54314 2.00368 13.2427 2.00368 26.3941C2.00368 39.5454 12.3199 50.245 25 50.245C37.6801 50.245 47.9963 39.5454 47.9963 26.3941C47.9948 13.2427 37.6801 2.54314 25 2.54314Z" fill="url(#paint15_linear_1518_359)"/>
<defs>
<linearGradient id="paint0_linear_1518_359" x1="32.1247" y1="27.3006" x2="32.1247" y2="17.1531" gradientUnits="userSpaceOnUse">
<stop stop-color="#ED2026"/>
<stop offset="1" stop-color="#BE1E2D"/>
</linearGradient>
<linearGradient id="paint1_linear_1518_359" x1="18.2632" y1="27.9346" x2="14.1542" y2="11.3256" gradientUnits="userSpaceOnUse">
<stop stop-color="#00AEEF"/>
<stop offset="1" stop-color="#CC40B6"/>
</linearGradient>
<linearGradient id="paint2_linear_1518_359" x1="24.9138" y1="33.3166" x2="32.0864" y2="33.3166" gradientUnits="userSpaceOnUse">
<stop stop-color="#8DC63F"/>
<stop offset="1" stop-color="#009444"/>
</linearGradient>
<linearGradient id="paint3_linear_1518_359" x1="10.6666" y1="32.6612" x2="17.7413" y2="32.6612" gradientUnits="userSpaceOnUse">
<stop stop-color="#F9ED32"/>
<stop offset="0.9946" stop-color="#FEC026"/>
</linearGradient>
<linearGradient id="paint4_linear_1518_359" x1="22.2138" y1="35.7282" x2="33.5874" y2="20.7219" gradientUnits="userSpaceOnUse">
<stop stop-color="#922EAC"/>
<stop offset="1" stop-color="#FF27FF"/>
</linearGradient>
<linearGradient id="paint5_linear_1518_359" x1="10.6666" y1="29.5978" x2="24.816" y2="29.5978" gradientUnits="userSpaceOnUse">
<stop stop-color="#5E0092"/>
<stop offset="1" stop-color="#CC00FF"/>
</linearGradient>
<linearGradient id="paint6_linear_1518_359" x1="25.0101" y1="29.5978" x2="39.161" y2="29.5978" gradientUnits="userSpaceOnUse">
<stop stop-color="#F9ED32"/>
<stop offset="0.9946" stop-color="#FEC026"/>
</linearGradient>
<linearGradient id="paint7_linear_1518_359" x1="27.5489" y1="42.613" x2="34.6405" y2="36.9378" gradientUnits="userSpaceOnUse">
<stop stop-color="#AD208E"/>
<stop offset="1" stop-color="#D7137A"/>
</linearGradient>
<linearGradient id="paint8_linear_1518_359" x1="37.7942" y1="27.3005" x2="37.7942" y2="17.153" gradientUnits="userSpaceOnUse">
<stop stop-color="#ED2026"/>
<stop offset="1" stop-color="#BE1E2D"/>
</linearGradient>
<linearGradient id="paint9_linear_1518_359" x1="16.3081" y1="28.4181" x2="12.1991" y2="11.8091" gradientUnits="userSpaceOnUse">
<stop stop-color="#00AEEF"/>
<stop offset="1" stop-color="#CC40B6"/>
</linearGradient>
<linearGradient id="paint10_linear_1518_359" x1="24.9138" y1="34.7935" x2="32.0864" y2="34.7935" gradientUnits="userSpaceOnUse">
<stop stop-color="#8DC63F"/>
<stop offset="1" stop-color="#009444"/>
</linearGradient>
<linearGradient id="paint11_linear_1518_359" x1="10.6666" y1="32.6612" x2="17.7413" y2="32.6612" gradientUnits="userSpaceOnUse">
<stop stop-color="#F9ED32"/>
<stop offset="0.9946" stop-color="#FEC026"/>
</linearGradient>
<linearGradient id="paint12_linear_1518_359" x1="22.2142" y1="35.7283" x2="33.5878" y2="20.722" gradientUnits="userSpaceOnUse">
<stop stop-color="#922EAC"/>
<stop offset="1" stop-color="#FF27FF"/>
</linearGradient>
<linearGradient id="paint13_linear_1518_359" x1="10.6666" y1="29.5978" x2="24.816" y2="29.5978" gradientUnits="userSpaceOnUse">
<stop stop-color="#5E0092"/>
<stop offset="1" stop-color="#CC00FF"/>
</linearGradient>
<linearGradient id="paint14_linear_1518_359" x1="27.8519" y1="42.9918" x2="34.9435" y2="37.3166" gradientUnits="userSpaceOnUse">
<stop stop-color="#AD208E"/>
<stop offset="1" stop-color="#D7137A"/>
</linearGradient>
<linearGradient id="paint15_linear_1518_359" x1="-0.00151251" y1="26.3934" x2="50.0002" y2="26.3934" gradientUnits="userSpaceOnUse">
<stop stop-color="#414042"/>
<stop offset="1" stop-color="#58595B"/>
</linearGradient>
</defs>
</svg>
