<svg width="38" height="38" viewBox="0 0 38 38" fill="none" xmlns="http://www.w3.org/2000/svg">
<g clip-path="url(#clip0_102_272)">
<path d="M32.4124 32.424C39.8279 25.0084 39.8279 12.9855 32.4124 5.56993C24.9969 -1.84561 12.9739 -1.84561 5.55837 5.56993C-1.85717 12.9855 -1.85717 25.0084 5.55837 32.424C12.9739 39.8395 24.9969 39.8395 32.4124 32.424Z" fill="#FFD05D"/>
<path d="M28.9293 2.78589C30.8238 5.75011 31.9158 9.24923 31.9158 13.0158C31.9158 23.5132 23.4021 32.0047 12.927 32.0047C9.29415 32.0047 5.88418 30.9794 2.98682 29.1964C6.35221 34.4563 12.2807 37.9554 18.9892 37.9554C29.4865 37.9554 37.978 29.4416 37.978 18.9665C38.0003 12.1243 34.3675 6.129 28.9293 2.78589Z" fill="#FDC453"/>
<path d="M2.58546 20.9947C2.58546 11.2551 10.4752 3.36534 20.2148 3.36534C25.8981 3.36534 30.9796 6.06212 34.189 10.2521C31.1579 4.97004 25.4523 1.40405 18.8998 1.40405C9.16024 1.40405 1.27051 9.29379 1.27051 19.0334C1.27051 23.0897 2.63004 26.8117 4.92564 29.7759C3.43238 27.2129 2.58546 24.2041 2.58546 20.9947Z" fill="#FFD77F"/>
<path d="M14.764 16.2183C15.1485 13.849 13.5395 11.6166 11.1702 11.2321C8.80095 10.8476 6.56855 12.4566 6.18403 14.8259C5.79951 17.1952 7.40848 19.4276 9.77777 19.8121C12.1471 20.1966 14.3795 18.5876 14.764 16.2183Z" fill="white"/>
<path d="M13.5288 12.4362C12.7487 11.6561 11.6566 11.1881 10.4754 11.1881C9.67304 11.1881 8.91527 11.411 8.26894 11.7899C8.13521 11.9682 8.04606 12.1465 8.02378 12.3471C7.93463 13.2608 9.11586 14.1078 10.6314 14.2415C12.1692 14.3752 13.4842 13.7734 13.5511 12.8597C13.5956 12.7037 13.5733 12.5699 13.5288 12.4362Z" fill="#303030"/>
<path d="M30.6021 18.607C32.2993 16.9098 32.2993 14.1581 30.6021 12.4608C28.9049 10.7636 26.1531 10.7636 24.4559 12.4609C22.7587 14.1581 22.7587 16.9098 24.4559 18.607C26.1531 20.3042 28.9049 20.3042 30.6021 18.607Z" fill="white"/>
<path d="M30.5786 12.4362C29.7985 11.6561 28.7064 11.1881 27.5252 11.1881C26.7229 11.1881 25.9651 11.411 25.3187 11.7899C25.185 11.9682 25.0959 12.1465 25.0736 12.3471C24.9844 13.2608 26.1657 14.1078 27.6812 14.2415C29.219 14.3752 30.534 13.7734 30.6009 12.8597C30.6454 12.7037 30.6232 12.5699 30.5786 12.4362Z" fill="#303030"/>
<path d="M26.0766 23.3571C25.1628 22.4656 23.937 21.797 22.4883 21.4404C21.1733 21.1283 19.7469 21.1061 18.3874 21.3735C17.0502 21.641 15.7575 22.1759 14.6208 22.9336C13.4173 23.7583 12.5035 24.7389 11.8572 25.831C11.7681 26.0093 11.7903 26.2099 11.9241 26.3659C12.0132 26.455 12.1246 26.4996 12.2584 26.4996C12.3252 26.4996 12.3921 26.4773 12.459 26.455L12.8824 26.2545C13.8631 25.7641 14.7768 25.3184 15.7129 24.9395C16.7827 24.516 17.8525 24.204 18.9 23.9811C19.9921 23.7806 21.1065 23.6691 22.1986 23.6914C23.2238 23.7137 24.2936 23.8251 25.6977 24.0926C25.8983 24.1371 26.0766 24.0257 26.1657 23.8697C26.2326 23.6914 26.2103 23.4908 26.0766 23.3571Z" fill="#5E4939"/>
</g>
<defs>
<clipPath id="clip0_102_272">
<rect width="38" height="38" fill="white"/>
</clipPath>
</defs>
</svg>
