<svg width="26" height="27" viewBox="0 0 26 27" fill="none" xmlns="http://www.w3.org/2000/svg">
<path d="M3.59204 15.5037L4.32361 15.3384L3.59204 15.5037ZM3.59204 9.3645L4.32361 9.52975L3.59204 9.3645ZM20.3551 9.3645L21.0867 9.19926L20.3551 9.3645ZM20.3551 15.5037L21.0867 15.6689L20.3551 15.5037ZM14.9295 21.138L14.752 20.4093L14.9295 21.138ZM9.01767 21.138L8.84017 21.8667L9.01767 21.138ZM9.01767 3.73019L8.84017 3.0015L9.01767 3.73019ZM14.9295 3.73019L15.107 3.0015L14.9295 3.73019ZM22.2098 24.1452C22.4971 24.4436 22.9719 24.4526 23.2702 24.1652C23.5686 23.8779 23.5776 23.4031 23.2902 23.1048L22.2098 24.1452ZM4.32361 15.3384C3.89213 13.4282 3.89213 11.4399 4.32361 9.52975L2.86047 9.19925C2.37984 11.327 2.37984 13.5411 2.86047 15.6689L4.32361 15.3384ZM19.6235 9.52975C20.055 11.4399 20.055 13.4282 19.6235 15.3384L21.0867 15.6689C21.5673 13.5411 21.5673 11.327 21.0867 9.19926L19.6235 9.52975ZM14.752 20.4093C12.9244 20.8545 11.0228 20.8545 9.19517 20.4093L8.84017 21.8667C10.901 22.3687 13.0461 22.3687 15.107 21.8667L14.752 20.4093ZM9.19517 4.45889C11.0228 4.0137 12.9244 4.0137 14.752 4.45889L15.107 3.0015C13.0461 2.4995 10.901 2.4995 8.84017 3.0015L9.19517 4.45889ZM9.19517 20.4093C6.79161 19.8238 4.89509 17.8684 4.32361 15.3384L2.86047 15.6689C3.55196 18.7302 5.8595 21.1406 8.84017 21.8667L9.19517 20.4093ZM15.107 21.8667C18.0876 21.1406 20.3952 18.7302 21.0867 15.6689L19.6235 15.3384C19.0521 17.8684 17.1555 19.8238 14.752 20.4093L15.107 21.8667ZM14.752 4.45889C17.1555 5.04437 19.052 6.99974 19.6235 9.52975L21.0867 9.19926C20.3952 6.13794 18.0876 3.72756 15.107 3.0015L14.752 4.45889ZM8.84017 3.0015C5.8595 3.72756 3.55196 6.13794 2.86047 9.19925L4.32361 9.52975C4.89509 6.99974 6.7916 5.04437 9.19517 4.45889L8.84017 3.0015ZM18.2395 20.0223L22.2098 24.1452L23.2902 23.1048L19.32 18.9818L18.2395 20.0223Z" fill="#414042"/>
</svg>
