<svg width="30" height="32" viewBox="0 0 30 32" fill="none" xmlns="http://www.w3.org/2000/svg">
<g clip-path="url(#clip0_1850_1215)">
<rect x="1.07861" y="31.3585" width="31.0579" height="28.8333" rx="5" transform="rotate(-90.1541 1.07861 31.3585)" fill="url(#paint0_linear_1850_1215)"/>
<path d="M22.6228 1.21313L22.6776 21.5948L21.7765 21.5972C21.281 21.5985 20.8767 22.0364 20.8781 22.5702L20.8833 24.5113C20.8848 25.0451 21.2914 25.4808 21.787 25.4794L22.688 25.477L22.7011 30.3298C22.7025 30.8636 23.1091 31.2992 23.6047 31.2979L25.4068 31.2931C25.9023 31.2917 26.3066 30.8539 26.3052 30.3201L26.2922 25.4673L27.1932 25.4649C27.6888 25.4636 28.0931 25.0257 28.0916 24.4919L28.0864 22.5508C28.085 22.017 27.6783 21.5813 27.1828 21.5827L26.2817 21.5851L26.2269 1.20344C26.2255 0.669638 25.8188 0.233979 25.3233 0.235311L23.5212 0.240157C23.0256 0.241489 22.6213 0.679328 22.6228 1.21313ZM13.6124 1.23736L13.6255 6.09014L12.7244 6.09256C12.2288 6.09389 11.8246 6.53173 11.826 7.06554L11.8312 9.00665C11.8326 9.54045 12.2393 9.97611 12.7349 9.97478L13.6359 9.97236L13.6907 30.354C13.6921 30.8878 14.0988 31.3235 14.5943 31.3221L16.3964 31.3173C16.892 31.316 17.2963 30.8781 17.2948 30.3443L17.24 9.96267L18.1411 9.96024C18.6366 9.95891 19.0409 9.52107 19.0395 8.98727L19.0343 7.04615C19.0328 6.51235 18.6262 6.07669 18.1306 6.07802L17.2296 6.08045L17.2165 1.22767C17.2151 0.693864 16.8085 0.258206 16.3129 0.259538L14.5108 0.264383C14.0153 0.265716 13.611 0.703555 13.6124 1.23736ZM4.60204 1.26159L4.63596 13.8788L3.73492 13.8812C3.23935 13.8826 2.83506 14.3204 2.8365 14.8542L2.84172 16.7953C2.84315 17.3291 3.24979 17.7648 3.74536 17.7634L4.6464 17.761L4.68032 30.3782C4.68176 30.912 5.0884 31.3477 5.58397 31.3464L7.38604 31.3415C7.88161 31.3402 8.2859 30.9024 8.28447 30.3685L8.25055 17.7513L9.15158 17.7489C9.64715 17.7476 10.0514 17.3097 10.05 16.7759L10.0448 14.8348C10.0434 14.301 9.63671 13.8654 9.14114 13.8667L8.24011 13.8691L8.20618 1.2519C8.20475 0.718091 7.79811 0.282432 7.30254 0.283765L5.50046 0.28861C5.00489 0.289942 4.6006 0.727781 4.60204 1.26159Z" fill="white"/>
</g>
<defs>
<linearGradient id="paint0_linear_1850_1215" x1="18.3635" y1="68.9517" x2="-18.1175" y2="43.203" gradientUnits="userSpaceOnUse">
<stop stop-color="#7374E8"/>
<stop offset="1" stop-color="#EF9A9A"/>
</linearGradient>
<clipPath id="clip0_1850_1215">
<rect x="1.07861" y="31.3585" width="31.0579" height="28.8333" rx="5" transform="rotate(-90.1541 1.07861 31.3585)" fill="white"/>
</clipPath>
</defs>
</svg>
