<svg width="25" height="20" viewBox="0 0 25 20" fill="none" xmlns="http://www.w3.org/2000/svg">
<path d="M22.9999 9.24994C21.3423 9.24994 19.7526 8.59146 18.5805 7.41936C17.4084 6.24726 16.7499 4.65754 16.7499 2.99994H5.67491L5.29991 1.80827C5.25872 1.68032 5.18718 1.56423 5.09141 1.46991C4.99564 1.37559 4.87847 1.30584 4.74991 1.26661L1.33324 0.216607C1.22818 0.184324 1.1178 0.173049 1.00838 0.183427C0.898968 0.193805 0.792669 0.225632 0.695554 0.277091C0.499422 0.381017 0.352608 0.558601 0.287409 0.770774C0.22221 0.982947 0.243967 1.21233 0.347893 1.40846C0.45182 1.60459 0.629403 1.75141 0.841576 1.81661L3.83324 2.73327L7.64991 14.7916L6.29158 15.9083L6.18324 16.0166C5.84732 16.4056 5.65701 16.8992 5.64485 17.413C5.63268 17.9268 5.79944 18.4288 6.11658 18.8333C6.34371 19.1095 6.63233 19.3287 6.95936 19.4734C7.28638 19.6181 7.64274 19.6843 7.99991 19.6666H21.9082C22.1293 19.6666 22.3412 19.5788 22.4975 19.4225C22.6538 19.2663 22.7416 19.0543 22.7416 18.8333C22.7416 18.6123 22.6538 18.4003 22.4975 18.244C22.3412 18.0877 22.1293 17.9999 21.9082 17.9999H7.86658C7.77062 17.9967 7.67712 17.9687 7.59512 17.9187C7.51313 17.8688 7.4454 17.7985 7.39849 17.7147C7.35157 17.631 7.32706 17.5365 7.32731 17.4405C7.32755 17.3445 7.35256 17.2501 7.39991 17.1666L9.40824 15.4999H22.2666C22.4569 15.5055 22.6435 15.4457 22.7951 15.3304C22.9467 15.2152 23.0543 15.0515 23.0999 14.8666L24.5249 9.03327C24.0275 9.16818 23.5152 9.24096 22.9999 9.24994Z" fill="#414042"/>
</svg>
