<svg width="40" height="43" viewBox="0 0 40 43" fill="none" xmlns="http://www.w3.org/2000/svg">
<path d="M28.3332 6.85066H27.4998V5.97404C27.4998 5.49014 27.1265 5.09741 26.6665 5.09741C26.2065 5.09741 25.8332 5.49014 25.8332 5.97404V6.85066H14.1665V5.97404C14.1665 5.49014 13.7932 5.09741 13.3332 5.09741C12.8732 5.09741 12.4998 5.49014 12.4998 5.97404V6.85066H11.6665C7.5315 6.85066 4.1665 10.3905 4.1665 14.7403V30.5195C4.1665 34.8693 7.5315 38.4091 11.6665 38.4091H28.3332C32.4682 38.4091 35.8332 34.8693 35.8332 30.5195V14.7403C35.8332 10.3887 32.4682 6.85066 28.3332 6.85066ZM11.6665 8.60391H12.4998V11.2338C12.4998 11.7177 12.8732 12.1104 13.3332 12.1104C13.7932 12.1104 14.1665 11.7177 14.1665 11.2338V8.60391H25.8332V11.2338C25.8332 11.7177 26.2065 12.1104 26.6665 12.1104C27.1265 12.1104 27.4998 11.7177 27.4998 11.2338V8.60391H28.3332C31.5498 8.60391 34.1665 11.3565 34.1665 14.7403V15.6169H5.83317V14.7403C5.83317 11.3565 8.44984 8.60391 11.6665 8.60391ZM28.3332 36.6559H11.6665C8.44984 36.6559 5.83317 33.9033 5.83317 30.5195V17.3701H34.1665V30.5195C34.1665 33.9015 31.5498 36.6559 28.3332 36.6559ZM28.3332 23.5065C28.3332 24.4743 27.5865 25.2598 26.6665 25.2598C25.7465 25.2598 24.9998 24.4743 24.9998 23.5065C24.9998 22.5387 25.7465 21.7533 26.6665 21.7533C27.5865 21.7533 28.3332 22.537 28.3332 23.5065ZM21.6665 23.5065C21.6665 24.4743 20.9198 25.2598 19.9998 25.2598C19.0798 25.2598 18.3332 24.4743 18.3332 23.5065C18.3332 22.5387 19.0798 21.7533 19.9998 21.7533C20.9198 21.7533 21.6665 22.537 21.6665 23.5065ZM14.9998 23.5065C14.9998 24.4743 14.2532 25.2598 13.3332 25.2598C12.4132 25.2598 11.6665 24.4743 11.6665 23.5065C11.6665 22.5387 12.4132 21.7533 13.3332 21.7533C14.2532 21.7533 14.9998 22.537 14.9998 23.5065ZM28.3332 30.5195C28.3332 31.4873 27.5865 32.2727 26.6665 32.2727C25.7465 32.2727 24.9998 31.4873 24.9998 30.5195C24.9998 29.5517 25.7465 28.7663 26.6665 28.7663C27.5865 28.7663 28.3332 29.55 28.3332 30.5195ZM21.6665 30.5195C21.6665 31.4873 20.9198 32.2727 19.9998 32.2727C19.0798 32.2727 18.3332 31.4873 18.3332 30.5195C18.3332 29.5517 19.0798 28.7663 19.9998 28.7663C20.9198 28.7663 21.6665 29.55 21.6665 30.5195ZM14.9998 30.5195C14.9998 31.4873 14.2532 32.2727 13.3332 32.2727C12.4132 32.2727 11.6665 31.4873 11.6665 30.5195C11.6665 29.5517 12.4132 28.7663 13.3332 28.7663C14.2532 28.7663 14.9998 29.55 14.9998 30.5195Z" fill="white"/>
</svg>
