<svg width="42" height="35" viewBox="0 0 42 35" fill="none" xmlns="http://www.w3.org/2000/svg">
<g clip-path="url(#clip0_698_187)">
<path d="M7.44872 21C6.11226 21 4.99637 21.9079 4.69908 23.1212H2.65385C2.29292 23.1212 2 23.4063 2 23.7576C2 24.1088 2.29292 24.3939 2.65385 24.3939H4.69908C4.99637 25.6073 6.11226 26.5152 7.44872 26.5152C9.01097 26.5152 10.2821 25.2781 10.2821 23.7576C10.2821 22.2371 9.01097 21 7.44872 21ZM7.44872 25.2424C6.60744 25.2424 5.92308 24.5764 5.92308 23.7576C5.92308 22.9388 6.60744 22.2727 7.44872 22.2727C8.29 22.2727 8.97436 22.9388 8.97436 23.7576C8.97436 24.5764 8.29 25.2424 7.44872 25.2424ZM12.4615 23.7576C12.4615 23.4063 12.7545 23.1212 13.1154 23.1212H18.3462C18.7071 23.1212 19 23.4063 19 23.7576C19 24.1088 18.7071 24.3939 18.3462 24.3939H13.1154C12.7545 24.3939 12.4615 24.1088 12.4615 23.7576ZM18.3462 31.6061H16.3009C16.0036 30.3927 14.8877 29.4848 13.5513 29.4848C11.989 29.4848 10.7179 30.7219 10.7179 32.2424C10.7179 33.7629 11.989 35 13.5513 35C14.8877 35 16.0036 34.0921 16.3009 32.8788H18.3462C18.7071 32.8788 19 32.5937 19 32.2424C19 31.8912 18.7071 31.6061 18.3462 31.6061ZM13.5513 33.7273C12.71 33.7273 12.0256 33.0612 12.0256 32.2424C12.0256 31.4236 12.71 30.7576 13.5513 30.7576C14.3926 30.7576 15.0769 31.4236 15.0769 32.2424C15.0769 33.0612 14.3926 33.7273 13.5513 33.7273ZM8.53846 32.2424C8.53846 32.5937 8.24554 32.8788 7.88462 32.8788H2.65385C2.29292 32.8788 2 32.5937 2 32.2424C2 31.8912 2.29292 31.6061 2.65385 31.6061H7.88462C8.24554 31.6061 8.53846 31.8912 8.53846 32.2424Z" fill="white"/>
<path d="M27.4487 21C26.1123 21 24.9964 21.9079 24.6991 23.1212H22.6538C22.2929 23.1212 22 23.4063 22 23.7576C22 24.1088 22.2929 24.3939 22.6538 24.3939H24.6991C24.9964 25.6073 26.1123 26.5152 27.4487 26.5152C29.011 26.5152 30.2821 25.2781 30.2821 23.7576C30.2821 22.2371 29.011 21 27.4487 21ZM27.4487 25.2424C26.6074 25.2424 25.9231 24.5764 25.9231 23.7576C25.9231 22.9388 26.6074 22.2727 27.4487 22.2727C28.29 22.2727 28.9744 22.9388 28.9744 23.7576C28.9744 24.5764 28.29 25.2424 27.4487 25.2424ZM32.4615 23.7576C32.4615 23.4063 32.7545 23.1212 33.1154 23.1212H38.3462C38.7071 23.1212 39 23.4063 39 23.7576C39 24.1088 38.7071 24.3939 38.3462 24.3939H33.1154C32.7545 24.3939 32.4615 24.1088 32.4615 23.7576ZM38.3462 31.6061H36.3009C36.0036 30.3927 34.8877 29.4848 33.5513 29.4848C31.989 29.4848 30.7179 30.7219 30.7179 32.2424C30.7179 33.7629 31.989 35 33.5513 35C34.8877 35 36.0036 34.0921 36.3009 32.8788H38.3462C38.7071 32.8788 39 32.5937 39 32.2424C39 31.8912 38.7071 31.6061 38.3462 31.6061ZM33.5513 33.7273C32.71 33.7273 32.0256 33.0612 32.0256 32.2424C32.0256 31.4236 32.71 30.7576 33.5513 30.7576C34.3926 30.7576 35.0769 31.4236 35.0769 32.2424C35.0769 33.0612 34.3926 33.7273 33.5513 33.7273ZM28.5385 32.2424C28.5385 32.5937 28.2455 32.8788 27.8846 32.8788H22.6538C22.2929 32.8788 22 32.5937 22 32.2424C22 31.8912 22.2929 31.6061 22.6538 31.6061H27.8846C28.2455 31.6061 28.5385 31.8912 28.5385 32.2424Z" fill="white"/>
<path d="M19.5959 3.4595C18.5048 2.13562 16.9884 1.40674 15.3242 1.40674C14.3232 1.40674 13.3554 1.64997 12.4997 2.11372C11.6448 1.64997 10.6771 1.40674 9.67519 1.40674C8.01094 1.40674 6.4937 2.13562 5.40345 3.4595C4.21695 4.89975 3.7252 6.86675 4.08657 8.72087C4.9397 13.0924 9.39169 16.1461 11.2668 17.2556C11.6474 17.4805 12.0736 17.5934 12.4997 17.5934C12.9258 17.5934 13.3528 17.4814 13.7334 17.2556C15.6077 16.1453 20.0606 13.0924 20.9137 8.72087C21.2742 6.86675 20.7824 4.89975 19.5959 3.4595ZM19.6248 8.46976C18.8741 12.3189 14.7869 15.1066 13.0641 16.126C12.7167 16.3325 12.2827 16.3316 11.9353 16.126C10.2124 15.1066 6.12531 12.3189 5.37456 8.46976C5.08668 6.99626 5.47694 5.43523 6.41581 4.29423C7.25319 3.27835 8.40994 2.71924 9.67519 2.71924C10.5659 2.71924 11.4199 2.96424 12.1462 3.42799C12.3614 3.56536 12.6379 3.56536 12.8532 3.42799C13.5794 2.96424 14.4334 2.71924 15.3242 2.71924C16.5886 2.71924 17.7462 3.27835 18.5836 4.29423C19.5224 5.43523 19.9118 6.99538 19.6248 8.46976Z" fill="white"/>
<path d="M23.25 4.54175C23.25 4.2485 23.586 4.0105 24 4.0105H37C37.414 4.0105 37.75 4.2485 37.75 4.54175C37.75 4.835 37.414 5.073 37 5.073H24C23.586 5.073 23.25 4.835 23.25 4.54175ZM42 8.96883H24C23.586 8.96883 23.25 9.20683 23.25 9.50008C23.25 9.79333 23.586 10.0313 24 10.0313H42C42.414 10.0313 42.75 9.79333 42.75 9.50008C42.75 9.20683 42.414 8.96883 42 8.96883ZM33 13.9272H24C23.586 13.9272 23.25 14.1652 23.25 14.4584C23.25 14.7517 23.586 14.9897 24 14.9897H33C33.414 14.9897 33.75 14.7517 33.75 14.4584C33.75 14.1652 33.414 13.9272 33 13.9272Z" fill="white"/>
</g>
<defs>
<clipPath id="clip0_698_187">
<rect width="42" height="35" fill="white"/>
</clipPath>
</defs>
</svg>
