<svg width="42" height="47" viewBox="0 0 42 47" fill="none" xmlns="http://www.w3.org/2000/svg">
<g filter="url(#filter0_d_114_291)">
<path d="M32.5319 30.5379C32.339 30.3812 27.7631 26.7161 23.7529 27.8845C23.652 27.9139 23.5619 27.9777 23.4955 28.0669C23.4221 28.1655 21.8729 30.265 21.5456 32.2141C20.6483 31.9221 18.6801 31.0611 16.5627 28.7162C14.9092 26.8847 14.1056 25.3423 13.7225 24.3707C13.5307 23.8841 13.4226 23.4889 13.3619 23.2053C15.1339 22.8618 17.0586 21.1196 17.1482 21.0377C17.2288 20.9641 17.2863 20.8644 17.3129 20.7527C18.3685 16.3124 15.0583 11.2442 14.9169 11.0306C14.8368 10.9096 14.7157 10.8301 14.5816 10.8101C13.9439 10.7153 13.2981 10.6727 12.6639 10.6839C10.1723 10.7292 7.89431 11.882 6.24957 13.93C6.06681 14.1576 6.08528 14.5062 6.29074 14.7086C6.49621 14.911 6.81105 14.8905 6.99381 14.663C8.06857 13.3247 9.44927 12.4185 10.9862 12.0184C13.3099 15.6811 13.842 20.5015 13.9496 21.8791C13.5448 22.05 13.1443 22.1607 12.7869 22.1607C12.653 22.1607 12.5247 22.2205 12.4311 22.3264C12.3374 22.4323 12.2862 22.5755 12.289 22.7238C12.2912 22.8413 12.3837 25.6471 15.8584 29.4959C18.96 32.9307 21.7922 33.4229 21.9112 33.4422C22.0544 33.4654 22.1995 33.4185 22.3089 33.3137C22.4183 33.209 22.4812 33.0567 22.4812 32.8965C22.4812 32.5013 22.5815 32.0577 22.7363 31.6089C23.9796 31.7271 28.3274 32.3132 31.6399 34.8909C31.201 36.9625 30.0888 38.7687 28.4497 40.0062C26.3175 41.6159 23.7024 41.9629 21.275 40.9583C17.79 39.5168 14.5839 37.1923 11.7459 34.0494C8.9091 30.9078 6.81006 27.3573 5.50712 23.4966C4.70498 21.1185 4.85313 18.585 5.9241 16.3629C6.05367 16.0942 5.96189 15.7601 5.71923 15.6167C5.47671 15.4732 5.17488 15.5748 5.04545 15.8435C3.83795 18.3488 3.67053 21.2038 4.57402 23.8827C5.92722 27.8923 8.1033 31.5753 11.0415 34.8293C13.9812 38.0847 17.3069 40.4944 20.9263 41.9916C21.9551 42.4174 23.0135 42.6276 24.0621 42.6275C25.8006 42.6274 27.5116 42.0493 29.0107 40.9176C31.3996 39.1143 32.797 36.2407 32.8449 33.034C32.8555 32.3361 32.8172 31.6214 32.731 30.9093C32.713 30.7606 32.6412 30.6266 32.5319 30.5379ZM12.0694 11.8233C12.271 11.8028 12.4746 11.7905 12.6798 11.7868C13.1934 11.778 13.715 11.8069 14.233 11.8734C14.7934 12.7921 17.1006 16.8503 16.3881 20.2992C16.0609 20.5829 15.5181 21.0066 14.9099 21.3781C14.7451 19.6029 14.1482 15.359 12.0694 11.8233ZM23.1891 30.546C23.5245 29.8726 23.9067 29.2713 24.1627 28.9086C27.2774 28.1205 30.942 30.6751 31.7709 31.2952C31.8314 31.873 31.8576 32.4506 31.8491 33.0155C31.8457 33.2427 31.8338 33.4677 31.8153 33.6908C28.6233 31.3897 24.7922 30.7285 23.1891 30.546Z" fill="white"/>
<path d="M37.7305 7.45876C37.612 6.25539 36.7338 5.32089 35.6429 5.23676C32.0508 4.95715 28.4085 4.90052 24.8174 5.0682C23.9127 5.10946 22.997 5.16623 22.0963 5.23668C21.005 5.32074 20.1263 6.2551 20.007 7.45847C19.6477 11.0898 19.6474 14.7734 20.0063 18.4072C20.1257 19.6125 21.0042 20.5491 22.0973 20.6342L22.1687 20.6395C22.2164 20.6432 22.2639 20.6469 22.3062 20.6495C22.5623 20.6688 22.7629 20.9064 22.7629 21.1905V23.3656C22.7629 23.9152 23.0391 24.4083 23.4838 24.6524C23.6678 24.7533 23.8649 24.8031 24.0608 24.803C24.3382 24.803 24.6133 24.7032 24.8448 24.508C25.8148 23.6897 27.1443 22.4384 27.9694 21.124C28.0594 20.9804 28.2099 20.8949 28.3716 20.8949H28.3737C29.9851 20.9044 31.6154 20.8684 33.2183 20.7876C33.493 20.7738 33.7057 20.5159 33.6931 20.2117C33.6806 19.9073 33.4466 19.6716 33.173 19.6858C31.5869 19.7656 29.9746 19.8014 28.3783 19.7918C28.3763 19.7918 28.3743 19.7918 28.3721 19.7918C27.8834 19.7918 27.4273 20.0544 27.1514 20.4947C26.4005 21.6909 25.1544 22.8602 24.2413 23.6304C24.1073 23.7434 23.9761 23.6915 23.926 23.664C23.8758 23.6364 23.7589 23.5521 23.7589 23.3655V21.1904C23.7589 20.3284 23.1504 19.6074 22.3683 19.5486C22.3248 19.5459 22.2814 19.5425 22.2377 19.5391L22.1649 19.5336C21.5546 19.4861 21.0631 18.9617 20.9963 18.2869C20.6453 14.7331 20.6454 11.1302 20.9969 7.57864C21.0637 6.90617 21.555 6.38394 22.1659 6.3368C23.0575 6.26701 23.9633 6.2109 24.8588 6.17001C28.4132 6.00395 32.0178 6.06006 35.5733 6.3368C36.1832 6.38387 36.674 6.90587 36.7403 7.57842C37.0919 11.1329 37.0919 14.7374 36.7403 18.2919C36.7267 18.4296 36.695 18.5631 36.6461 18.6892C36.4589 19.173 36.0475 19.4965 35.5732 19.5335L35.5375 19.5362C35.4048 19.5462 35.2726 19.5563 35.1398 19.5657C34.8654 19.5851 34.657 19.8473 34.6746 20.1512C34.692 20.4552 34.9281 20.6863 35.2033 20.6664C35.3376 20.657 35.4713 20.6468 35.6055 20.6367L35.6421 20.6339C36.4913 20.5678 37.2268 19.9891 37.5614 19.1242C37.6492 18.898 37.706 18.6584 37.7304 18.4121C38.09 14.778 38.09 11.0926 37.7305 7.45876Z" fill="white"/>
<path d="M30.7915 18.4899C30.8396 18.4899 30.8878 18.4886 30.936 18.4862C31.7517 18.4452 32.5064 18.061 33.0612 17.4046L33.0973 17.3617C33.6498 16.7025 33.9429 15.8417 33.9224 14.9378C33.902 14.0372 33.5729 13.1924 32.9957 12.5592C31.8196 11.2692 30.5925 10.0026 29.3485 8.79468C28.7376 8.20141 27.954 7.89702 27.1407 7.93798C26.3252 7.97895 25.5704 8.36313 25.0158 9.01935L24.9794 9.06245C24.427 9.72161 24.1339 10.5824 24.1543 11.4863C24.1747 12.387 24.5038 13.2318 25.0811 13.865C26.2566 15.1544 27.4837 16.421 28.7283 17.6295C29.303 18.1875 30.0308 18.4899 30.7915 18.4899ZM25.7095 9.8128L25.7425 9.77353C26.514 8.86094 27.8369 8.79394 28.6918 9.62409C29.1824 10.1004 29.67 10.5863 30.1531 11.0788L27.1951 14.5934C26.7175 14.0944 26.2455 13.5898 25.782 13.0813C24.9742 12.1953 24.9417 10.729 25.7095 9.8128ZM27.9237 15.3455L30.8818 11.8309C31.3593 12.3298 31.8312 12.8344 32.2948 13.3428C33.1026 14.229 33.1352 15.6953 32.3675 16.6111L32.3343 16.6507C31.5629 17.5633 30.24 17.6304 29.385 16.8002C28.8943 16.3238 28.4067 15.838 27.9237 15.3455Z" fill="white"/>
</g>
<defs>
<filter id="filter0_d_114_291" x="0" y="0.974121" width="42" height="45.6533" filterUnits="userSpaceOnUse" color-interpolation-filters="sRGB">
<feFlood flood-opacity="0" result="BackgroundImageFix"/>
<feColorMatrix in="SourceAlpha" type="matrix" values="0 0 0 0 0 0 0 0 0 0 0 0 0 0 0 0 0 0 127 0" result="hardAlpha"/>
<feOffset/>
<feGaussianBlur stdDeviation="2"/>
<feComposite in2="hardAlpha" operator="out"/>
<feColorMatrix type="matrix" values="0 0 0 0 0 0 0 0 0 0 0 0 0 0 0 0 0 0 0.25 0"/>
<feBlend mode="normal" in2="BackgroundImageFix" result="effect1_dropShadow_114_291"/>
<feBlend mode="normal" in="SourceGraphic" in2="effect1_dropShadow_114_291" result="shape"/>
</filter>
</defs>
</svg>
