<svg width="66" height="66" viewBox="0 0 66 66" fill="none" xmlns="http://www.w3.org/2000/svg">
<g filter="url(#filter0_d_114_422)">
<path d="M16.125 50.9984C16.4361 50.9984 16.6875 50.747 16.6875 50.4359V49.312C16.6875 48.0711 17.6966 47.062 18.9375 47.062H20.355L22.4357 49.6636C22.4475 49.6782 22.4661 49.6844 22.479 49.6979C22.4953 49.7148 22.5049 49.7361 22.5234 49.7513C22.5471 49.7705 22.5752 49.7795 22.6005 49.7941C22.6207 49.8053 22.6388 49.8183 22.6601 49.8273C22.7293 49.856 22.8013 49.8751 22.8744 49.8751H22.875H22.8756C22.9487 49.8751 23.0207 49.856 23.0904 49.8273C23.1107 49.8183 23.1281 49.8065 23.1478 49.7952C23.1742 49.7806 23.2029 49.771 23.2271 49.7519C23.2468 49.7361 23.2569 49.7142 23.2733 49.6962C23.2856 49.6833 23.3031 49.6782 23.3143 49.6636L25.4001 47.062H26.8125C28.0534 47.062 29.0625 48.0711 29.0625 49.312V50.4359C29.0625 50.747 29.3139 50.9984 29.625 50.9984C29.9361 50.9984 30.1875 50.747 30.1875 50.4359V49.312C30.1875 47.4507 28.6738 45.937 26.8125 45.937H25.6875V44.6129C27.3654 43.6386 28.5 41.8263 28.5 39.7501V39.587C28.8555 40.1219 29.0636 40.7631 29.0636 41.4522C29.0636 41.7633 29.3151 42.0147 29.6261 42.0147C29.9372 42.0147 30.1886 41.7633 30.1886 41.4522C30.1886 41.4511 30.1886 41.45 30.1886 41.4488C30.1886 41.4483 30.1886 41.4483 30.1886 41.4477V36.662C30.1886 36.6591 30.1869 36.6569 30.1869 36.6546C30.183 33.0918 27.2839 30.1943 23.7204 30.1943C21.984 30.1943 20.4107 30.8013 19.2553 31.8965C18.1354 32.0208 17.2579 32.9596 17.2523 34.111C17.2523 34.115 17.25 34.1183 17.25 34.1223V39.7501C17.25 41.8263 18.3846 43.6392 20.0625 44.6135V45.937H18.9375C17.0762 45.937 15.5625 47.4507 15.5625 49.312V50.4359C15.5625 50.747 15.8139 50.9984 16.125 50.9984ZM29.0625 36.6631C29.0625 36.6653 29.0636 36.6665 29.0636 36.6687V38.4845C28.2525 37.5614 27.0735 36.9725 25.7561 36.9516C25.7331 36.9483 25.7128 36.9376 25.6892 36.9376H21.1999C21.1959 36.9376 21.1926 36.9353 21.1886 36.9353C20.5682 36.9353 20.0642 36.4302 20.0642 35.8092C20.0642 35.8064 20.0625 35.8036 20.0625 35.8008L20.0636 32.6806C21.0064 31.8042 22.2928 31.3199 23.7204 31.3199C26.6657 31.3205 29.0625 33.7167 29.0625 36.6631ZM18.9386 33.1542L18.9375 35.8115C18.9375 36.2255 18.7097 36.5849 18.375 36.7801V34.1285C18.375 34.1262 18.3761 34.1251 18.3761 34.1228C18.3761 33.7088 18.6039 33.35 18.9386 33.1542ZM18.375 39.7506V37.9816C18.8199 37.8657 19.2075 37.6182 19.5017 37.2824C19.9101 37.7498 20.5013 38.0519 21.1678 38.0581C21.1757 38.0586 21.1813 38.0626 21.1892 38.0626H25.6358C25.6526 38.0643 25.6673 38.0727 25.6847 38.0727C26.3012 38.0727 26.8772 38.2415 27.375 38.5306V39.7506C27.375 42.2313 25.3556 44.2495 22.8739 44.2495C20.3932 44.2495 18.375 42.2313 18.375 39.7506ZM22.8739 45.3745C23.4623 45.3745 24.0293 45.2828 24.5625 45.1146V46.3077L22.8756 48.4115L21.1875 46.301V45.1152C21.7202 45.2834 22.2866 45.3745 22.8739 45.3745Z" fill="white"/>
<path d="M30.915 29.4702C31.0207 29.576 31.1636 29.6351 31.3126 29.6351H31.3132L39.659 29.6283L42.948 30.7241C43.0065 30.7437 43.0661 30.7533 43.1257 30.7533C43.2421 30.7533 43.3575 30.7173 43.4542 30.6476C43.601 30.5418 43.6882 30.3725 43.6882 30.1914L43.6888 29.6283H44.8132C45.1243 29.6283 45.3757 29.3769 45.3757 29.0658V15.563C45.3757 15.2519 45.1243 15.0005 44.8132 15.0005H31.3126C31.0016 15.0005 30.7501 15.2519 30.7501 15.563V18.9419H22.874C22.563 18.9419 22.3115 19.1934 22.3115 19.5044V26.8147C22.3115 27.1257 22.563 27.3772 22.874 27.3772H23.999V27.9397C23.999 28.1264 24.0918 28.3008 24.246 28.4054C24.3405 28.469 24.4501 28.5022 24.5615 28.5022C24.6324 28.5022 24.7033 28.4892 24.7702 28.4622L27.4815 27.3772L30.7501 27.3828V29.0726C30.7501 29.2216 30.8092 29.3645 30.915 29.4702ZM31.8751 16.1255H44.2507V28.5033H43.1268C42.8163 28.5033 42.5649 28.7547 42.5643 29.0652L42.5638 29.4106L39.9279 28.532C39.87 28.5129 39.8103 28.5027 39.7501 28.5027H39.7496L31.8751 28.5095V16.1255ZM27.3751 26.2522C27.3746 26.2522 27.3746 26.2522 27.374 26.2522C27.3026 26.2522 27.2317 26.2657 27.1653 26.2921L25.124 27.1089V26.8147C25.124 26.5036 24.8726 26.2522 24.5615 26.2522H23.4365V20.0669H30.7501V26.2578L27.3751 26.2522Z" fill="white"/>
<path d="M39.192 31.3136C38.2616 31.3136 37.5045 32.0707 37.5045 33.0011V37.4774C37.5039 37.4853 37.5 37.4915 37.5 37.4994V39.728C37.5 39.7325 37.5023 39.7359 37.5023 39.7398C37.5023 39.7437 37.5 39.7471 37.5 39.7516C37.5 41.8278 38.634 43.6407 40.3125 44.615V45.9374H39.1875C37.3262 45.9374 35.8125 47.4511 35.8125 49.3124V50.4357C35.8125 50.7468 36.0639 50.9982 36.375 50.9982C36.6861 50.9982 36.9375 50.7468 36.9375 50.4357V49.3124C36.9375 48.0715 37.9466 47.0624 39.1875 47.0624H40.4503L41.4589 50.591C41.5297 50.8379 41.7548 50.9994 41.9994 50.9994C42.0512 50.9994 42.1029 50.992 42.1541 50.978C42.4528 50.8925 42.6261 50.5809 42.5411 50.2827L41.766 47.5704C41.7682 47.5715 41.7711 47.5709 41.7733 47.572C41.8442 47.6035 41.9196 47.6249 41.9977 47.6249C41.9983 47.6249 41.9989 47.6255 41.9994 47.6255H42H42.0006C42.0011 47.6255 42.0017 47.6249 42.0023 47.6249C42.081 47.6249 42.1558 47.6035 42.2267 47.572C42.2351 47.5681 42.2436 47.5698 42.2514 47.5659L43.125 47.1288L43.9986 47.5653C44.0064 47.5692 44.0149 47.5675 44.0233 47.5715C44.0942 47.603 44.1696 47.6244 44.2477 47.6244C44.2483 47.6244 44.2489 47.6249 44.2494 47.6249H44.25H44.2506C44.2511 47.6249 44.2517 47.6244 44.2523 47.6244C44.331 47.6244 44.4058 47.603 44.4767 47.5715C44.4789 47.5704 44.4818 47.5709 44.484 47.5698L43.7089 50.2822C43.6239 50.5803 43.7966 50.8919 44.0959 50.9774C44.1476 50.9915 44.1994 50.9988 44.2506 50.9988C44.4952 50.9988 44.7203 50.8379 44.7911 50.5904L45.7997 47.0624H47.0625C48.3034 47.0624 49.3125 48.0715 49.3125 49.3124V50.4357C49.3125 50.7468 49.5639 50.9982 49.875 50.9982C50.1861 50.9982 50.4375 50.7468 50.4375 50.4357V49.3124C50.4375 47.4511 48.9238 45.9374 47.0625 45.9374H45.9375V44.6139C47.616 43.6402 48.75 41.8272 48.75 39.751V39.7505V39.7499V37.5635C48.7511 37.55 48.7584 37.5371 48.7584 37.523V33.0005C48.7584 32.0701 48.0013 31.313 47.0709 31.313H39.192V31.3136ZM44.8125 46.1523L44.25 46.4335L43.3764 45.997C43.3641 45.9909 43.35 45.9914 43.3376 45.9864C43.3022 45.9717 43.2662 45.9644 43.2291 45.9571C43.1936 45.9504 43.1604 45.9436 43.125 45.9436C43.0896 45.9436 43.0564 45.9509 43.0209 45.9571C42.9838 45.9644 42.9473 45.9712 42.9124 45.9864C42.9 45.9914 42.8859 45.9909 42.8736 45.997L42 46.4335L41.4375 46.1523V45.1162C41.9702 45.2844 42.5366 45.3755 43.1244 45.3755C43.7123 45.3755 44.2793 45.2844 44.8125 45.1162V46.1523ZM43.1244 44.2505C40.6433 44.2505 38.625 42.2322 38.625 39.7516C38.625 39.7471 38.6227 39.7437 38.6227 39.7398C38.6227 39.7353 38.625 39.7319 38.625 39.728V38.0861H47.625V39.7505V39.751V39.7516C47.625 42.2322 45.6062 44.2505 43.1244 44.2505ZM47.6334 33.0011V36.9611H38.6295V33.0011C38.6295 32.6906 38.8815 32.4386 39.192 32.4386H47.0709C47.3809 32.4386 47.6334 32.6906 47.6334 33.0011Z" fill="white"/>
<path d="M44.2487 34.1367H43.6856V33.5635C43.6856 33.2524 43.4342 33.001 43.1231 33.001C42.8121 33.001 42.5606 33.2524 42.5606 33.5635V34.1367H41.9976C41.6865 34.1367 41.4351 34.3881 41.4351 34.6992C41.4351 35.0102 41.6865 35.2617 41.9976 35.2617H42.5606V35.8202C42.5606 36.1313 42.8121 36.3827 43.1231 36.3827C43.4342 36.3827 43.6856 36.1313 43.6856 35.8202V35.2617H44.2487C44.5597 35.2617 44.8112 35.0102 44.8112 34.6992C44.8112 34.3881 44.5597 34.1367 44.2487 34.1367Z" fill="white"/>
<path d="M42.5625 22.313C42.5625 19.8318 40.5437 17.813 38.0625 17.813C35.5813 17.813 33.5625 19.8318 33.5625 22.313C33.5625 24.7942 35.5813 26.813 38.0625 26.813C40.5437 26.813 42.5625 24.7942 42.5625 22.313ZM38.0625 25.688C36.2012 25.688 34.6875 24.1743 34.6875 22.313C34.6875 20.4517 36.2012 18.938 38.0625 18.938C39.9238 18.938 41.4375 20.4517 41.4375 22.313C41.4375 24.1743 39.9238 25.688 38.0625 25.688Z" fill="white"/>
<path d="M39.75 21.7495H38.625V20.6245C38.625 20.3134 38.3736 20.062 38.0625 20.062C37.7514 20.062 37.5 20.3134 37.5 20.6245V21.7495H36.375C36.0639 21.7495 35.8125 22.001 35.8125 22.312C35.8125 22.6231 36.0639 22.8745 36.375 22.8745H37.5V23.9995C37.5 24.3106 37.7514 24.562 38.0625 24.562C38.3736 24.562 38.625 24.3106 38.625 23.9995V22.8745H39.75C40.0611 22.8745 40.3125 22.6231 40.3125 22.312C40.3125 22.001 40.0611 21.7495 39.75 21.7495Z" fill="white"/>
</g>
<defs>
<filter id="filter0_d_114_422" x="0" y="0" width="66" height="66" filterUnits="userSpaceOnUse" color-interpolation-filters="sRGB">
<feFlood flood-opacity="0" result="BackgroundImageFix"/>
<feColorMatrix in="SourceAlpha" type="matrix" values="0 0 0 0 0 0 0 0 0 0 0 0 0 0 0 0 0 0 127 0" result="hardAlpha"/>
<feOffset/>
<feGaussianBlur stdDeviation="7.5"/>
<feComposite in2="hardAlpha" operator="out"/>
<feColorMatrix type="matrix" values="0 0 0 0 0 0 0 0 0 0 0 0 0 0 0 0 0 0 0.25 0"/>
<feBlend mode="normal" in2="BackgroundImageFix" result="effect1_dropShadow_114_422"/>
<feBlend mode="normal" in="SourceGraphic" in2="effect1_dropShadow_114_422" result="shape"/>
</filter>
</defs>
</svg>
