<svg width="36" height="44" viewBox="0 0 36 44" fill="none" xmlns="http://www.w3.org/2000/svg">
<g filter="url(#filter0_d_114_248)">
<path d="M17.9998 5.82544C17.0958 5.82544 16.3604 6.56091 16.3604 7.46492C16.3604 8.36892 17.0958 9.10439 17.9998 9.10439C18.9039 9.10439 19.6393 8.36892 19.6393 7.46492C19.6393 6.56091 18.9039 5.82544 17.9998 5.82544ZM17.9998 8.04964C17.6774 8.04964 17.415 7.7873 17.415 7.46485C17.415 7.14239 17.6774 6.88006 17.9998 6.88006C18.3223 6.88006 18.5846 7.14239 18.5846 7.46485C18.5846 7.7873 18.3223 8.04964 17.9998 8.04964Z" fill="white"/>
<path d="M13.1387 9.7605C12.8474 9.7605 12.6113 9.99661 12.6113 10.2878V11.1677C12.6113 11.459 12.8474 11.6951 13.1387 11.6951C13.4299 11.6951 13.666 11.459 13.666 11.1677V10.2878C13.666 9.99661 13.4299 9.7605 13.1387 9.7605Z" fill="white"/>
<path d="M22.8613 9.7605C22.5701 9.7605 22.334 9.99661 22.334 10.2878V11.1677C22.334 11.459 22.5701 11.6951 22.8613 11.6951C23.1526 11.6951 23.3887 11.459 23.3887 11.1677V10.2878C23.3887 9.99661 23.1526 9.7605 22.8613 9.7605Z" fill="white"/>
<path d="M19.5472 10.7094C19.3279 10.5177 18.9948 10.5401 18.803 10.7594C18.6083 10.9821 18.3157 11.1099 18.0002 11.1099C17.6847 11.1099 17.3921 10.9822 17.1974 10.7594C17.0057 10.5401 16.6726 10.5177 16.4533 10.7094C16.2339 10.9012 16.2116 11.2343 16.4033 11.4536C16.7983 11.9055 17.3804 12.1647 18.0002 12.1647C18.62 12.1647 19.2021 11.9055 19.5971 11.4536C19.7888 11.2343 19.7665 10.9011 19.5472 10.7094Z" fill="white"/>
<path d="M23.8126 25.1975H12.187C11.8958 25.1975 11.6597 25.4336 11.6597 25.7249C11.6597 26.0162 11.8958 26.2522 12.187 26.2522H23.8126C24.1039 26.2522 24.34 26.0162 24.34 25.7249C24.34 25.4336 24.1039 25.1975 23.8126 25.1975Z" fill="white"/>
<path d="M23.8126 28.3806H12.187C11.8958 28.3806 11.6597 28.6167 11.6597 28.908C11.6597 29.1993 11.8958 29.4353 12.187 29.4353H23.8126C24.1039 29.4353 24.34 29.1993 24.34 28.908C24.34 28.6167 24.1039 28.3806 23.8126 28.3806Z" fill="white"/>
<path d="M23.8126 31.564H12.187C11.8958 31.564 11.6597 31.8001 11.6597 32.0913C11.6597 32.3825 11.8958 32.6187 12.187 32.6187H23.8126C24.1039 32.6187 24.34 32.3825 24.34 32.0913C24.34 31.8001 24.1039 31.564 23.8126 31.564Z" fill="white"/>
<path d="M20.9826 18.1875H19.6393V16.8442C19.6393 16.5529 19.4032 16.3169 19.112 16.3169H16.8877C16.5965 16.3169 16.3603 16.5529 16.3603 16.8442V18.1875H15.0171C14.7259 18.1875 14.4897 18.4236 14.4897 18.7148V20.9392C14.4897 21.2304 14.7259 21.4665 15.0171 21.4665H16.3603V22.8098C16.3603 23.101 16.5965 23.3371 16.8877 23.3371H19.112C19.4032 23.3371 19.6393 23.101 19.6393 22.8098V21.4665H20.9826C21.2738 21.4665 21.5099 21.2304 21.5099 20.9392V18.7148C21.5099 18.4236 21.2738 18.1875 20.9826 18.1875ZM20.4552 20.4118H19.112C18.8207 20.4118 18.5846 20.6479 18.5846 20.9392V22.2824H17.415V20.9392C17.415 20.6479 17.1789 20.4118 16.8877 20.4118H15.5444V19.2422H16.8877C17.1789 19.2422 17.415 19.0061 17.415 18.7148V17.3716H18.5846V18.7148C18.5846 19.0061 18.8207 19.2422 19.112 19.2422H20.4552V20.4118Z" fill="white"/>
<path d="M28.7384 9.53521H26.4854V8.70644C26.4854 7.83175 25.7738 7.12012 24.8991 7.12012H21.6095C21.3532 5.35795 19.8322 4 18 4C16.1679 4 14.647 5.35795 14.3906 7.12012H11.101C10.2263 7.12012 9.51465 7.83175 9.51465 8.70644V9.53521H7.2617C5.57202 9.53521 4.19727 10.9099 4.19727 12.5996V36.9356C4.19727 38.6253 5.57195 40 7.2617 40H9.79365C10.0849 40 10.321 39.7639 10.321 39.4727C10.321 39.1814 10.0849 38.9453 9.79365 38.9453H7.2617C6.15357 38.9453 5.25195 38.0438 5.25195 36.9356V12.5996C5.25195 11.4914 6.1535 10.5899 7.2617 10.5899H9.51465V11.9572H7.2617C6.90746 11.9572 6.61932 12.2453 6.61932 12.5996V36.9356C6.61932 37.2899 6.90746 37.578 7.2617 37.578H28.7384C29.0926 37.578 29.3807 37.2899 29.3807 36.9356V12.5996C29.3807 12.2453 29.0925 11.9572 28.7384 11.9572H26.4854V10.5899H28.7384C29.8465 10.5899 30.7481 11.4914 30.7481 12.5996V36.9356C30.7481 38.0438 29.8466 38.9453 28.7384 38.9453H11.903C11.6118 38.9453 11.3757 39.1814 11.3757 39.4727C11.3757 39.7639 11.6118 40 11.903 40H28.7384C30.428 40 31.8028 38.6253 31.8028 36.9356V12.5996C31.8028 10.9099 30.4281 9.53521 28.7384 9.53521ZM28.3261 13.012V36.5233H7.67401V13.0119H9.51465V13.1247C9.51465 13.9994 10.2263 14.711 11.101 14.711H21.3249C21.6161 14.711 21.8522 14.4749 21.8522 14.1836C21.8522 13.8924 21.6161 13.6563 21.3249 13.6563H11.101C10.8078 13.6563 10.5693 13.4178 10.5693 13.1247V8.70644C10.5693 8.4133 10.8078 8.1748 11.101 8.1748H14.88C15.1712 8.1748 15.4073 7.9387 15.4073 7.64746C15.4073 6.2178 16.5704 5.05469 18 5.05469C19.4297 5.05469 20.5928 6.2178 20.5928 7.64746C20.5928 7.9387 20.8289 8.1748 21.1201 8.1748H24.8991C25.1922 8.1748 25.4307 8.4133 25.4307 8.70644V13.1247C25.4307 13.4179 25.1922 13.6564 24.8991 13.6564H23.4343C23.143 13.6564 22.9069 13.8925 22.9069 14.1837C22.9069 14.4749 23.143 14.7111 23.4343 14.7111H24.8991C25.7738 14.7111 26.4854 13.9994 26.4854 13.1247V13.012H28.3261Z" fill="white"/>
</g>
<defs>
<filter id="filter0_d_114_248" x="-4" y="0" width="44" height="44" filterUnits="userSpaceOnUse" color-interpolation-filters="sRGB">
<feFlood flood-opacity="0" result="BackgroundImageFix"/>
<feColorMatrix in="SourceAlpha" type="matrix" values="0 0 0 0 0 0 0 0 0 0 0 0 0 0 0 0 0 0 127 0" result="hardAlpha"/>
<feOffset/>
<feGaussianBlur stdDeviation="2"/>
<feComposite in2="hardAlpha" operator="out"/>
<feColorMatrix type="matrix" values="0 0 0 0 0 0 0 0 0 0 0 0 0 0 0 0 0 0 0.25 0"/>
<feBlend mode="normal" in2="BackgroundImageFix" result="effect1_dropShadow_114_248"/>
<feBlend mode="normal" in="SourceGraphic" in2="effect1_dropShadow_114_248" result="shape"/>
</filter>
</defs>
</svg>
