<svg width="44" height="44" viewBox="0 0 44 44" fill="none" xmlns="http://www.w3.org/2000/svg">
<g clip-path="url(#clip0_114_350)" filter="url(#filter0_d_114_350)">
<path d="M15.5092 32.627L15.5032 32.633C15.2966 32.8383 15.2957 33.1722 15.5011 33.3787C15.6042 33.4824 15.7396 33.5343 15.875 33.5343C16.0094 33.5343 16.144 33.4832 16.2468 33.3809L16.2528 33.3749C16.4594 33.1696 16.4603 32.8357 16.2549 32.6291C16.0497 32.4226 15.7158 32.4217 15.5092 32.627Z" fill="white"/>
<path d="M19.8133 30.9401L19.8073 30.9461C19.6013 31.152 19.6013 31.4859 19.8073 31.6918C19.9102 31.7948 20.0452 31.8463 20.1802 31.8463C20.3151 31.8463 20.4501 31.7948 20.553 31.6918L20.559 31.6858C20.7649 31.4799 20.7649 31.146 20.559 30.9401C20.3531 30.7342 20.0192 30.7342 19.8133 30.9401Z" fill="white"/>
<path d="M20.4684 22.1964C20.4684 21.1385 19.6078 20.2778 18.5498 20.2778C17.4909 20.2778 16.6294 21.1385 16.6294 22.1964C16.6294 23.2554 17.4909 24.1169 18.5498 24.1169C19.6078 24.1169 20.4684 23.2554 20.4684 22.1964ZM17.6841 22.1964C17.6841 21.7201 18.0725 21.3325 18.5498 21.3325C19.0261 21.3325 19.4137 21.72 19.4137 22.1964C19.4137 22.6738 19.0262 23.0622 18.5498 23.0622C18.0725 23.0622 17.6841 22.6738 17.6841 22.1964Z" fill="white"/>
<path d="M24.0188 31.6484C22.5511 31.6484 21.3569 32.8426 21.3569 34.3104C21.3569 35.7793 22.5511 36.9743 24.0188 36.9743C25.4877 36.9743 26.6827 35.7793 26.6827 34.3104C26.6827 32.8426 25.4877 31.6484 24.0188 31.6484ZM24.0188 35.9197C23.1326 35.9197 22.4116 35.1978 22.4116 34.3105C22.4116 33.4243 23.1326 32.7032 24.0188 32.7032C24.9062 32.7032 25.628 33.4243 25.628 34.3105C25.628 35.1978 24.9062 35.9197 24.0188 35.9197Z" fill="white"/>
<path d="M11.9826 33.6814C10.9753 33.6814 10.1558 34.5 10.1558 35.5063C10.1558 36.5137 10.9753 37.3332 11.9826 37.3332C12.9898 37.3332 13.8093 36.5137 13.8093 35.5063C13.8093 34.5 12.9898 33.6814 11.9826 33.6814ZM11.9826 36.2784C11.5568 36.2784 11.2104 35.932 11.2104 35.5062C11.2104 35.0815 11.5568 34.736 11.9826 34.736C12.4083 34.736 12.7547 35.0815 12.7547 35.5062C12.7547 35.932 12.4083 36.2784 11.9826 36.2784Z" fill="white"/>
<path d="M32.4573 31.225L32.4513 31.231C32.2454 31.4369 32.2454 31.7708 32.4513 31.9767C32.5543 32.0797 32.6893 32.1312 32.8242 32.1312C32.9591 32.1312 33.0941 32.0797 33.1971 31.9767L33.203 31.9707C33.409 31.7648 33.409 31.4309 33.203 31.225C32.9972 31.0191 32.6633 31.0191 32.4573 31.225Z" fill="white"/>
<path d="M33.5824 35.252L33.5764 35.258C33.3699 35.4633 33.3689 35.7972 33.5743 36.0038C33.6774 36.1074 33.8128 36.1593 33.9483 36.1593C34.0827 36.1593 34.2172 36.1082 34.3201 36.0059L34.326 35.9999C34.5326 35.7946 34.5335 35.4607 34.3282 35.2541C34.1228 35.0476 33.7889 35.0467 33.5824 35.252Z" fill="white"/>
<path d="M33.6392 28.8885C34.6146 28.8885 35.4083 28.0949 35.4083 27.1194C35.4083 26.1429 34.6146 25.3484 33.6392 25.3484C32.6626 25.3484 31.8682 26.1429 31.8682 27.1194C31.8682 28.0949 32.6626 28.8885 33.6392 28.8885ZM33.6392 26.4031C34.0331 26.4031 34.3536 26.7244 34.3536 27.1194C34.3536 27.5133 34.0331 27.8338 33.6392 27.8338C33.2443 27.8338 32.9229 27.5133 32.9229 27.1194C32.9229 26.7244 33.2442 26.4031 33.6392 26.4031Z" fill="white"/>
<path d="M37.2527 6.54721H30.0258C28.9272 6.54721 28.0336 7.49193 28.0336 8.65307C28.0336 9.6745 28.7265 10.5279 29.642 10.7174V28.1436L24.1156 20.8666C23.4072 19.935 22.6722 18.0279 22.6685 16.4488L22.6479 8.19941C23.712 8.09472 24.546 7.19493 24.546 6.10382C24.5461 4.9438 23.6014 4 22.4402 4H14.6573C13.4961 4 12.5515 4.9438 12.5515 6.10389C12.5515 7.19493 13.3856 8.09479 14.4496 8.19948V16.4488C14.4459 18.0264 13.6912 19.9341 12.9837 20.8668L11.2218 23.1869C11.0457 23.4188 11.0909 23.7497 11.3228 23.9258C11.4182 23.9982 11.5302 24.0332 11.6414 24.0332C11.8007 24.0332 11.958 23.9614 12.0617 23.8248L13.8238 21.5045C14.5975 20.4846 15.4199 18.4643 15.4799 16.6467H17.2702C17.5614 16.6467 17.7976 16.4106 17.7976 16.1193C17.7976 15.8281 17.5614 15.592 17.2702 15.592H15.4857L15.4902 13.8344H17.2703C17.5615 13.8344 17.7976 13.5983 17.7976 13.3071C17.7976 13.0158 17.5615 12.7797 17.2703 12.7797H15.4928L15.4973 11.0221H17.2703C17.5615 11.0221 17.7976 10.786 17.7976 10.4948C17.7976 10.2035 17.5615 9.96742 17.2703 9.96742H15.4999L15.5043 8.20982H21.5934V16.451C21.5977 18.3194 22.4736 20.4497 23.276 21.5047L26.9967 26.4042C25.7401 26.0006 24.5071 25.9335 23.2194 26.1888C21.8743 26.4554 20.602 27.0378 19.2259 27.7533C16.4549 25.7626 12.332 26.1965 9.57809 27.1247L10.6091 25.7822C10.7865 25.5513 10.743 25.2202 10.5121 25.0428C10.2809 24.8654 9.94997 24.9088 9.77257 25.1398L6.57153 29.3077C5.75182 30.3764 5.13687 31.8461 4.88431 33.3401C4.61227 34.9492 4.77385 36.4667 5.33923 37.6129C5.87642 38.7019 7.03517 40 9.50525 40H27.5923C28.9195 40 30.0286 39.6046 30.8401 38.8527C31.5618 39.5617 32.5501 40 33.6392 40C35.8433 40 37.6365 38.2068 37.6365 36.0026V18.3576C37.6365 18.0664 37.4004 17.8303 37.1092 17.8303C36.8179 17.8303 36.5818 18.0664 36.5818 18.3576V21.7477C35.7898 22.1323 34.6399 22.0896 33.932 21.6162C33.0422 21.0224 31.758 20.8933 30.6967 21.2288V19.1958H32.4614C32.7526 19.1958 32.9887 18.9597 32.9887 18.6685C32.9887 18.3772 32.7526 18.1411 32.4614 18.1411H30.6967V16.3815H32.4614C32.7526 16.3815 32.9887 16.1454 32.9887 15.8542C32.9887 15.563 32.7526 15.3269 32.4614 15.3269H30.6967V13.5692H32.4614C32.7526 13.5692 32.9887 13.3331 32.9887 13.0419C32.9887 12.7507 32.7526 12.5146 32.4614 12.5146H30.6967V10.757H36.5818V15.924C36.5818 16.2153 36.8179 16.4514 37.1092 16.4514C37.4004 16.4514 37.6365 16.2153 37.6365 15.924V10.7174C38.552 10.528 39.2449 9.6745 39.2449 8.65314C39.2449 7.49193 38.3512 6.54721 37.2527 6.54721ZM14.6573 7.15513C14.0777 7.15513 13.6062 6.68355 13.6062 6.10389C13.6062 5.52536 14.0777 5.05469 14.6573 5.05469H22.4402C23.0199 5.05469 23.4914 5.52536 23.4914 6.10389C23.4914 6.68355 23.0198 7.15513 22.4402 7.15513H14.6573ZM7.40825 29.9499L8.25973 28.8413C10.3769 27.623 15.1305 26.5771 18.158 28.3188C18.1185 28.3401 18.0794 28.361 18.0395 28.3823C14.9817 30.0203 11.5324 31.8661 6.30104 32.0825C6.57997 31.2737 6.96247 30.531 7.40825 29.9499ZM27.5923 38.9453H9.50525C7.95732 38.9453 6.87394 38.3401 6.28514 37.1464C5.73263 36.0263 5.70162 34.5514 6.00333 33.1483C11.6728 32.9877 15.4717 30.9544 18.5375 29.3121C22.0609 27.4246 24.6145 26.0574 28.3141 28.1392L29.6419 29.8876V36.0027C29.6419 36.7376 29.8422 37.4263 30.1896 38.0186C29.5677 38.6338 28.696 38.9453 27.5923 38.9453ZM33.346 22.4932C33.9142 22.8731 34.6436 23.0631 35.3734 23.0631C35.7858 23.0631 36.1983 23.0022 36.5818 22.8809V36.0026C36.5818 37.6252 35.2617 38.9453 33.6392 38.9453C32.0166 38.9453 30.6966 37.6253 30.6966 36.0026V22.3619C31.4882 21.9779 32.638 22.0206 33.346 22.4932ZM37.2527 9.70234H30.0258C29.5088 9.70234 29.0883 9.23167 29.0883 8.65314C29.0883 8.07348 29.5089 7.60197 30.0258 7.60197H37.2527C37.7697 7.60197 38.1902 8.07355 38.1902 8.65314C38.1902 9.2316 37.7696 9.70234 37.2527 9.70234Z" fill="white"/>
</g>
<defs>
<filter id="filter0_d_114_350" x="0" y="0" width="44" height="44" filterUnits="userSpaceOnUse" color-interpolation-filters="sRGB">
<feFlood flood-opacity="0" result="BackgroundImageFix"/>
<feColorMatrix in="SourceAlpha" type="matrix" values="0 0 0 0 0 0 0 0 0 0 0 0 0 0 0 0 0 0 127 0" result="hardAlpha"/>
<feOffset/>
<feGaussianBlur stdDeviation="2"/>
<feComposite in2="hardAlpha" operator="out"/>
<feColorMatrix type="matrix" values="0 0 0 0 0 0 0 0 0 0 0 0 0 0 0 0 0 0 0.25 0"/>
<feBlend mode="normal" in2="BackgroundImageFix" result="effect1_dropShadow_114_350"/>
<feBlend mode="normal" in="SourceGraphic" in2="effect1_dropShadow_114_350" result="shape"/>
</filter>
<clipPath id="clip0_114_350">
<rect width="36" height="36" fill="white" transform="translate(4 4)"/>
</clipPath>
</defs>
</svg>
