<svg width="42" height="42" viewBox="0 0 42 42" fill="none" xmlns="http://www.w3.org/2000/svg">
<g filter="url(#filter0_d_114_366)">
<path d="M25.7235 29.1434C25.5752 28.9073 25.2635 28.8361 25.0274 28.9844C23.5307 29.9248 21.8003 30.4218 20.0234 30.4218C14.8281 30.4218 10.6016 26.1951 10.6016 21C10.6016 18.1133 11.8984 15.4252 14.1595 13.6248C14.3777 13.4511 14.4137 13.1335 14.24 12.9153C14.0664 12.6971 13.7488 12.6611 13.5305 12.8348C11.0274 14.8278 9.5918 17.8039 9.5918 21C9.59166 26.752 14.2713 31.4317 20.0234 31.4317C21.9906 31.4317 23.9068 30.8812 25.5647 29.8395C25.8007 29.6911 25.8719 29.3794 25.7235 29.1434Z" fill="white"/>
<path d="M37.495 24.4372H35.6757C35.9216 23.3128 36.0463 22.1595 36.0463 20.9997C36.0463 16.7198 34.3797 12.696 31.3532 9.66969C28.3269 6.64329 24.3031 4.97656 20.0232 4.97656C15.7432 4.97656 11.7195 6.64336 8.69313 9.66976C5.66666 12.6962 4 16.7198 4 20.9998C4 24.1845 4.92345 27.227 6.64264 29.8227V36.5181C6.64264 36.7969 6.86875 37.023 7.14759 37.023L37.495 37.0232C37.7739 37.0232 38 36.797 38 36.5182V24.9421C38 24.6633 37.7739 24.4372 37.495 24.4372ZM7.65254 36.0131V31.1853C7.97913 31.5805 8.3259 31.9627 8.69306 32.3299C10.3406 33.9775 12.2843 35.221 14.4035 36.0131H7.65254ZM27.5873 36.0131H25.6288C26.2995 35.7628 26.9539 35.4671 27.5873 35.1274V36.0131ZM36.9901 36.0133H28.5972V28.6221H36.9901V36.0133ZM36.9902 27.6123H17.2406V25.4472H24.1647C24.4436 25.4472 24.6697 25.2211 24.6697 24.9423C24.6697 24.6634 24.4436 24.4373 24.1647 24.4373H16.7357C16.4568 24.4373 16.2307 24.6634 16.2307 24.9423V28.1172C16.2307 28.3961 16.4568 28.6222 16.7357 28.6222H27.5873V33.9704C25.2994 35.3076 22.6904 36.0132 20.0232 36.0132C16.0131 36.0132 12.2429 34.4515 9.40726 31.6158C8.7258 30.9344 8.11878 30.1985 7.58839 29.4186C7.57305 29.3912 7.55526 29.3652 7.5352 29.3412C5.89251 26.8929 5.00991 24.0142 5.00991 20.9998C5.00991 16.9897 6.57158 13.2195 9.40726 10.3838C12.2429 7.54821 16.0131 5.98647 20.0232 5.98647C24.0334 5.98647 27.8035 7.54821 30.6392 10.3838C33.4748 13.2194 35.0366 16.9897 35.0366 20.9998C35.0366 22.1614 34.9031 23.3157 34.6404 24.4372H29.8749C30.2598 23.3372 30.4551 22.1843 30.4551 20.9998C30.4551 15.2477 25.7754 10.5681 20.0234 10.5681C18.2474 10.5681 16.4935 11.0225 14.9513 11.8822C14.7077 12.018 14.6203 12.3255 14.7561 12.5691C14.8918 12.8127 15.1993 12.9001 15.443 12.7643C16.8352 11.9883 18.4191 11.5781 20.0234 11.5781C25.2186 11.5781 29.4451 15.8047 29.4451 20.9999C29.4451 22.1903 29.2269 23.3449 28.7975 24.4373H25.8481C25.5692 24.4373 25.3431 24.6634 25.3431 24.9423C25.3431 25.2211 25.5692 25.4472 25.8481 25.4472H36.9902V27.6123Z" fill="white"/>
</g>
<defs>
<filter id="filter0_d_114_366" x="0" y="0" width="42" height="42" filterUnits="userSpaceOnUse" color-interpolation-filters="sRGB">
<feFlood flood-opacity="0" result="BackgroundImageFix"/>
<feColorMatrix in="SourceAlpha" type="matrix" values="0 0 0 0 0 0 0 0 0 0 0 0 0 0 0 0 0 0 127 0" result="hardAlpha"/>
<feOffset/>
<feGaussianBlur stdDeviation="2"/>
<feComposite in2="hardAlpha" operator="out"/>
<feColorMatrix type="matrix" values="0 0 0 0 0 0 0 0 0 0 0 0 0 0 0 0 0 0 0.25 0"/>
<feBlend mode="normal" in2="BackgroundImageFix" result="effect1_dropShadow_114_366"/>
<feBlend mode="normal" in="SourceGraphic" in2="effect1_dropShadow_114_366" result="shape"/>
</filter>
</defs>
</svg>
