<svg width="42" height="42" viewBox="0 0 42 42" fill="none" xmlns="http://www.w3.org/2000/svg">
<g clip-path="url(#clip0_687_228)" filter="url(#filter0_d_687_228)">
<path d="M13.001 4.20777C12.7244 3.93112 12.2759 3.93106 11.9992 4.20764L4.20752 11.9993L5.20912 13.0009L11.7916 6.41837V9.66676C11.7916 10.8404 10.8402 11.7918 9.66664 11.7918H7.54164V13.2084H9.66664C11.6217 13.2061 13.206 11.6218 13.2083 9.66676V4.70841C13.2083 4.52061 13.1337 4.34052 13.001 4.20777Z" fill="white"/>
<path d="M29.501 23.8334V7.54164C29.4987 5.58664 27.9143 4.00232 25.9593 4H12.501C12.3131 4.00007 12.133 4.07471 12.0002 4.20752L4.2085 11.9992C4.07568 12.132 4.00098 12.3122 4.00098 12.5V34.4584C4.0033 36.4134 5.58762 37.9977 7.54262 38H25.9593C27.9143 37.9977 29.4986 36.4134 29.5009 34.4584V33.75H28.0843V34.4584C28.0843 35.632 27.1329 36.5834 25.9593 36.5834H7.54262C6.36902 36.5834 5.41762 35.632 5.41762 34.4584V12.7933L12.7942 5.41664H25.9593C27.1329 5.41664 28.0843 6.36805 28.0843 7.54164V23.8333H29.501V23.8334Z" fill="white"/>
<path d="M37.7924 34.7127L24.2872 21.2076C24.0107 20.9311 23.5623 20.9311 23.2856 21.2076L21.2074 23.2859C20.9309 23.5625 20.9309 24.0108 21.2074 24.2875L34.7125 37.7926C34.8453 37.9255 35.0255 38.0001 35.2133 38.0001C35.4011 38.0001 35.5812 37.9254 35.714 37.7926L37.7923 35.7143C38.0689 35.4377 38.0689 34.9893 37.7924 34.7127ZM35.2133 36.2902L22.7098 23.7867L23.7864 22.7101L36.2899 35.2136L35.2133 36.2902Z" fill="white"/>
<path d="M21.7084 21C21.3172 21 21 21.3172 21 21.7084V23.8334H22.4166V22.4167H23.8333V21H21.7084Z" fill="white"/>
<path d="M15.3332 28.0833H13.9166V26.6666C13.9166 26.2754 13.5994 25.9583 13.2082 25.9583H10.3749C9.98366 25.9583 9.6665 26.2754 9.6665 26.6666V28.0833H8.24986C7.85866 28.0833 7.5415 28.4004 7.5415 28.7916V31.6249C7.5415 32.0161 7.85866 32.3333 8.24986 32.3333H9.6665V33.7499C9.6665 34.1411 9.98366 34.4583 10.3749 34.4583H13.2082C13.5994 34.4583 13.9166 34.1411 13.9166 33.7499V32.3333H15.3332C15.7244 32.3333 16.0416 32.0161 16.0416 31.6249V28.7915C16.0415 28.4003 15.7244 28.0833 15.3332 28.0833ZM14.6249 30.9165H13.2082C12.817 30.9165 12.4999 31.2337 12.4999 31.6249V33.0415H11.0832V31.6249C11.0832 31.2337 10.7661 30.9165 10.3749 30.9165H8.95821V29.4999H10.3749C10.7661 29.4999 11.0832 29.1827 11.0832 28.7915V27.3749H12.4999V28.7915C12.4999 29.1827 12.817 29.4999 13.2082 29.4999H14.6249V30.9165Z" fill="white"/>
<path d="M21.7081 21H7.5415V22.4166H21.7081V21Z" fill="white"/>
<path d="M25.9581 17.4583H7.5415V18.8749H25.9581V17.4583Z" fill="white"/>
<path d="M25.9585 13.9167H15.3335V15.3334H25.9585V13.9167Z" fill="white"/>
<path d="M25.9581 10.375H18.1665V11.7916H25.9581V10.375Z" fill="white"/>
<path d="M16.7501 10.375H15.3335V11.7916H16.7501V10.375Z" fill="white"/>
</g>
<defs>
<filter id="filter0_d_687_228" x="0" y="0" width="42" height="42" filterUnits="userSpaceOnUse" color-interpolation-filters="sRGB">
<feFlood flood-opacity="0" result="BackgroundImageFix"/>
<feColorMatrix in="SourceAlpha" type="matrix" values="0 0 0 0 0 0 0 0 0 0 0 0 0 0 0 0 0 0 127 0" result="hardAlpha"/>
<feOffset/>
<feGaussianBlur stdDeviation="2"/>
<feComposite in2="hardAlpha" operator="out"/>
<feColorMatrix type="matrix" values="0 0 0 0 0 0 0 0 0 0 0 0 0 0 0 0 0 0 0.25 0"/>
<feBlend mode="normal" in2="BackgroundImageFix" result="effect1_dropShadow_687_228"/>
<feBlend mode="normal" in="SourceGraphic" in2="effect1_dropShadow_687_228" result="shape"/>
</filter>
<clipPath id="clip0_687_228">
<rect width="34" height="34" fill="white" transform="translate(4 4)"/>
</clipPath>
</defs>
</svg>
