<svg width="32" height="32" viewBox="0 0 32 32" fill="none" xmlns="http://www.w3.org/2000/svg">
<g clip-path="url(#clip0_686_202)">
<path d="M2.66667 31.9999H11.2C12.6728 31.9999 13.8667 30.806 13.8667 29.3332V11.1999C13.8667 9.72711 12.6728 8.5332 11.2 8.5332H2.66667C1.19391 8.5332 0 9.72711 0 11.1999V29.3332C0 30.806 1.19391 31.9999 2.66667 31.9999ZM11.2 30.9332H2.66667C1.78301 30.9332 1.06667 30.2169 1.06667 29.3332C1.52678 29.6822 2.08918 29.8697 2.66667 29.8665H11.2C11.7775 29.8697 12.3399 29.6822 12.8 29.3332C12.8 30.2169 12.0837 30.9332 11.2 30.9332ZM9.6 9.59987L8.96 10.4532C8.85928 10.5875 8.7012 10.6665 8.53333 10.6665H5.33333C5.16546 10.6665 5.00739 10.5875 4.90667 10.4532L4.26667 9.59987H9.6ZM1.06667 11.1999C1.06667 10.3162 1.78301 9.59987 2.66667 9.59987H2.93333L4.05333 11.0932C4.3555 11.4961 4.82972 11.7332 5.33333 11.7332H8.53333C9.03695 11.7332 9.51117 11.4961 9.81333 11.0932L10.9333 9.59987H11.2C12.0837 9.59987 12.8 10.3162 12.8 11.1999V27.1999C12.8 28.0835 12.0837 28.7999 11.2 28.7999H2.66667C1.78301 28.7999 1.06667 28.0835 1.06667 27.1999V11.1999Z" fill="white"/>
<path d="M29.3333 8.5332H20.8C19.3272 8.5332 18.1333 9.72711 18.1333 11.1999V29.3332C18.1333 30.806 19.3272 31.9999 20.8 31.9999H29.3333C30.8061 31.9999 32 30.806 32 29.3332V11.1999C32 9.72711 30.8061 8.5332 29.3333 8.5332ZM27.7333 9.59987L27.0933 10.4532C26.9926 10.5875 26.8345 10.6665 26.6666 10.6665H23.4666C23.2988 10.6665 23.1407 10.5875 23.04 10.4532L22.4 9.59987H27.7333ZM19.2 11.1999C19.2 10.3162 19.9163 9.59987 20.8 9.59987H21.0666L22.1866 11.0932C22.4888 11.4961 22.963 11.7332 23.4666 11.7332H26.6666C27.1702 11.7332 27.6445 11.4961 27.9466 11.0932L29.0666 9.59987H29.3333C30.2169 9.59987 30.9333 10.3162 30.9333 11.1999V27.1999C30.9333 28.0835 30.2169 28.7999 29.3333 28.7999H20.8C19.9163 28.7999 19.2 28.0835 19.2 27.1999V11.1999ZM29.3333 30.9332H20.8C19.9163 30.9332 19.2 30.2169 19.2 29.3332C19.6601 29.6822 20.2225 29.8697 20.8 29.8665H29.3333C29.9108 29.8697 30.4732 29.6822 30.9333 29.3332C30.9333 30.2169 30.2169 30.9332 29.3333 30.9332Z" fill="white"/>
<path d="M6.9333 22.3998C9.58427 22.3998 11.7333 20.2508 11.7333 17.5998C11.7333 14.9488 9.58427 12.7998 6.9333 12.7998C4.28233 12.7998 2.1333 14.9488 2.1333 17.5998C2.1333 20.2508 4.28233 22.3998 6.9333 22.3998ZM4.44797 20.3785C4.71059 19.7189 5.2193 19.1873 5.86664 18.8958C6.52228 19.293 7.34432 19.293 7.99997 18.8958C8.64328 19.1895 9.14789 19.7209 9.40797 20.3785C7.99189 21.6418 5.85338 21.6418 4.4373 20.3785H4.44797ZM6.9333 18.1331C6.3442 18.1331 5.86664 17.6556 5.86664 17.0665C5.86664 16.4774 6.3442 15.9998 6.9333 15.9998C7.52241 15.9998 7.99997 16.4774 7.99997 17.0665C7.99997 17.6556 7.52241 18.1331 6.9333 18.1331ZM6.9333 13.8665C8.99517 13.8665 10.6666 15.5379 10.6666 17.5998C10.6667 18.256 10.4918 18.9004 10.16 19.4665C9.83099 18.8988 9.35822 18.4279 8.7893 18.1011C9.28578 17.2038 9.07354 16.0802 8.28396 15.4258C7.49437 14.7714 6.3509 14.7714 5.56132 15.4258C4.77173 16.0802 4.55949 17.2038 5.05597 18.1011C4.50466 18.4345 4.049 18.9049 3.7333 19.4665C3.39213 18.903 3.20798 18.2585 3.19997 17.5998C3.19997 15.5379 4.87144 13.8665 6.9333 13.8665Z" fill="white"/>
<path d="M25.0666 7.46659C25.3611 7.46659 25.5999 7.22781 25.5999 6.93326V4.79992C25.5999 4.21082 25.1223 3.73326 24.5332 3.73326H20.6772C20.1751 1.55481 18.2355 0.0114746 15.9999 0.0114746C13.7643 0.0114746 11.8247 1.55481 11.3226 3.73326H7.46657C6.87747 3.73326 6.3999 4.21082 6.3999 4.79992V6.93326C6.3999 7.22781 6.63868 7.46659 6.93324 7.46659C7.22779 7.46659 7.46657 7.22781 7.46657 6.93326V4.79992H11.1999C11.1999 7.45089 13.3489 9.59992 15.9999 9.59992C18.6509 9.59992 20.7999 7.45089 20.7999 4.79992H24.5332V6.93326C24.5332 7.22781 24.772 7.46659 25.0666 7.46659ZM13.5146 7.57859C13.7772 6.91903 14.2859 6.38738 14.9332 6.09592C15.5889 6.49311 16.4109 6.49311 17.0666 6.09592C17.7099 6.38961 18.2145 6.92098 18.4746 7.57859C17.0585 8.84192 14.92 8.84192 13.5039 7.57859H13.5146ZM15.9999 5.33326C15.4108 5.33326 14.9332 4.85569 14.9332 4.26659C14.9332 3.67749 15.4108 3.19992 15.9999 3.19992C16.589 3.19992 17.0666 3.67749 17.0666 4.26659C17.0666 4.54949 16.9542 4.8208 16.7541 5.02084C16.5541 5.22088 16.2828 5.33326 15.9999 5.33326ZM19.1999 6.66659C18.8709 6.09895 18.3982 5.62802 17.8292 5.30126C18.3257 4.40393 18.1135 3.28033 17.3239 2.62593C16.5343 1.97153 15.3908 1.97153 14.6012 2.62593C13.8117 3.28033 13.5994 4.40393 14.0959 5.30126C13.5544 5.63819 13.1082 6.10825 12.7999 6.66659C12.4587 6.10311 12.2746 5.45859 12.2666 4.79992C12.2666 2.73806 13.938 1.06659 15.9999 1.06659C18.0618 1.06659 19.7332 2.73806 19.7332 4.79992C19.7333 5.45612 19.5584 6.10048 19.2266 6.66659H19.1999Z" fill="white"/>
<path d="M9.6002 23.9998H4.26686C3.67776 23.9998 3.2002 24.4773 3.2002 25.0664V26.1331C3.2002 26.7222 3.67776 27.1998 4.26686 27.1998H9.6002C10.1893 27.1998 10.6669 26.7222 10.6669 26.1331V25.0664C10.6669 24.4773 10.1893 23.9998 9.6002 23.9998ZM4.26686 26.1331V25.0664H9.6002V26.1331H4.26686Z" fill="white"/>
<path d="M25.0666 22.3998C27.7176 22.3998 29.8666 20.2508 29.8666 17.5998C29.8666 14.9488 27.7176 12.7998 25.0666 12.7998C22.4156 12.7998 20.2666 14.9488 20.2666 17.5998C20.2666 20.2508 22.4156 22.3998 25.0666 22.3998ZM22.5813 20.3785C22.8439 19.7189 23.3526 19.1873 23.9999 18.8958C24.6556 19.293 25.4776 19.293 26.1333 18.8958C26.7766 19.1895 27.2812 19.7209 27.5413 20.3785C26.1252 21.6418 23.9867 21.6418 22.5706 20.3785H22.5813ZM25.0666 18.1331C24.4775 18.1331 23.9999 17.6556 23.9999 17.0665C23.9999 16.4774 24.4775 15.9998 25.0666 15.9998C25.6557 15.9998 26.1333 16.4774 26.1333 17.0665C26.1333 17.6556 25.6557 18.1331 25.0666 18.1331ZM25.0666 13.8665C27.1285 13.8665 28.7999 15.5379 28.7999 17.5998C28.7919 18.2585 28.6078 18.903 28.2666 19.4665C27.9376 18.8988 27.4649 18.4279 26.8959 18.1011C27.3924 17.2038 27.1802 16.0802 26.3906 15.4258C25.601 14.7714 24.4575 14.7714 23.6679 15.4258C22.8784 16.0802 22.6661 17.2038 23.1626 18.1011C22.6211 18.4381 22.1749 18.9081 21.8666 19.4665C21.5254 18.903 21.3413 18.2585 21.3333 17.5998C21.3333 15.5379 23.0047 13.8665 25.0666 13.8665Z" fill="white"/>
<path d="M27.7335 23.9998H22.4002C21.8111 23.9998 21.3335 24.4773 21.3335 25.0664V26.1331C21.3335 26.7222 21.8111 27.1998 22.4002 27.1998H27.7335C28.3226 27.1998 28.8002 26.7222 28.8002 26.1331V25.0664C28.8002 24.4773 28.3226 23.9998 27.7335 23.9998ZM22.4002 26.1331V25.0664H27.7335V26.1331H22.4002Z" fill="white"/>
</g>
<defs>
<clipPath id="clip0_686_202">
<rect width="32" height="32" fill="white"/>
</clipPath>
</defs>
</svg>
