<svg width="38" height="38" viewBox="0 0 38 38" fill="none" xmlns="http://www.w3.org/2000/svg">
<g filter="url(#filter0_d_114_315)">
<path d="M17.978 12.9085H16.421V11.3515C16.421 11.0279 16.1586 10.7656 15.8352 10.7656C15.5117 10.7656 15.2493 11.0279 15.2493 11.3515V12.9085H13.6923C13.3688 12.9085 13.1064 13.1708 13.1064 13.4943C13.1064 13.8179 13.3688 14.0802 13.6923 14.0802H15.2493V15.6372C15.2493 15.9608 15.5117 16.223 15.8352 16.223C16.1586 16.223 16.421 15.9607 16.421 15.6372V14.0802H17.978C18.3015 14.0802 18.5639 13.8179 18.5639 13.4943C18.5639 13.1708 18.3015 12.9085 17.978 12.9085Z" fill="white"/>
<path d="M15.8351 8.33838C12.9922 8.33838 10.6792 10.6514 10.6792 13.4943C10.6792 16.3373 12.9922 18.6503 15.8351 18.6503C18.6781 18.6503 20.9911 16.3373 20.9911 13.4943C20.9911 10.6514 18.6781 8.33838 15.8351 8.33838ZM15.8351 17.4784C13.6383 17.4784 11.851 15.6911 11.851 13.4943C11.851 11.2974 13.6383 9.51013 15.8351 9.51013C18.032 9.51013 19.8193 11.2974 19.8193 13.4943C19.8193 15.6911 18.032 17.4784 15.8351 17.4784Z" fill="white"/>
<path d="M27.4987 9.3869L22.2843 4.17235C22.1743 4.06249 22.0253 4.00073 21.8699 4.00073H5.75769C4.78849 4.00073 4 4.78929 4 5.75848V32.2413C4 33.2105 4.78849 33.999 5.75769 33.999H16.9496C17.2732 33.999 17.5355 33.7366 17.5355 33.4131C17.5355 33.0896 17.2731 32.8272 16.9496 32.8272H5.75769C5.43461 32.8272 5.17181 32.5644 5.17181 32.2413V5.75848C5.17181 5.4354 5.43467 5.17261 5.75769 5.17261H21.284V8.6294C21.284 9.59859 22.0725 10.3871 23.0417 10.3871H26.4985V20.8161C26.4985 21.1397 26.7609 21.402 27.0844 21.402C27.4079 21.402 27.6702 21.1396 27.6702 20.8161V9.80115C27.6704 9.64576 27.6086 9.49676 27.4987 9.3869ZM23.0418 9.21527C22.7187 9.21527 22.4559 8.95242 22.4559 8.6294V6.00118L25.67 9.21527H23.0418Z" fill="white"/>
<path d="M23.3347 20.406H13.1596C12.8361 20.406 12.5737 20.6684 12.5737 20.9919C12.5737 21.3154 12.8361 21.5778 13.1596 21.5778H23.3347C23.6583 21.5778 23.9206 21.3154 23.9206 20.9919C23.9207 20.6684 23.6583 20.406 23.3347 20.406Z" fill="white"/>
<path d="M10.2445 20.406H8.33539C8.01184 20.406 7.74951 20.6684 7.74951 20.9919C7.74951 21.3154 8.01189 21.5778 8.33539 21.5778H10.2445C10.568 21.5778 10.8304 21.3154 10.8304 20.9919C10.8304 20.6684 10.568 20.406 10.2445 20.406Z" fill="white"/>
<path d="M18.9991 23.687H13.1596C12.8361 23.687 12.5737 23.9494 12.5737 24.2729C12.5737 24.5964 12.8361 24.8588 13.1596 24.8588H18.9991C19.3227 24.8588 19.585 24.5964 19.585 24.2729C19.585 23.9494 19.3227 23.687 18.9991 23.687Z" fill="white"/>
<path d="M10.2445 23.687H8.33539C8.01184 23.687 7.74951 23.9494 7.74951 24.2729C7.74951 24.5964 8.01189 24.8588 8.33539 24.8588H10.2445C10.568 24.8588 10.8304 24.5964 10.8304 24.2729C10.8304 23.9494 10.568 23.687 10.2445 23.687Z" fill="white"/>
<path d="M13.5734 27.1397C13.4645 27.0307 13.3138 26.968 13.1592 26.968C13.0051 26.968 12.8545 27.0307 12.7449 27.1397C12.6359 27.2487 12.5732 27.3999 12.5732 27.554C12.5732 27.7081 12.6359 27.8592 12.7449 27.9682C12.8539 28.0771 13.0051 28.1399 13.1592 28.1399C13.3139 28.1399 13.4645 28.0772 13.5734 27.9682C13.6829 27.8592 13.7451 27.7081 13.7451 27.554C13.7451 27.3999 13.6829 27.2487 13.5734 27.1397Z" fill="white"/>
<path d="M10.2445 26.968H8.33539C8.01184 26.968 7.74951 27.2304 7.74951 27.5539C7.74951 27.8774 8.01189 28.1398 8.33539 28.1398H10.2445C10.568 28.1398 10.8304 27.8774 10.8304 27.5539C10.8304 27.2304 10.568 26.968 10.2445 26.968Z" fill="white"/>
<path d="M30.3672 26.7337C30.1953 26.7337 30.0263 26.7465 29.8607 26.7698C30.2299 25.5314 29.9266 24.1337 28.9507 23.1577C28.2645 22.4716 27.3524 22.0938 26.382 22.0938C25.4117 22.0938 24.4995 22.4716 23.8134 23.1577L19.1733 27.7977C18.4872 28.4839 18.1094 29.396 18.1094 30.3664C18.1094 31.3367 18.4872 32.2489 19.1733 32.935C19.8816 33.6432 20.8116 33.9972 21.7419 33.9972C22.6721 33.9972 23.6025 33.643 24.3106 32.935L26.7382 30.5073C26.8127 32.4452 28.4115 33.9989 30.3673 33.9989C32.3704 33.9989 33.9999 32.3694 33.9999 30.3663C33.9999 28.3632 32.3703 26.7337 30.3672 26.7337ZM23.4819 32.1064C22.5225 33.0659 20.9613 33.0659 20.0019 32.1064C19.5371 31.6416 19.2811 31.0237 19.2811 30.3664C19.2811 29.7091 19.5371 29.0911 20.0019 28.6264L21.9077 26.7207L25.3876 30.2007L23.4819 32.1064ZM26.2162 29.3721L22.7362 25.892L24.6419 23.9863C25.1067 23.5215 25.7246 23.2656 26.3819 23.2656C27.0392 23.2656 27.6572 23.5215 28.1219 23.9863C29.0814 24.9457 29.0814 26.5069 28.1219 27.4663L26.2162 29.3721ZM29.7813 32.7562C28.7065 32.4925 27.9064 31.5213 27.9064 30.3664C27.9064 29.2114 28.7064 28.2402 29.7813 27.9766V32.7562ZM30.9531 32.7562V27.9766C32.028 28.2402 32.828 29.2114 32.828 30.3663C32.828 31.5212 32.028 32.4925 30.9531 32.7562Z" fill="white"/>
</g>
<defs>
<filter id="filter0_d_114_315" x="0" y="0" width="38" height="38" filterUnits="userSpaceOnUse" color-interpolation-filters="sRGB">
<feFlood flood-opacity="0" result="BackgroundImageFix"/>
<feColorMatrix in="SourceAlpha" type="matrix" values="0 0 0 0 0 0 0 0 0 0 0 0 0 0 0 0 0 0 127 0" result="hardAlpha"/>
<feOffset/>
<feGaussianBlur stdDeviation="2"/>
<feComposite in2="hardAlpha" operator="out"/>
<feColorMatrix type="matrix" values="0 0 0 0 0 0 0 0 0 0 0 0 0 0 0 0 0 0 0.25 0"/>
<feBlend mode="normal" in2="BackgroundImageFix" result="effect1_dropShadow_114_315"/>
<feBlend mode="normal" in="SourceGraphic" in2="effect1_dropShadow_114_315" result="shape"/>
</filter>
</defs>
</svg>
