<svg width="29" height="32" viewBox="0 0 29 32" fill="none" xmlns="http://www.w3.org/2000/svg">
<path fill-rule="evenodd" clip-rule="evenodd" d="M18.7785 14.2469C18.4057 14.8863 18.0281 15.5065 17.6629 16.1063C14.9165 20.6169 12.7473 24.1797 15.8148 30.4054L16.5697 31.9375H10.4537C7.78001 31.9432 5.21016 30.9027 3.29353 29.0385C2.33905 28.121 1.57523 27.0239 1.04596 25.8104C0.516683 24.5968 0.232372 23.2906 0.209355 21.9669C0.207806 21.8855 0.207031 21.8036 0.207031 21.7212C0.207031 15.7224 3.80672 12.5515 6.98266 9.75458C7.7375 9.08972 8.45044 8.46165 9.10002 7.81213C10.0354 6.87647 10.4888 5.98284 10.4471 5.15588C10.3984 4.18715 9.66707 3.54812 9.6597 3.54221L9.00128 3.00432L10.3657 0.275024L11.2398 0.566614C12.483 0.980923 17.853 3.57761 19.4595 7.83943C20.2556 9.95168 20.0266 12.1074 18.7785 14.2469ZM2.33396 21.9275C2.41524 26.2753 6.05762 29.8125 10.4537 29.8125H13.228C10.7133 23.4339 13.2126 19.3293 15.8476 15.0019L15.8479 15.0014L15.852 14.9946C16.2107 14.4054 16.5816 13.7963 16.9431 13.1765C17.8658 11.5948 18.0385 10.0943 17.4711 8.58922C16.5744 6.21028 13.9392 4.29499 12.0904 3.28489C12.3742 3.83184 12.5376 4.43325 12.5695 5.04864C12.6425 6.50074 11.9808 7.93591 10.6026 9.31404C9.90553 10.0112 9.13369 10.6911 8.38735 11.3485C5.41036 13.9707 2.33203 16.6824 2.33203 21.7212C2.33208 21.7903 2.33272 21.8591 2.33396 21.9275ZM28.0383 21.4416C28.0575 21.5124 28.076 21.5829 28.0937 21.6532C28.4004 22.8671 28.4243 24.1353 28.1637 25.3599C27.903 26.5846 27.3646 27.7331 26.59 28.7169C25.8107 29.7226 24.8109 30.536 23.6677 31.0943C22.5244 31.6527 21.2682 31.9412 19.9959 31.9376H19.2735L18.9892 31.3188C17.5195 28.122 17.1047 25.1433 17.7209 22.2126C18.2613 19.6426 19.501 17.3774 20.9455 14.8938L21.5794 13.8042L22.5461 14.6132C23.0275 15.016 27.2716 18.6305 28.0383 21.4416ZM23.0184 29.035C23.7541 28.6275 24.3991 28.0744 24.9141 27.4094C25.4892 26.68 25.889 25.8282 26.0829 24.9199C26.2768 24.0115 26.2596 23.0707 26.0326 22.1701C26.0184 22.1138 26.0036 22.0573 25.9881 22.0005C25.621 20.6543 23.7077 18.5495 22.1377 17.089C19.7762 21.3044 18.5404 24.7399 20.6349 29.7801C21.4718 29.6961 22.2827 29.4426 23.0184 29.035Z" fill="url(#paint0_linear_3921_1148)"/>
<defs>
<linearGradient id="paint0_linear_3921_1148" x1="22.894" y1="31.8508" x2="22.894" y2="13.3299" gradientUnits="userSpaceOnUse">
<stop stop-color="#EEEEEE"/>
<stop offset="1" stop-color="white"/>
</linearGradient>
</defs>
</svg>
