<svg width="21" height="19" viewBox="0 0 21 19" fill="none" xmlns="http://www.w3.org/2000/svg">
<path d="M17.4376 1.10217H18.3643C18.6373 1.10217 18.8585 1.37502 18.8585 1.71152V3.66554H16.9434V1.71063C16.9438 1.37448 17.1649 1.10217 17.4376 1.10217Z" fill="#58595B"/>
<path d="M13.5684 0.315308H7.85808C7.58401 0.315248 7.3323 0.501662 7.20358 0.800006L5.9668 3.66558H15.4598L14.2227 0.798758C14.0937 0.501067 13.8422 0.315189 13.5684 0.315308Z" fill="#DBD8DD"/>
<path d="M1.66326 2.7843H19.7636C20.446 2.7843 20.9992 3.46635 20.9992 4.30771V16.8755C20.9992 17.7169 20.446 18.3989 19.7636 18.3989H1.66326C0.980898 18.399 0.427734 17.7169 0.427734 16.8756V4.30771C0.427734 3.46635 0.980898 2.7843 1.66326 2.7843Z" fill="#DBD8DD"/>
<path d="M0.427734 6.45325H20.9992V14.7305H0.427734V6.45325Z" fill="#58595B"/>
<path d="M10.7138 16.8059C13.4973 16.8059 15.7538 14.0237 15.7538 10.5916C15.7538 7.15956 13.4973 4.37732 10.7138 4.37732C7.93031 4.37732 5.67383 7.15956 5.67383 10.5916C5.67383 14.0237 7.93031 16.8059 10.7138 16.8059Z" fill="#686D82"/>
<path opacity="0.5" d="M14.5171 10.592C14.5212 13.1888 12.8173 15.2979 10.7112 15.3028C8.60523 15.3079 6.89468 13.2069 6.89063 10.6102C6.88653 8.01352 8.59047 5.90442 10.6965 5.89942C11.4713 5.89758 12.2282 6.18677 12.8664 6.72859C13.8984 7.60336 14.5156 9.04789 14.5171 10.592Z" fill="#009444"/>
<path d="M13.5321 9.37628C13.5352 11.9639 11.8363 14.0646 9.73771 14.0684C8.96509 14.0697 8.21045 13.7807 7.57446 13.2397C6.38584 11.1057 6.82533 8.1876 8.55612 6.72203C9.85524 5.62197 11.5702 5.62423 12.8674 6.72785C13.3008 7.50763 13.5325 8.43096 13.5321 9.37628Z" fill="#03B655"/>
<path d="M10.2209 9.0748C10.6417 9.0748 10.9828 8.6542 10.9828 8.13536C10.9828 7.61652 10.6417 7.19592 10.2209 7.19592C9.8001 7.19592 9.45898 7.61652 9.45898 8.13536C9.45898 8.6542 9.8001 9.0748 10.2209 9.0748Z" fill="#EEEFEE"/>
<path d="M8.96274 10.403C9.15034 10.403 9.30243 10.2155 9.30243 9.98415C9.30243 9.75283 9.15034 9.56531 8.96274 9.56531C8.77513 9.56531 8.62305 9.75283 8.62305 9.98415C8.62305 10.2155 8.77513 10.403 8.96274 10.403Z" fill="#EEEFEE"/>
<path d="M3.05885 5.6178C3.41603 5.6178 3.70559 5.26078 3.70559 4.82038C3.70559 4.37997 3.41603 4.02295 3.05885 4.02295C2.70166 4.02295 2.41211 4.37997 2.41211 4.82038C2.41211 5.26078 2.70166 5.6178 3.05885 5.6178Z" fill="#EF5261"/>
<path d="M16.1459 11.0745C16.1473 12.3889 15.809 13.6696 15.1801 14.7308H14.4727C16.1819 12.374 16.1819 8.80999 14.4727 6.45325C15.5389 7.62939 16.1477 9.3105 16.1459 11.0745Z" fill="#464956"/>
<path d="M15.1785 14.7307C13.5421 17.5049 10.3916 18.1184 8.14158 16.1008C7.85063 15.8399 7.58316 15.5413 7.34375 15.2101C9.40912 17.505 12.5923 17.3011 14.4536 14.7545C14.4594 14.7465 14.4652 14.7386 14.471 14.7306H15.1785V14.7307Z" fill="#BBBBCD"/>
</svg>
