<svg width="24" height="26" viewBox="0 0 24 26" fill="none" xmlns="http://www.w3.org/2000/svg">
<path d="M12.6877 0.539196C12.4987 0.370849 12.2544 0.277832 12.0013 0.277832C11.7482 0.277832 11.5039 0.370849 11.3149 0.539196C10.0486 1.66343 9.11833 3.11621 8.62695 4.73662C8.13558 6.35704 8.10232 8.08184 8.53086 9.72C6.50033 8.52161 4.14761 7.98374 1.79806 8.1808C1.65857 8.19227 1.52272 8.23124 1.39835 8.29545C1.27399 8.35966 1.16356 8.44785 1.07343 8.55494C0.983296 8.66202 0.915249 8.78588 0.873207 8.91938C0.831164 9.05289 0.815956 9.19339 0.828461 9.3328C1.02686 11.5168 2.05086 13.6848 3.47006 15.3648C2.91309 15.3293 2.35425 15.3346 1.79806 15.3808C1.65857 15.3923 1.52272 15.4312 1.39835 15.4954C1.27399 15.5597 1.16356 15.6479 1.07343 15.7549C0.983296 15.862 0.915249 15.9859 0.873207 16.1194C0.831164 16.2529 0.815956 16.3934 0.828461 16.5328C1.05843 19.0648 2.22674 21.4194 4.10395 23.1341C5.98116 24.8487 8.43161 25.7996 10.9741 25.8H13.0285C15.5707 25.7997 18.0209 24.849 19.8981 23.1347C21.7752 21.4203 22.9437 19.0661 23.1741 16.5344C23.1868 16.3949 23.1717 16.2542 23.1298 16.1205C23.0879 15.9868 23.0199 15.8628 22.9297 15.7555C22.8396 15.6482 22.729 15.5599 22.6046 15.4956C22.4801 15.4313 22.3441 15.3923 22.2045 15.3808C21.6483 15.3346 21.0894 15.3292 20.5325 15.3648C21.9517 13.6848 22.9757 11.5168 23.1741 9.3328C23.1863 9.19343 23.171 9.05301 23.1289 8.9196C23.0867 8.78619 23.0187 8.66241 22.9286 8.55537C22.8385 8.44833 22.7281 8.36014 22.6039 8.29586C22.4796 8.23158 22.3439 8.19248 22.2045 8.1808C19.8549 7.98374 17.5022 8.52161 15.4717 9.72C15.9002 8.08184 15.8669 6.35704 15.3756 4.73662C14.8842 3.11621 13.9539 1.66343 12.6877 0.539196ZM12.0013 20.0848C10.633 18.1864 8.71523 16.7534 6.50686 15.9792C6.48879 15.9646 6.4701 15.9507 6.45086 15.9376C4.53086 14.6304 2.90526 12.2 2.49406 9.7456C4.90175 9.68356 7.24792 10.5106 9.08446 12.0688C10.3005 13.0976 10.6333 14.0368 10.9341 14.8816C11.0429 15.1856 11.1469 15.4784 11.2861 15.7568C11.3526 15.8895 11.4547 16.0011 11.581 16.0791C11.7073 16.157 11.8528 16.1983 12.0013 16.1983C12.1497 16.1983 12.2952 16.157 12.4215 16.0791C12.5478 16.0011 12.6499 15.8895 12.7165 15.7568C12.8573 15.4784 12.9613 15.1856 13.0685 14.88C13.3693 14.0384 13.7037 13.0976 14.9181 12.0688C16.7548 10.5097 19.1016 9.68201 21.5101 9.744C21.0973 12.2 19.4733 14.6304 17.5517 15.9376C17.5324 15.9506 17.5137 15.9645 17.4957 15.9792C15.2872 16.7533 13.3695 18.1863 12.0013 20.0848ZM10.9741 24.2C8.92743 24.1996 6.9482 23.4684 5.3929 22.1381C3.83759 20.8078 2.80845 18.9658 2.49086 16.944C4.27743 16.8986 6.04245 17.3422 7.59532 18.2268C9.14819 19.1113 10.4299 20.4033 11.3021 21.9632C11.3714 22.0879 11.4727 22.1917 11.5957 22.264C11.7186 22.3363 11.8586 22.3745 12.0013 22.3745C12.1439 22.3745 12.2839 22.3363 12.4069 22.264C12.5298 22.1917 12.6312 22.0879 12.7005 21.9632C13.5726 20.4033 14.8543 19.1113 16.4072 18.2268C17.9601 17.3422 19.7251 16.8986 21.5117 16.944C21.1941 18.9658 20.1649 20.8078 18.6096 22.1381C17.0543 23.4684 15.0751 24.1996 13.0285 24.2H10.9741ZM12.0013 12.7056C10.6124 11.2885 9.83439 9.38341 9.83439 7.3992C9.83439 5.41498 10.6124 3.50985 12.0013 2.0928C13.3902 3.50985 14.1681 5.41498 14.1681 7.3992C14.1681 9.38341 13.3902 11.2885 12.0013 12.7056Z" fill="url(#paint0_linear_2557_1310)"/>
<defs>
<linearGradient id="paint0_linear_2557_1310" x1="12.0012" y1="25.6779" x2="12.0012" y2="-0.389698" gradientUnits="userSpaceOnUse">
<stop stop-color="#EEEEEE"/>
<stop offset="1" stop-color="white"/>
</linearGradient>
</defs>
</svg>
