<svg width="42" height="38" viewBox="0 0 42 30" fill="none" xmlns="http://www.w3.org/2000/svg">
<g filter="url(#filter0_d_2154_1506)">
<path d="M36.9396 4.2335C35.5156 1.37534 31.4138 -0.963148 26.6425 0.398373C24.3625 1.04249 22.3733 2.4238 20.9998 4.31664C19.6263 2.4238 17.637 1.04249 15.3571 0.398373C10.5751 -0.942362 6.48388 1.37534 5.05992 4.2335C3.06213 8.23491 3.891 12.7352 7.52528 17.6097C10.3732 21.424 14.4432 25.2903 20.3515 29.7802C20.5383 29.9226 20.7683 30 21.0051 30C21.2419 30 21.4719 29.9226 21.6586 29.7802C27.5564 25.3007 31.637 21.4656 34.4849 17.6097C38.1085 12.7352 38.9374 8.23491 36.9396 4.2335V4.2335Z" fill="url(#paint0_linear_2154_1506)"/>
<path d="M26.7784 0.879542L26.7797 0.87918C31.328 -0.418717 35.1794 1.82177 36.4921 4.45646L36.9396 4.2335L36.4923 4.45684C38.3757 8.22917 37.6417 12.5251 34.0836 17.3114L34.0827 17.3126C31.2751 21.114 27.2365 24.9158 21.3562 29.382L21.3554 29.3827C21.2565 29.458 21.1333 29.5 21.0051 29.5C20.8769 29.5 20.7536 29.458 20.6548 29.3827L20.6541 29.3821C14.7649 24.9068 10.735 21.0729 7.92593 17.3105C4.35768 12.5245 3.62398 8.22891 5.50726 4.45684L5.50745 4.45646C6.81919 1.82356 10.6595 -0.399165 15.2216 0.879663C17.3948 1.49372 19.2886 2.80977 20.5951 4.61029L20.9998 5.168L21.4044 4.61029C22.711 2.80965 24.605 1.49355 26.7784 0.879542Z" stroke="#D7EAFF"/>
</g>
<defs>
<filter id="filter0_d_2154_1506" x="0" y="0" width="42" height="38" filterUnits="userSpaceOnUse" color-interpolation-filters="sRGB">
<feFlood flood-opacity="0" result="BackgroundImageFix"/>
<feColorMatrix in="SourceAlpha" type="matrix" values="0 0 0 0 0 0 0 0 0 0 0 0 0 0 0 0 0 0 127 0" result="hardAlpha"/>
<feOffset dy="4"/>
<feGaussianBlur stdDeviation="2"/>
<feColorMatrix type="matrix" values="0 0 0 0 0 0 0 0 0 0 0 0 0 0 0 0 0 0 0.25 0"/>
<feBlend mode="normal" in2="BackgroundImageFix" result="effect1_dropShadow_2154_1506"/>
<feBlend mode="normal" in="SourceGraphic" in2="effect1_dropShadow_2154_1506" result="shape"/>
</filter>
<linearGradient id="paint0_linear_2154_1506" x1="34.7256" y1="45" x2="-15.1156" y2="42.0742" gradientUnits="userSpaceOnUse">
<stop stop-color="#ED1C24"/>
<stop offset="1" stop-color="#BE1E2D"/>
</linearGradient>
</defs>
</svg>

