<svg width="22" height="29" viewBox="0 0 22 29" fill="none" xmlns="http://www.w3.org/2000/svg">
<path d="M16.0574 12.7867C16.5 12.4361 16.9214 12.0641 17.32 11.6667L17.5014 11.4774C17.8787 11.0867 18.2374 10.6801 18.5694 10.2521L18.652 10.1521C18.992 9.70542 19.3 9.23475 19.588 8.75341L19.7587 8.46008C20.032 7.97475 20.2854 7.47742 20.504 6.96275C20.5307 6.90008 20.5507 6.83608 20.5774 6.77341C20.7734 6.29208 20.9427 5.79875 21.088 5.29475C21.116 5.20142 21.1467 5.10808 21.172 5.01342C21.3147 4.47742 21.424 3.92941 21.5067 3.37475C21.524 3.25875 21.5347 3.14141 21.5494 3.02408C21.6174 2.44808 21.6654 1.86541 21.6654 1.27608V0.666748H18.9987V1.27608C18.9987 1.52141 18.9574 1.75741 18.9427 2.00008H3.02803C3.0147 1.75875 2.9987 1.52008 2.9987 1.27608V0.666748H0.332031V1.27608C0.332031 7.77741 4.6907 13.5667 10.9347 15.3681L10.972 15.3801C14.8134 16.4774 17.7134 19.5747 18.664 23.3334H3.33336L4.3987 20.6667H14.5414C13.8071 19.607 12.8727 18.7011 11.7907 18.0001H6.45736C7.0507 17.4347 7.73203 16.9681 8.44536 16.5467C7.47135 16.2058 6.54058 15.752 5.67203 15.1947C2.3987 17.7494 0.332031 21.7054 0.332031 26.0201V28.6667H2.9987V26.0201L3.00003 26.0001H18.9974L18.9987 26.0201V28.6667H21.6654V26.0201C21.6654 20.9134 18.7867 16.2827 14.408 13.9267C14.903 13.6309 15.3803 13.3063 15.8374 12.9547C15.9107 12.8987 15.984 12.8454 16.0574 12.7867ZM14.4707 10.6481C13.5338 11.3999 12.4887 12.0058 11.3707 12.4454C11.248 12.4934 11.124 12.5361 11 12.5814C9.4285 12.0252 7.99095 11.1458 6.78003 10.0001H15.1694C14.9414 10.2147 14.7267 10.4441 14.48 10.6401L14.4707 10.6481ZM18.4907 4.66675C18.484 4.68808 18.4814 4.71075 18.4747 4.73208L18.416 4.93341C18.2298 5.50608 18.0012 6.06407 17.732 6.60275C17.604 6.85608 17.448 7.08942 17.304 7.33342H4.66403C4.171 6.49451 3.78107 5.59914 3.5027 4.66675H18.4907Z" fill="url(#paint0_linear_2557_1308)"/>
<defs>
<linearGradient id="paint0_linear_2557_1308" x1="10.9985" y1="28.5328" x2="10.9985" y2="-0.0655896" gradientUnits="userSpaceOnUse">
<stop stop-color="#EEEEEE"/>
<stop offset="1" stop-color="white"/>
</linearGradient>
</defs>
</svg>
