<svg width="30" height="32" viewBox="0 0 30 32" fill="none" xmlns="http://www.w3.org/2000/svg">
<path fill-rule="evenodd" clip-rule="evenodd" d="M8.63863 2.54455C10.2533 2.67027 11.6926 3.43817 12.7132 4.59924L14.4974 2.77303L15.6609 3.96394L13.6532 6.01895C14.0546 6.85221 14.2802 7.79015 14.2802 8.78198C14.2802 10.7376 14.9507 12.533 16.0692 13.9404L17.9295 12.0362L19.0931 13.2271L17.2327 15.1314C18.6077 16.2761 20.3618 16.9624 22.2724 16.9624C22.8114 16.9624 23.3342 17.0339 23.8321 17.168L25.2034 14.7368L26.6285 15.5789L25.364 17.8206C27.1711 18.9074 28.3841 20.9177 28.3841 23.218C28.3841 24.1338 28.1918 25.0035 27.8464 25.7874L30 27.06L29.1773 28.5186L26.9732 27.2161C25.8521 28.5955 24.1624 29.4737 22.2724 29.4737C22.1152 29.4737 21.9586 29.4718 21.8023 29.4682V32H20.1568V29.3618C17.6293 29.0927 15.2401 28.3469 13.0768 27.214L11.8193 29.4433L10.3943 28.6012L11.6436 26.3863C10.0194 25.3566 8.54822 24.0982 7.27315 22.6547L5.10683 24.8721L3.94325 23.6812L6.2157 21.3552C4.86832 19.5552 3.80322 17.522 3.08836 15.3251L0.624277 16.0008L0.198401 14.374L2.63281 13.7064C2.25639 12.1281 2.05682 10.4789 2.05682 8.78198C2.05682 8.20851 2.1322 7.65314 2.27338 7.12556L0 5.78206L0.822727 4.32354L2.92522 5.56598C3.80075 4.07371 5.2671 2.98603 6.99318 2.64188V0H8.63863V2.54455ZM8.16853 4.21053C5.70191 4.21053 3.70227 6.25726 3.70227 8.78198C3.70227 19.2795 12.0164 27.7895 22.2724 27.7895C24.739 27.7895 26.7386 25.7427 26.7386 23.218C26.7386 20.6933 24.739 18.6467 22.2724 18.6467C16.9497 18.6467 12.6347 14.2301 12.6347 8.78198C12.6347 6.25726 10.6351 4.21053 8.16853 4.21053ZM7.81591 8.42105C7.36151 8.42105 6.99318 8.79806 6.99318 9.26316C6.99318 9.72825 7.36151 10.1053 7.81591 10.1053C8.2703 10.1053 8.63863 9.72825 8.63863 9.26316C8.63863 8.79806 8.2703 8.42105 7.81591 8.42105ZM5.34773 9.26316C5.34773 7.86787 6.45273 6.73684 7.81591 6.73684C9.17908 6.73684 10.2841 7.86787 10.2841 9.26316C10.2841 10.6584 9.17908 11.7895 7.81591 11.7895C6.45273 11.7895 5.34773 10.6584 5.34773 9.26316ZM14.3977 21.0526C14.3977 20.5875 14.7661 20.2105 15.2205 20.2105C15.6748 20.2105 16.0432 20.5875 16.0432 21.0526C16.0432 21.5177 15.6748 21.8947 15.2205 21.8947C14.7661 21.8947 14.3977 21.5177 14.3977 21.0526ZM15.2205 18.5263C13.8573 18.5263 12.7523 19.6573 12.7523 21.0526C12.7523 22.4479 13.8573 23.5789 15.2205 23.5789C16.5836 23.5789 17.6886 22.4479 17.6886 21.0526C17.6886 19.6573 16.5836 18.5263 15.2205 18.5263ZM11.1068 16C11.1068 16.9302 10.3701 17.6842 9.46136 17.6842C8.55258 17.6842 7.81591 16.9302 7.81591 16C7.81591 15.0698 8.55258 14.3158 9.46136 14.3158C10.3701 14.3158 11.1068 15.0698 11.1068 16ZM21.8023 24.4211C22.7111 24.4211 23.4477 23.667 23.4477 22.7368C23.4477 21.8067 22.7111 21.0526 21.8023 21.0526C20.8935 21.0526 20.1568 21.8067 20.1568 22.7368C20.1568 23.667 20.8935 24.4211 21.8023 24.4211Z" fill="#333333"/>
</svg>
