<svg width="17" height="31" viewBox="0 0 17 31" fill="none" xmlns="http://www.w3.org/2000/svg">
<path fill-rule="evenodd" clip-rule="evenodd" d="M4.5 4C4.5 1.7909 6.2909 0 8.5 0C10.7091 0 12.5 1.7909 12.5 4C12.5 6.2091 10.7091 8 8.5 8C6.2909 8 4.5 6.2091 4.5 4ZM8.5 2C7.3954 2 6.5 2.8954 6.5 4C6.5 5.1046 7.3954 6 8.5 6C9.6046 6 10.5 5.1046 10.5 4C10.5 2.8954 9.6046 2 8.5 2Z" fill="#333333"/>
<path fill-rule="evenodd" clip-rule="evenodd" d="M3.0762 10.3835C1.2697 11.1372 0 12.9203 0 15V17C0 18.7723 0.921599 20.3277 2.3105 21.2155L1.0856 23.0303C0.2526 24.2644 1.013 25.9639 2.5228 26.1176C4.1202 26.2802 6.6195 26.5 8.5 26.5C10.3805 26.5 12.8798 26.2802 14.4772 26.1176C15.987 25.9639 16.7474 24.2644 15.9144 23.0303L14.6895 21.2155C16.0784 20.3277 17 18.7723 17 17V15C17 12.9203 15.7303 11.1372 13.9238 10.3835C13.9729 10.2654 14 10.1359 14 10C14 9.4477 13.5523 9 13 9H4C3.4477 9 3 9.4477 3 10C3 10.1359 3.0271 10.2654 3.0762 10.3835ZM2 15C2 13.3431 3.3431 12 5 12H6C6 12.9625 5.995 13.7813 5.9453 14.4824C5.8953 15.1888 5.8034 15.7069 5.6616 16.0841C5.5273 16.4411 5.3634 16.6336 5.1709 16.7547C5.1223 16.7853 5.0659 16.815 5 16.8427V15H3V19.2364C2.386 18.6866 2 17.8878 2 17V15ZM5.3654 20.2646L5 20.1486V18.9145C5.4511 18.8304 5.8659 18.6804 6.2361 18.4474C6.8806 18.0419 7.2837 17.4524 7.5335 16.7882C7.7758 16.144 7.8852 15.4015 7.9403 14.6238C7.9958 13.8409 8 12.9524 8 12H9C9 12.9524 9.0042 13.8409 9.0597 14.6238C9.1148 15.4015 9.2242 16.144 9.4665 16.7882C9.7163 17.4524 10.1194 18.0419 10.7639 18.4474C11.1341 18.6804 11.5489 18.8304 12 18.9145V20.1486L11.6346 20.2646L14.2444 24.131C12.6498 24.2929 10.2585 24.5 8.5 24.5C6.7415 24.5 4.3502 24.2929 2.7556 24.131L5.3654 20.2646ZM14 19.2364C14.614 18.6866 15 17.8878 15 17V15C15 13.3431 13.6569 12 12 12H11C11 12.9625 11.005 13.7813 11.0547 14.4824C11.1047 15.1888 11.1966 15.7069 11.3384 16.0841C11.4727 16.4411 11.6366 16.6336 11.8291 16.7547C11.8777 16.7853 11.9341 16.815 12 16.8427V15H14V19.2364Z" fill="#333333"/>
<path d="M6.7704 28.1441C5.7177 28.0884 4.6416 27.9799 3.5 27.8174V29.0003C3.5 29.7556 4.0616 30.3931 4.8109 30.4883C5.5602 30.5835 6.2634 30.1068 6.4523 29.3755L6.7704 28.1441Z" fill="#333333"/>
<path d="M10.2277 28.1365L10.5477 29.3753C10.7366 30.1066 11.4398 30.5833 12.1891 30.4881C12.9384 30.3929 13.5 29.7554 13.5 29.0001V27.8027C12.3578 27.9651 11.2811 28.0767 10.2277 28.1365Z" fill="#333333"/>
</svg>
