<svg width="24" height="24" viewBox="0 0 24 24" fill="none" xmlns="http://www.w3.org/2000/svg">
<path opacity="0.4" fill-rule="evenodd" clip-rule="evenodd" d="M12 22.8C6.03534 22.8 1.2 17.9647 1.2 12C1.2 6.03534 6.03534 1.2 12 1.2C17.9647 1.2 22.8 6.03534 22.8 12C22.8 17.9647 17.9647 22.8 12 22.8ZM0 12C0 5.37258 5.37258 0 12 0C18.6274 0 24 5.37258 24 12C24 18.6274 18.6274 24 12 24C5.37258 24 0 18.6274 0 12ZM9.5949 17.4287V13.2287H14.3949V17.4287H16.7949V6.62874H14.3949V10.8287H9.5949V6.62874H7.1949V17.4287H9.5949Z" fill="#333333"/>
</svg>
