<svg width="30" height="35" viewBox="0 0 30 35" fill="none" xmlns="http://www.w3.org/2000/svg">
<path d="M7.51257 13.9335L12.7291 13.1009L9.34308 9.27905L7.51257 13.9335Z" fill="#333333"/>
<path d="M12.1985 9.95648L13.7429 7.03162L16.6666 8.57647L15.1223 11.5013L12.1985 9.95648Z" fill="#333333"/>
<path fill-rule="evenodd" clip-rule="evenodd" d="M18.9103 14.0494C18.3886 14.4196 17.7713 14.6178 17.1395 14.6178C16.6618 14.6178 16.5223 14.5045 16.2571 14.2892C16.1717 14.2198 16.073 14.1397 15.9457 14.0494C15.7992 14.2107 15.7317 14.3576 15.6716 14.4884C15.5814 14.6847 15.5077 14.8449 15.2085 14.964C14.6764 15.2365 14.2284 15.6587 13.9154 16.1826C13.6024 16.7065 13.4369 17.311 13.4377 17.9276V21.4007H9.27657C9.19187 20.6567 8.94783 19.9418 8.56237 19.3087C8.17691 18.6756 7.65974 18.1404 7.04909 17.7424C6.51905 17.5056 6.06142 17.1226 5.72577 16.6349C5.39012 16.1472 5.18908 15.5734 5.14455 14.9755C4.59293 14.3684 4.28602 13.5647 4.28705 12.7296C4.28278 12.0096 4.51019 11.3087 4.93301 10.7384C4.85513 10.4562 4.8176 10.1636 4.82161 9.87013C4.8205 9.16808 5.03639 8.48429 5.43746 7.91952L7.04909 6.73278C7.29629 6.15489 7.69923 5.66367 8.20906 5.31861C8.71898 4.97345 9.3141 4.78914 9.92254 4.78783C10.1738 4.78944 10.4241 4.8205 10.6687 4.88045C11.1863 4.37916 11.8512 4.07347 12.5562 4.01257L16.7978 4.26045C17.5535 4.45468 18.2141 4.93076 18.6542 5.59821H18.877L20.8553 6.3179C21.4165 6.78547 21.807 7.43831 21.962 8.16826C22.6409 8.47473 23.198 9.01419 23.5401 9.69651C23.8821 10.3788 23.9882 11.1626 23.8408 11.9165C23.6934 12.6705 23.3013 13.349 22.7303 13.8384L20.7035 14.6051C20.0654 14.6127 19.4402 14.419 18.9103 14.0494ZM20.539 13.3406C20.189 13.3192 19.8538 13.21 19.5633 13.0288L18.9051 12.5702C18.7157 12.7191 18.2733 13.0464 18.0196 13.1643C17.7024 13.3116 17.0042 13.3558 17.0042 13.3558C17.0042 13.3558 16.4804 12.9092 15.8056 12.4645C15.7064 12.5734 15.4447 12.8598 15.1926 13.1348C14.9406 13.4098 14.7881 13.7093 14.7434 13.8247C14.5185 13.9417 13.9788 14.2745 13.6195 14.6693C13.1703 15.1628 12.3478 16.2051 12.3478 17.9033V20.1446H10.1409C9.92748 19.3688 9.29883 17.8515 7.81729 16.8089L7.82061 16.806C7.74342 16.7501 7.66495 16.6962 7.58528 16.6443L7.51644 16.5995L7.44283 16.5666C7.08355 16.4061 6.78816 16.153 6.57944 15.8496C6.37157 15.5477 6.25599 15.2064 6.23048 14.8643L6.19525 14.3905L5.89697 14.0623C5.54835 13.6787 5.37639 13.1986 5.3769 12.7277V12.7226V12.7174C5.37451 12.3135 5.5011 11.9026 5.76134 11.5516L6.15542 11.0201L5.9716 10.3537C5.92921 10.1998 5.90925 10.0425 5.91138 9.88604L5.91155 9.87508V9.86421C5.91104 9.51863 6.00248 9.16878 6.1886 8.85414L7.89192 7.59984L8.02644 7.28538C8.17392 6.94066 8.42325 6.6275 8.76077 6.39902C9.09787 6.17089 9.50091 6.04291 9.92049 6.04126C10.0967 6.04265 10.2717 6.06464 10.4422 6.10638L10.9623 6.23383L11.3696 5.83947C11.6897 5.52944 12.1117 5.32269 12.5758 5.2687L16.642 5.50631C17.1273 5.65194 17.5273 5.96214 17.7866 6.35537L18.1137 6.85163H18.7091L20.341 7.44526C20.6353 7.73365 20.8245 8.09236 20.9033 8.46369L21.0379 9.09748L21.5648 9.33527C22.0302 9.54523 22.3868 9.90351 22.5965 10.322C22.8043 10.7365 22.8634 11.1975 22.7776 11.6363C22.7012 12.0272 22.5081 12.4057 22.204 12.7108L20.539 13.3406Z" fill="#333333"/>
<path d="M23.8867 17.0212C23.8873 17.7414 23.315 18.3258 22.6083 18.3264C21.9016 18.327 21.3284 17.7436 21.3278 17.0234C21.3272 16.3031 21.8996 15.7187 22.6062 15.7181C23.3128 15.7176 23.8861 16.301 23.8867 17.0212Z" fill="#333333"/>
<path d="M9.39199 24.4235L12.8039 24.4207L12.8026 22.6819L9.39062 22.6847L9.39199 24.4235Z" fill="#333333"/>
<path d="M12.8067 27.8982L9.3948 27.901L9.39343 26.1622L12.8054 26.1594L12.8067 27.8982Z" fill="#333333"/>
<path d="M9.39773 31.3787L12.8097 31.3759L12.8083 29.6371L9.39636 29.6399L9.39773 31.3787Z" fill="#333333"/>
<path fill-rule="evenodd" clip-rule="evenodd" d="M17.8861 29.9248C16.864 29.7993 16.1799 29.6196 16.1799 29.6196L16.1823 32.6045C16.1823 32.6045 15.471 34.9834 11.4293 34.9868C9.52635 35.1467 6.26796 33.8403 5.40295 31.9951L5.39706 24.6104C2.352 22.2226 0.00335646 17.2658 4.23546e-06 13.0918C-0.00278502 9.62258 1.37217 6.29423 3.82237 3.83905C6.27265 1.38387 9.59741 0.00293036 13.0654 3.52293e-05C15.7136 -0.00518121 18.3309 0.568967 20.734 1.68226C22.6277 2.47816 24.2861 3.74589 25.5513 5.36466C26.7067 7.06531 27.348 9.06295 27.3984 11.1187C27.4091 11.5822 27.4036 12.063 27.398 12.5527C27.3778 14.3241 27.3563 16.2114 28.0932 17.8132C28.0932 17.8132 30.2583 19.8567 29.9743 21.498C29.6904 23.1393 26.8735 23.5935 26.8735 23.5935C26.8788 30.1951 20.9065 30.2959 17.8861 29.9248ZM26.5487 18.5514L26.6899 18.8585L26.9313 19.0863L26.9322 19.0871L26.9392 19.094L26.9576 19.112L26.9864 19.1409C27.0305 19.1853 27.0975 19.2543 27.1788 19.3433C27.3441 19.5241 27.5563 19.7735 27.7558 20.0561C27.9599 20.3451 28.1193 20.6246 28.2127 20.8665C28.2725 21.0211 28.2884 21.1168 28.2926 21.1634C28.2813 21.176 28.2649 21.1929 28.2414 21.214C28.125 21.3186 27.9276 21.4414 27.6532 21.5596C27.3888 21.6735 27.1177 21.7558 26.9054 21.8098C26.8018 21.836 26.7182 21.8541 26.6643 21.865L26.6302 21.8717L26.6084 21.8757L26.6003 21.8771L25.1663 22.1084L25.1675 23.5949C25.169 25.4175 24.6336 26.4128 24.0251 27.0073C23.3717 27.6457 22.4212 28.0282 21.2804 28.1997C20.1492 28.3698 18.9777 28.3095 18.0593 28.1947C17.6069 28.1382 17.2317 28.0704 16.9737 28.018C16.8451 27.9918 16.7466 27.9696 16.6833 27.9547C16.6517 27.9473 16.629 27.9417 16.6158 27.9384L16.6054 27.9358L16.6043 27.9355L16.6034 27.9353L14.4721 27.3757L14.476 32.1882C14.4192 32.2668 14.3346 32.3666 14.2128 32.4727C13.877 32.7653 13.0966 33.2466 11.4279 33.2479L11.3584 33.248L11.2891 33.2539C10.7142 33.3022 9.72075 33.1173 8.73231 32.6597C7.92462 32.2858 7.38596 31.8544 7.10857 31.5049L7.10234 23.7537L6.43727 23.2322C5.17699 22.244 3.97991 20.649 3.09635 18.7695C2.2148 16.8945 1.7074 14.8677 1.70597 13.0904C1.70356 10.0929 2.89124 7.21041 5.01842 5.07906C7.14661 2.9465 10.0411 1.74138 13.0667 1.73885H13.0687C15.4731 1.73411 17.8485 2.25546 20.028 3.26522L20.0557 3.278L20.0836 3.28977C21.6939 3.96654 23.1026 5.03855 24.1809 6.40239C25.1278 7.81526 25.6511 9.46566 25.6929 11.1607C25.7028 11.591 25.6977 12.0378 25.6922 12.5297L25.6895 12.7613C25.6835 13.3313 25.68 13.9514 25.7072 14.5787C25.7613 15.8237 25.9393 17.227 26.5487 18.5514Z" fill="#333333"/>
</svg>
