<svg width="30" height="30" viewBox="0 0 30 30" fill="#333333" xmlns="http://www.w3.org/2000/svg">
<path fill-rule="evenodd" clip-rule="evenodd" d="M15 30C23.2843 30 30 23.2843 30 15C30 6.71574 23.2843 0 15 0C6.71574 0 0 6.71574 0 15C0 23.2843 6.71574 30 15 30ZM15 28.3333C22.3638 28.3333 28.3333 22.3638 28.3333 15C28.3333 11.1131 26.6702 7.61467 24.0167 5.17758C23.8052 5.56808 23.3919 5.83333 22.9167 5.83333C22.2263 5.83333 21.6667 5.27367 21.6667 4.58333C21.6667 4.22893 21.8142 3.909 22.0511 3.6815C20.0057 2.40457 17.589 1.66667 15 1.66667C12.777 1.66667 10.6811 2.21068 8.83807 3.17285C9.04449 3.45033 9.16667 3.79425 9.16667 4.16667C9.16667 5.08717 8.4205 5.83333 7.5 5.83333C6.91318 5.83333 6.39708 5.53 6.10017 5.07158C3.37875 7.51266 1.66667 11.0564 1.66667 15C1.66667 15.8495 1.74611 16.6804 1.89796 17.4858C2.18813 16.9955 2.72232 16.6667 3.33333 16.6667C4.25383 16.6667 5 17.4128 5 18.3333C5 19.2538 4.25383 20 3.33333 20C3.05457 20 2.79178 19.9316 2.56087 19.8106C4.1055 23.8019 7.51575 26.8641 11.722 27.9274C11.6859 27.791 11.6667 27.6478 11.6667 27.5C11.6667 26.5795 12.4128 25.8333 13.3333 25.8333C14.2538 25.8333 15 26.5795 15 27.5C15 27.8028 14.9192 28.0867 14.7781 28.3315C14.8519 28.3327 14.9259 28.3333 15 28.3333ZM15.4166 6.66663C16.107 6.66663 16.6666 6.10696 16.6666 5.41663C16.6666 4.72629 16.107 4.16663 15.4166 4.16663C14.7263 4.16663 14.1666 4.72629 14.1666 5.41663C14.1666 6.10696 14.7263 6.66663 15.4166 6.66663ZM7.94164 8.46007C7.58397 8.23657 7.11572 8.31549 6.85114 8.64381C6.58647 8.97215 6.60889 9.44649 6.90331 9.74849C7.23697 10.0907 7.66238 10.422 8.00365 10.6877C8.1169 10.7758 8.22089 10.8568 8.30922 10.9286C8.48357 11.0702 8.60614 11.1808 8.68739 11.2698C8.61397 11.3513 8.50206 11.4542 8.34064 11.5855C8.23964 11.6677 8.11075 11.7662 7.96812 11.8752L7.96281 11.8792C7.6358 12.129 7.23622 12.4343 6.92581 12.7294C6.61581 13.0242 6.57922 13.5058 6.84131 13.8439C7.10339 14.182 7.57889 14.2668 7.94164 14.0401L11.275 11.9567C11.5186 11.8045 11.6666 11.5374 11.6666 11.2501C11.6666 10.9627 11.5186 10.6957 11.275 10.5434L7.94164 8.46007ZM15 15.8334C18.3651 15.8334 21.2818 17.8653 22.7151 20.8334C23.1058 21.6425 22.4515 22.5 21.5531 22.5H8.4469C7.54848 22.5 6.89415 21.6425 7.2849 20.8334C8.71815 17.8653 11.6349 15.8334 15 15.8334ZM20.8148 20.8334C19.5437 18.7961 17.3914 17.5 15 17.5C12.6086 17.5 10.4562 18.7961 9.18515 20.8334H20.8148ZM22.0584 8.46007C22.416 8.23657 22.8843 8.31549 23.1489 8.64381C23.4135 8.97215 23.3911 9.44649 23.0967 9.74849C22.763 10.0907 22.3376 10.422 21.9964 10.6876C21.8831 10.7758 21.7791 10.8568 21.6908 10.9286C21.5165 11.0702 21.3939 11.1808 21.3126 11.2698C21.386 11.3513 21.498 11.4542 21.6594 11.5855C21.7617 11.6687 21.8923 11.7685 22.0372 11.8792C22.3642 12.129 22.7638 12.4343 23.0742 12.7294C23.3843 13.0242 23.4208 13.5058 23.1587 13.8439C22.8966 14.182 22.4211 14.2668 22.0584 14.0401L18.725 11.9567C18.4814 11.8045 18.3334 11.5374 18.3334 11.2501C18.3334 10.9627 18.4814 10.6957 18.725 10.5434L22.0584 8.46007ZM26.6666 17.9166C26.6666 18.607 26.107 19.1666 25.4166 19.1666C24.7263 19.1666 24.1666 18.607 24.1666 17.9166C24.1666 17.2263 24.7263 16.6666 25.4166 16.6666C26.107 16.6666 26.6666 17.2263 26.6666 17.9166Z"/>
</svg>