<svg width="30" height="25" viewBox="0 0 30 25" fill="none" xmlns="http://www.w3.org/2000/svg">
<path fill-rule="evenodd" clip-rule="evenodd" d="M7.59358 7.14278C9.4575 7.14278 10.9684 5.54378 10.9684 3.57139C10.9684 1.599 9.4575 0 7.59358 0C5.72975 0 4.21875 1.599 4.21875 3.57139C4.21875 5.54378 5.72975 7.14278 7.59358 7.14278ZM7.59358 5.35708C8.52554 5.35708 9.281 4.55763 9.281 3.57139C9.281 2.58515 8.52554 1.78569 7.59358 1.78569C6.66162 1.78569 5.90617 2.58515 5.90617 3.57139C5.90617 4.55763 6.66162 5.35708 7.59358 5.35708Z" fill="#333333"/>
<path d="M10.3506 11.9664L5.54245 9.82141L10.3506 11.9678V11.9664Z" fill="#333333"/>
<path d="M10.3506 11.9664L10.4957 12.0311L10.3506 11.799V11.9664Z" fill="#333333"/>
<path fill-rule="evenodd" clip-rule="evenodd" d="M3.22339 8.91912C3.69826 8.53876 4.4986 8.03564 5.54244 8.03564H9.75802C10.9077 8.03564 11.7661 8.67733 12.1834 9.03394C12.6734 9.45277 13.0963 9.95651 13.424 10.3865C13.9455 11.0708 14.4284 11.8465 14.7023 12.2864L14.7081 12.2958C14.7748 12.4029 14.8258 12.4848 14.8636 12.5437C15.0385 12.8165 15.1595 13.1112 15.229 13.4137C15.2906 13.0671 15.4201 12.7283 15.6215 12.4192C15.705 12.2909 15.8051 12.1314 15.9222 11.945L15.9321 11.9293C16.2523 11.4193 16.685 10.7303 17.1125 10.1673C17.4172 9.76616 17.8154 9.29438 18.2968 8.90456C18.7552 8.53332 19.535 8.03582 20.5563 8.03582H24.6306C25.7555 8.03582 26.5915 8.66992 26.993 9.01697C27.4669 9.42652 27.8756 9.91884 28.1919 10.3386C28.6955 11.0068 29.1619 11.7643 29.4266 12.1943L29.4299 12.1997L29.4323 12.2035L29.4373 12.2115C29.4993 12.3122 29.5469 12.3897 29.5826 12.446C30.3393 13.6392 30.0386 15.2558 28.9109 16.0567C28.4533 16.3816 27.9299 16.5223 27.4188 16.4951C27.6617 17.4259 27.8958 18.2723 28.0642 18.8686C28.3297 19.809 27.7969 20.8253 26.8563 21.0334C23.8098 21.707 21.656 21.686 18.382 21.0248C17.4218 20.8309 16.8622 19.7948 17.1453 18.8306C17.3191 18.2388 17.5566 17.4088 17.8002 16.4931C17.269 16.5288 16.7229 16.383 16.2506 16.0385C15.7367 15.6637 15.3995 15.1188 15.2599 14.5245C15.143 15.2081 14.7765 15.8433 14.1904 16.2642C13.5446 16.728 12.7687 16.8333 12.0727 16.623C12.0745 16.638 12.0763 16.6531 12.0778 16.6683L12.6403 22.0254C12.7917 23.4674 11.8307 24.7748 10.4726 24.9743C9.11461 25.1737 7.85335 24.1927 7.628 22.7615L7.59358 22.5429L7.55907 22.7615C7.33371 24.1927 6.07254 25.1737 4.71451 24.9743C3.35645 24.7748 2.39537 23.4674 2.54678 22.0254L2.98325 17.8684L3.02464 16.6749C2.37317 16.8119 1.67202 16.6788 1.08409 16.2453C-0.0627518 15.3994 -0.3445 13.7299 0.454804 12.5162C0.538044 12.3898 0.637255 12.2338 0.752827 12.0518L0.77629 12.0149C1.10754 11.4932 1.55544 10.7878 1.99816 10.2112C2.31386 9.80018 2.72598 9.3175 3.22339 8.91912ZM5.54244 9.82134C5.02145 9.82134 4.57766 10.0739 4.24169 10.3429C3.89889 10.6176 3.58504 10.9763 3.30768 11.3375C2.921 11.841 2.51548 12.4776 2.17539 13.0131L2.16389 13.0313C2.04629 13.2165 1.93479 13.392 1.83916 13.5373C1.57273 13.9418 1.66665 14.4983 2.04892 14.7802C2.43121 15.0622 2.95709 14.9628 3.22352 14.5582L4.87355 12.0493L4.66726 17.9999L4.22389 22.2226C4.17344 22.7032 4.49379 23.139 4.94644 23.2056C5.39909 23.2721 5.81951 22.945 5.89468 22.468L6.73308 17.1447L7.59855 16.9412L8.45551 17.1537L9.29246 22.468C9.36755 22.945 9.78797 23.2721 10.2406 23.2056C10.6934 23.139 11.0137 22.7032 10.9632 22.2226L10.4008 16.8655C10.396 16.8209 10.3884 16.7778 10.3781 16.7363L10.3506 16.625V11.9677L10.4969 12.033L11.898 14.2749C11.9603 14.3745 12.0176 14.4658 12.071 14.5491C12.3327 14.9571 12.8574 15.0634 13.243 14.7865C13.6285 14.5097 13.7289 13.9544 13.4673 13.5464C13.4227 13.4768 13.3661 13.3859 13.304 13.2861L10.4969 12.033L10.4957 12.031L13.302 13.2831L13.2991 13.2782C13.0214 12.8322 12.5774 12.1201 12.1105 11.5075C11.8163 11.1214 11.4795 10.7277 11.1231 10.4231C10.7914 10.1395 10.3152 9.82134 9.75802 9.82134H5.54244ZM19.2812 10.2657C19.6073 10.0016 20.0425 9.74991 20.5563 9.74991H24.6306C25.1806 9.74991 25.6475 10.067 25.9684 10.3445C26.3145 10.6436 26.641 11.0296 26.9256 11.4073C27.3773 12.0067 27.8068 12.7033 28.0751 13.1391L28.0778 13.1434C28.1386 13.2422 28.1941 13.3324 28.2377 13.401C28.4959 13.8083 28.3933 14.36 28.0084 14.6334C27.6248 14.9058 27.1054 14.7988 26.8464 14.3947C26.6258 14.0506 26.2036 13.9237 25.8451 14.0937C25.4865 14.2637 25.295 14.6816 25.3907 15.0848C25.7761 16.7063 26.2343 18.3746 26.512 19.3584C23.7071 19.9773 21.7726 19.9635 18.6915 19.3417L18.692 19.3393C18.986 18.3381 19.4645 16.6492 19.853 14.9957C19.9476 14.5931 19.756 14.1766 19.3983 14.0068C19.0406 13.8372 18.6193 13.963 18.3983 14.3056L18.3371 14.3999C18.074 14.8038 17.5514 14.9056 17.1698 14.6272C16.7881 14.3488 16.692 13.7958 16.955 13.3919C17.0473 13.2502 17.155 13.0788 17.2685 12.8979L17.2723 12.8918C17.6025 12.3661 17.9979 11.7377 18.3751 11.2411C18.6434 10.8878 18.9479 10.5357 19.2812 10.2657Z" fill="#333333"/>
<path fill-rule="evenodd" clip-rule="evenodd" d="M22.7805 7.14278C24.6444 7.14278 26.1553 5.54378 26.1553 3.57139C26.1553 1.599 24.6444 0 22.7805 0C20.9166 0 19.4056 1.599 19.4056 3.57139C19.4056 5.54378 20.9166 7.14278 22.7805 7.14278ZM22.7805 5.35708C23.7124 5.35708 24.4679 4.55763 24.4679 3.57139C24.4679 2.58515 23.7124 1.78569 22.7805 1.78569C21.8486 1.78569 21.0931 2.58515 21.0931 3.57139C21.0931 4.55763 21.8486 5.35708 22.7805 5.35708Z" fill="#333333"/>
<path d="M20.0812 24.9877C19.4528 24.8986 18.9836 24.3312 18.9836 23.6603V22.5566C19.9564 22.6868 20.8765 22.7681 21.7824 22.8012L21.4701 24.0126C21.3033 24.6599 20.7096 25.0767 20.0812 24.9877Z" fill="#333333"/>
<path d="M24.0904 24.0128L23.7771 22.7968C24.6834 22.7598 25.6038 22.6753 26.577 22.5444V23.6605C26.577 24.3314 26.1078 24.8988 25.4794 24.9879C24.851 25.0769 24.2573 24.6601 24.0904 24.0128Z" fill="#333333"/>
</svg>
