<svg width="25" height="25" viewBox="0 0 25 25" fill="#333333" xmlns="http://www.w3.org/2000/svg">
<path fill-rule="evenodd" clip-rule="evenodd" d="M6.02118 0.228821C5.87466 0.0823059 5.67595 0 5.46875 0C5.26155 0 5.06284 0.0823059 4.91632 0.228821C4.76981 0.375336 4.6875 0.574051 4.6875 0.78125V1.5625H3.125C2.2962 1.5625 1.50134 1.89174 0.915298 2.47778C0.329239 3.06384 0 3.8587 0 4.6875V21.875C0 22.7038 0.329239 23.4987 0.915298 24.0847C1.50134 24.6708 2.2962 25 3.125 25H21.875C22.7038 25 23.4987 24.6708 24.0847 24.0847C24.6708 23.4987 25 22.7038 25 21.875V4.6875C25 3.8587 24.6708 3.06384 24.0847 2.47778C23.4987 1.89174 22.7038 1.5625 21.875 1.5625H20.3125V0.78125C20.3125 0.574051 20.2302 0.375336 20.0837 0.228821C19.9372 0.0823059 19.7385 0 19.5312 0C19.324 0 19.1253 0.0823059 18.9788 0.228821C18.8323 0.375336 18.75 0.574051 18.75 0.78125V1.5625H6.25V0.78125C6.25 0.574051 6.16769 0.375336 6.02118 0.228821ZM1.5625 21.875V6.25H23.4375V21.875C23.4375 22.2894 23.2729 22.6868 22.9799 22.9799C22.6868 23.2729 22.2894 23.4375 21.875 23.4375H3.125C2.7106 23.4375 2.31317 23.2729 2.02016 22.9799C1.72713 22.6868 1.5625 22.2894 1.5625 21.875ZM10.0703 9.92813V18.2625H9.01562V11.0594H8.99689C8.5453 11.3047 7.61719 11.8719 7.03125 12.2734V11.1875C7.68826 10.7263 8.37288 10.3057 9.08125 9.92813H10.0703ZM14.5875 18.4203C12.8547 18.4203 12 17.2234 11.9266 16.2234H12.9953C13.0609 16.8016 13.5984 17.5047 14.6359 17.5047C15.9547 17.5047 16.6688 16.1797 16.675 14.1234H16.6328C16.3938 14.7703 15.6375 15.3578 14.4719 15.3578C13.1406 15.3578 11.8531 14.4047 11.8531 12.5922C11.8531 10.8156 13.2141 9.76562 14.6609 9.76562C16.4922 9.76562 17.7125 10.9125 17.7125 13.9344C17.7125 16.7547 16.5531 18.4203 14.5875 18.4203ZM14.6906 14.4469C15.6672 14.4469 16.5406 13.6906 16.5406 12.6031C16.5406 11.3031 15.7172 10.6812 14.7281 10.6812C13.8125 10.6812 12.9031 11.2859 12.9031 12.5719C12.9031 13.8484 13.7516 14.4469 14.6906 14.4469Z"/>
</svg>
