<svg width="20" height="35" viewBox="0 0 20 35" fill="none" xmlns="http://www.w3.org/2000/svg">
<path fill-rule="evenodd" clip-rule="evenodd" d="M10.5505 6.125C11.8748 6.125 12.9483 5.14562 12.9483 3.9375C12.9483 2.72938 11.8748 1.75 10.5505 1.75C9.22621 1.75 8.15265 2.72938 8.15265 3.9375C8.15265 5.14562 9.22621 6.125 10.5505 6.125ZM10.5505 7.875C12.9342 7.875 14.8666 6.11214 14.8666 3.9375C14.8666 1.76288 12.9342 0 10.5505 0C8.16675 0 6.23438 1.76288 6.23438 3.9375C6.23438 6.11214 8.16675 7.875 10.5505 7.875Z" fill="#333333"/>
<path fill-rule="evenodd" clip-rule="evenodd" d="M6.31063 9.89319C6.57267 9.78898 7.05799 9.625 7.67308 9.625H9.59135C10.139 9.625 10.5768 9.76876 10.6949 9.80753L10.7027 9.81006C10.8948 9.87306 11.0726 9.94621 11.2194 10.0114C11.5188 10.1444 11.8465 10.3149 12.1819 10.5077C12.8589 10.8969 13.6859 11.4455 14.5495 12.1388C16.2544 13.5075 18.2744 15.5792 19.4564 18.2751C20.2076 19.9883 20.1545 21.6416 19.4556 23.0805C18.8019 24.4264 17.6952 25.3587 16.7532 25.9656C13.828 27.8504 13.6907 29.0755 12.9464 32.4701C12.8915 33.8758 11.6251 35 10.0709 35C8.48173 35 7.19352 33.8248 7.19352 32.375C7.19352 27.8839 7.19122 25.2117 6.96879 22.6846C5.71683 23.5171 3.95787 23.2958 3.00181 22.1715C2.76874 21.8976 2.12372 21.0697 1.54776 20.2731C1.25599 19.8696 0.948489 19.4282 0.704581 19.0378C0.585169 18.8466 0.453191 18.6237 0.342603 18.3995C0.287549 18.2879 0.218107 18.1366 0.157777 17.9629C0.110684 17.8274 0 17.4898 0 17.0625C0 16.4363 0.250047 15.9495 0.304526 15.8434L0.305197 15.8421L0.305868 15.8408L0.307594 15.8375C0.398329 15.6577 0.499805 15.496 0.580181 15.3743C0.746015 15.1235 0.951846 14.8501 1.1619 14.5857C1.58919 14.0477 2.14856 13.4036 2.73085 12.7838C3.30672 12.1709 3.95711 11.5261 4.56606 11.0127C4.86493 10.7607 5.21635 10.487 5.58764 10.2595C5.7739 10.1454 6.0203 10.0088 6.31063 9.89319ZM7.67308 11.375C6.96812 11.375 6.35466 11.8876 5.86809 12.2979C5.33538 12.747 4.7389 13.3356 4.1873 13.9227C3.63349 14.5121 3.10741 15.1188 2.71512 15.6125C2.47399 15.9162 2.2226 16.2278 2.04967 16.5701C1.9715 16.7248 1.91827 16.8909 1.91827 17.0625C1.91827 17.4623 2.16141 17.8355 2.37127 18.1714C2.58477 18.5132 2.86599 18.9181 3.14903 19.3094C3.71253 20.0887 4.32714 20.8751 4.51743 21.0989C4.8421 21.4806 5.44463 21.55 5.8632 21.2538C6.28167 20.9577 6.35773 20.408 6.03306 20.0261C5.88554 19.8527 5.30124 19.1078 4.75031 18.3458C4.56098 18.084 4.38239 17.8295 4.23065 17.6023L3.89841 17.1048L4.27333 16.6332C4.63003 16.1847 5.12082 15.6181 5.64375 15.0616C5.76153 14.9363 5.8795 14.813 5.99661 14.6929L7.27965 13.3771L7.65419 15.1047C9.10421 21.7947 9.11179 23.9952 9.11179 32.375C9.11179 32.8583 9.54119 33.25 10.0709 33.25C10.6667 33.25 11.0301 32.7941 11.0301 32.2884C11.8129 28.7176 12.2721 26.7103 15.6466 24.5361C16.4285 24.0324 17.239 23.3243 17.7018 22.3715C18.1795 21.3879 18.2456 20.2256 17.6754 18.925C16.642 16.5681 14.8496 14.7108 13.2822 13.4525C12.4949 12.8204 11.7496 12.3276 11.1593 11.9882C10.8096 11.7872 10.4453 11.5852 10.0543 11.4571C9.90566 11.4083 9.75 11.375 9.59135 11.375H7.67308Z" fill="#333333"/>
</svg>
