<svg width="24" height="30" viewBox="0 0 24 30" fill="none" xmlns="http://www.w3.org/2000/svg">
<path d="M12.8571 19.1667H17.1429V20.8333H12.8571V25H11.1429V20.8333H6.85715V19.1667H11.1429V15H12.8571V19.1667Z" fill="#333333"/>
<path fill-rule="evenodd" clip-rule="evenodd" d="M3.36634 2.54004C2.76326 3.08012 2.27983 3.73817 2.02989 4.16342L0.541457 3.33658C0.862971 2.78958 1.45097 1.98933 2.205 1.31413C2.93966 0.656233 3.96334 0 5.14286 0H19.7143V1.66667H12.8571V6.66667H16.2857C17.2325 6.66667 18 7.41283 18 8.33333V10H18.8571C21.6975 10 24 12.2386 24 15V27.5C24 28.8807 22.8488 30 21.4286 30H2.57143C1.15123 30 0 28.8807 0 27.5V15C0 12.2386 2.30254 10 5.14286 10H6V8.33333C6 7.41283 6.76749 6.66667 7.71429 6.66667H11.1429V1.66667H5.14286C4.608 1.66667 3.9888 1.98266 3.36634 2.54004ZM1.71429 15C1.71429 13.1591 3.24934 11.6667 5.14286 11.6667H18.8571C20.7507 11.6667 22.2857 13.1591 22.2857 15V27.5C22.2857 27.9602 21.902 28.3333 21.4286 28.3333H2.57143C2.09803 28.3333 1.71429 27.9602 1.71429 27.5V15ZM16.2857 8.33333V10H7.71429V8.33333H16.2857Z" fill="#333333"/>
</svg>
