<svg width="30" height="25" viewBox="0 0 30 25" fill="none" xmlns="http://www.w3.org/2000/svg">
<path fill-rule="evenodd" clip-rule="evenodd" d="M0 6.25035C0 4.77097 1.00736 3.57178 2.25 3.57178H17.25C18.4927 3.57178 19.5 4.77097 19.5 6.25035V8.03606H23.7885C24.3541 8.03606 24.899 8.28964 25.3147 8.74642L29.2761 13.0997C29.7376 13.6068 30 14.3203 30 15.0679V22.3218H25.5V20.5361H28.5V15.0679C28.5 14.8187 28.4125 14.5809 28.2587 14.4119L24.2972 10.0586C24.1587 9.90633 23.977 9.82178 23.7885 9.82178H19.5V20.5361H21V22.3218H8.25V20.5361H18V6.25035C18 5.75722 17.6642 5.35749 17.25 5.35749H2.25C1.83579 5.35749 1.5 5.75722 1.5 6.25035V20.5361H3.75V22.3218H0V6.25035Z" fill="#333333"/>
<path fill-rule="evenodd" clip-rule="evenodd" d="M6 23.2148C6.82845 23.2148 7.5 22.4153 7.5 21.4291C7.5 20.4428 6.82845 19.6434 6 19.6434C5.17155 19.6434 4.5 20.4428 4.5 21.4291C4.5 22.4153 5.17155 23.2148 6 23.2148ZM6 25.0005C7.65683 25.0005 9 23.4015 9 21.4291C9 19.4567 7.65683 17.8577 6 17.8577C4.34314 17.8577 3 19.4567 3 21.4291C3 23.4015 4.34314 25.0005 6 25.0005Z" fill="#333333"/>
<path fill-rule="evenodd" clip-rule="evenodd" d="M23.25 23.2148C24.0784 23.2148 24.75 22.4153 24.75 21.4291C24.75 20.4428 24.0784 19.6434 23.25 19.6434C22.4216 19.6434 21.75 20.4428 21.75 21.4291C21.75 22.4153 22.4216 23.2148 23.25 23.2148ZM23.25 25.0005C24.9068 25.0005 26.25 23.4015 26.25 21.4291C26.25 19.4567 24.9068 17.8577 23.25 17.8577C21.5932 17.8577 20.25 19.4567 20.25 21.4291C20.25 23.4015 21.5932 25.0005 23.25 25.0005Z" fill="#333333"/>
<path fill-rule="evenodd" clip-rule="evenodd" d="M29.25 16.0716H18.75V14.2859H29.25V16.0716Z" fill="#333333"/>
<path fill-rule="evenodd" clip-rule="evenodd" d="M9 15.1787V8.03589H10.5V15.1787H9Z" fill="#333333"/>
<path fill-rule="evenodd" clip-rule="evenodd" d="M21.75 5.35767C22.1642 5.35767 22.5 5.7574 22.5 6.25052V8.92909H21V6.25052C21 5.7574 21.3358 5.35767 21.75 5.35767Z" fill="#333333"/>
<path fill-rule="evenodd" clip-rule="evenodd" d="M12.75 12.4998H6.75V10.7141H12.75V12.4998Z" fill="#333333"/>
<path fill-rule="evenodd" clip-rule="evenodd" d="M23.25 8.92805H20.25V7.14233H23.25V8.92805Z" fill="#333333"/>
<path fill-rule="evenodd" clip-rule="evenodd" d="M21.75 3.125C21.3358 3.125 21 2.72527 21 2.23214V0.892857C21 0.399732 21.3358 0 21.75 0C22.1642 0 22.5 0.399732 22.5 0.892857V2.23214C22.5 2.72527 22.1642 3.125 21.75 3.125Z" fill="#333333"/>
<path fill-rule="evenodd" clip-rule="evenodd" d="M24.375 6.25052C24.375 5.7574 24.7108 5.35767 25.125 5.35767H26.25C26.6642 5.35767 27 5.7574 27 6.25052C27 6.74365 26.6642 7.14338 26.25 7.14338H25.125C24.7108 7.14338 24.375 6.74365 24.375 6.25052Z" fill="#333333"/>
<path fill-rule="evenodd" clip-rule="evenodd" d="M23.8193 3.72501C23.5411 3.35956 23.5645 2.79492 23.8714 2.46385L24.557 1.72421C24.864 1.39305 25.3383 1.42081 25.6164 1.78626C25.8946 2.15162 25.8712 2.71626 25.5643 3.04742L24.8786 3.78706C24.5717 4.11822 24.0974 4.09037 23.8193 3.72501Z" fill="#333333"/>
</svg>
